<ttFont>
    <TTGlyph name="A" xMin="14" yMin="-12" xMax="546" yMax="649">
      <contour>
        <pt x="396" y="178" on="1"/>
        <pt x="347" y="181" on="0"/>
        <pt x="200" y="181" on="0"/>
        <pt x="149" y="177" on="1"/>
        <pt x="119" y="53" on="0"/>
        <pt x="105" y="-10" on="1"/>
        <pt x="87" y="-12" on="0"/>
        <pt x="52" y="-12" on="0"/>
        <pt x="14" y="-2" on="1"/>
        <pt x="177" y="432" on="0"/>
        <pt x="204" y="639" on="1"/>
        <pt x="233" y="649" on="0"/>
        <pt x="327" y="649" on="0"/>
        <pt x="356" y="639" on="1"/>
        <pt x="383" y="432" on="0"/>
        <pt x="546" y="-2" on="1"/>
        <pt x="510" y="-12" on="0"/>
        <pt x="455" y="-12" on="0"/>
        <pt x="440" y="-10" on="1"/>
        <pt x="423" y="65" on="0"/>
      </contour>
      <contour>
        <pt x="166" y="247" on="1"/>
        <pt x="212" y="246" on="0"/>
        <pt x="314" y="246" on="0"/>
        <pt x="378" y="248" on="1"/>
        <pt x="333" y="423" on="0"/>
        <pt x="279" y="578" on="1"/>
        <pt x="273" y="578" on="1"/>
        <pt x="214" y="430" on="0"/>
      </contour>
    </TTGlyph>
    <TTGlyph name="AE" xMin="12" yMin="-11" xMax="719" yMax="653">
      <contour>
        <pt x="476" y="76" on="1"/>
        <pt x="511" y="73" on="0"/>
        <pt x="658" y="73" on="0"/>
        <pt x="711" y="82" on="1"/>
        <pt x="719" y="56" on="0"/>
        <pt x="719" y="7" on="0"/>
        <pt x="715" y="-11" on="1"/>
        <pt x="696" y="-6" on="0"/>
        <pt x="574" y="3" on="0"/>
        <pt x="454" y="3" on="0"/>
        <pt x="388" y="-4" on="1"/>
        <pt x="388" y="77" on="0"/>
        <pt x="380" y="179" on="1"/>
        <pt x="298" y="181" on="0"/>
        <pt x="213" y="181" on="0"/>
        <pt x="168" y="177" on="1"/>
        <pt x="143" y="110" on="0"/>
        <pt x="106" y="-6" on="1"/>
        <pt x="92" y="-8" on="0"/>
        <pt x="46" y="-8" on="0"/>
        <pt x="12" y="2" on="1"/>
        <pt x="220" y="450" on="0"/>
        <pt x="261" y="646" on="1"/>
        <pt x="317" y="639" on="0"/>
        <pt x="456" y="639" on="1"/>
        <pt x="517" y="639" on="1"/>
        <pt x="551" y="639" on="0"/>
        <pt x="672" y="648" on="0"/>
        <pt x="690" y="653" on="1"/>
        <pt x="694" y="635" on="0"/>
        <pt x="694" y="591" on="0"/>
        <pt x="686" y="565" on="1"/>
        <pt x="633" y="574" on="0"/>
        <pt x="452" y="574" on="0"/>
        <pt x="423" y="571" on="1"/>
        <pt x="424" y="508" on="0"/>
        <pt x="438" y="365" on="1"/>
        <pt x="458" y="364" on="0"/>
        <pt x="616" y="364" on="0"/>
        <pt x="665" y="375" on="1"/>
        <pt x="670" y="343" on="0"/>
        <pt x="670" y="302" on="0"/>
        <pt x="669" y="289" on="1"/>
        <pt x="622" y="297" on="0"/>
        <pt x="484" y="297" on="0"/>
        <pt x="446" y="295" on="1"/>
        <pt x="461" y="149" on="0"/>
      </contour>
      <contour>
        <pt x="375" y="248" on="1"/>
        <pt x="369" y="310" on="1"/>
        <pt x="348" y="483" on="0"/>
        <pt x="330" y="578" on="1"/>
        <pt x="323" y="578" on="1"/>
        <pt x="257" y="419" on="0"/>
        <pt x="193" y="247" on="1"/>
        <pt x="236" y="246" on="0"/>
        <pt x="350" y="246" on="0"/>
      </contour>
    </TTGlyph>
    <TTGlyph name="Aacute" xMin="14" yMin="-12" xMax="546" yMax="838">
      <contour>
        <pt x="396" y="178" on="1"/>
        <pt x="347" y="181" on="0"/>
        <pt x="200" y="181" on="0"/>
        <pt x="149" y="177" on="1"/>
        <pt x="119" y="53" on="0"/>
        <pt x="105" y="-10" on="1"/>
        <pt x="87" y="-12" on="0"/>
        <pt x="52" y="-12" on="0"/>
        <pt x="14" y="-2" on="1"/>
        <pt x="177" y="432" on="0"/>
        <pt x="204" y="639" on="1"/>
        <pt x="233" y="649" on="0"/>
        <pt x="327" y="649" on="0"/>
        <pt x="356" y="639" on="1"/>
        <pt x="383" y="432" on="0"/>
        <pt x="546" y="-2" on="1"/>
        <pt x="510" y="-12" on="0"/>
        <pt x="455" y="-12" on="0"/>
        <pt x="440" y="-10" on="1"/>
        <pt x="423" y="65" on="0"/>
      </contour>
      <contour>
        <pt x="166" y="247" on="1"/>
        <pt x="212" y="246" on="0"/>
        <pt x="314" y="246" on="0"/>
        <pt x="378" y="248" on="1"/>
        <pt x="333" y="423" on="0"/>
        <pt x="279" y="578" on="1"/>
        <pt x="273" y="578" on="1"/>
        <pt x="214" y="430" on="0"/>
      </contour>
      <contour>
        <pt x="397" y="768" on="1"/>
        <pt x="397" y="756" on="0"/>
        <pt x="396" y="750" on="1"/>
        <pt x="273" y="713" on="0"/>
        <pt x="214" y="704" on="1"/>
        <pt x="201" y="721" on="0"/>
        <pt x="199" y="743" on="1"/>
        <pt x="220" y="754" on="0"/>
        <pt x="279" y="784" on="0"/>
        <pt x="294" y="792" on="1"/>
        <pt x="338" y="816" on="0"/>
        <pt x="367" y="838" on="1"/>
        <pt x="397" y="805" on="0"/>
      </contour>
    </TTGlyph>
    <TTGlyph name="Acircumflex" xMin="14" yMin="-12" xMax="546" yMax="845">
      <contour>
        <pt x="396" y="178" on="1"/>
        <pt x="347" y="181" on="0"/>
        <pt x="200" y="181" on="0"/>
        <pt x="149" y="177" on="1"/>
        <pt x="119" y="53" on="0"/>
        <pt x="105" y="-10" on="1"/>
        <pt x="87" y="-12" on="0"/>
        <pt x="52" y="-12" on="0"/>
        <pt x="14" y="-2" on="1"/>
        <pt x="177" y="432" on="0"/>
        <pt x="204" y="639" on="1"/>
        <pt x="233" y="649" on="0"/>
        <pt x="327" y="649" on="0"/>
        <pt x="356" y="639" on="1"/>
        <pt x="383" y="432" on="0"/>
        <pt x="546" y="-2" on="1"/>
        <pt x="510" y="-12" on="0"/>
        <pt x="455" y="-12" on="0"/>
        <pt x="440" y="-10" on="1"/>
        <pt x="423" y="65" on="0"/>
      </contour>
      <contour>
        <pt x="166" y="247" on="1"/>
        <pt x="212" y="246" on="0"/>
        <pt x="314" y="246" on="0"/>
        <pt x="378" y="248" on="1"/>
        <pt x="333" y="423" on="0"/>
        <pt x="279" y="578" on="1"/>
        <pt x="273" y="578" on="1"/>
        <pt x="214" y="430" on="0"/>
      </contour>
      <contour>
        <pt x="409" y="704" on="1"/>
        <pt x="341" y="725" on="0"/>
        <pt x="282" y="756" on="1"/>
        <pt x="195" y="716" on="0"/>
        <pt x="147" y="704" on="1"/>
        <pt x="135" y="722" on="0"/>
        <pt x="132" y="743" on="1"/>
        <pt x="153" y="757" on="0"/>
        <pt x="189" y="775" on="0"/>
        <pt x="218" y="793" on="0"/>
        <pt x="232" y="803" on="0"/>
        <pt x="244" y="811" on="1"/>
        <pt x="258" y="821" on="0"/>
        <pt x="282" y="845" on="1"/>
        <pt x="326" y="803" on="0"/>
        <pt x="425" y="742" on="1"/>
        <pt x="422" y="721" on="0"/>
      </contour>
    </TTGlyph>
    <TTGlyph name="Adieresis" xMin="14" yMin="-12" xMax="546" yMax="806">
      <contour>
        <pt x="396" y="178" on="1"/>
        <pt x="347" y="181" on="0"/>
        <pt x="200" y="181" on="0"/>
        <pt x="149" y="177" on="1"/>
        <pt x="119" y="53" on="0"/>
        <pt x="105" y="-10" on="1"/>
        <pt x="87" y="-12" on="0"/>
        <pt x="52" y="-12" on="0"/>
        <pt x="14" y="-2" on="1"/>
        <pt x="177" y="432" on="0"/>
        <pt x="204" y="639" on="1"/>
        <pt x="233" y="649" on="0"/>
        <pt x="327" y="649" on="0"/>
        <pt x="356" y="639" on="1"/>
        <pt x="383" y="432" on="0"/>
        <pt x="546" y="-2" on="1"/>
        <pt x="510" y="-12" on="0"/>
        <pt x="455" y="-12" on="0"/>
        <pt x="440" y="-10" on="1"/>
        <pt x="423" y="65" on="0"/>
      </contour>
      <contour>
        <pt x="166" y="247" on="1"/>
        <pt x="212" y="246" on="0"/>
        <pt x="314" y="246" on="0"/>
        <pt x="378" y="248" on="1"/>
        <pt x="333" y="423" on="0"/>
        <pt x="279" y="578" on="1"/>
        <pt x="273" y="578" on="1"/>
        <pt x="214" y="430" on="0"/>
      </contour>
      <contour>
        <pt x="407" y="759" on="1"/>
        <pt x="407" y="704" on="0"/>
        <pt x="349" y="704" on="1"/>
        <pt x="304" y="704" on="0"/>
        <pt x="304" y="750" on="1"/>
        <pt x="304" y="806" on="0"/>
        <pt x="362" y="806" on="1"/>
        <pt x="407" y="806" on="0"/>
      </contour>
      <contour>
        <pt x="257" y="759" on="1"/>
        <pt x="257" y="704" on="0"/>
        <pt x="199" y="704" on="1"/>
        <pt x="154" y="704" on="0"/>
        <pt x="154" y="750" on="1"/>
        <pt x="154" y="806" on="0"/>
        <pt x="212" y="806" on="1"/>
        <pt x="257" y="806" on="0"/>
      </contour>
    </TTGlyph>
    <TTGlyph name="Agrave" xMin="14" yMin="-12" xMax="546" yMax="845">
      <contour>
        <pt x="396" y="178" on="1"/>
        <pt x="347" y="181" on="0"/>
        <pt x="200" y="181" on="0"/>
        <pt x="149" y="177" on="1"/>
        <pt x="119" y="53" on="0"/>
        <pt x="105" y="-10" on="1"/>
        <pt x="87" y="-12" on="0"/>
        <pt x="52" y="-12" on="0"/>
        <pt x="14" y="-2" on="1"/>
        <pt x="177" y="432" on="0"/>
        <pt x="204" y="639" on="1"/>
        <pt x="233" y="649" on="0"/>
        <pt x="327" y="649" on="0"/>
        <pt x="356" y="639" on="1"/>
        <pt x="383" y="432" on="0"/>
        <pt x="546" y="-2" on="1"/>
        <pt x="510" y="-12" on="0"/>
        <pt x="455" y="-12" on="0"/>
        <pt x="440" y="-10" on="1"/>
        <pt x="423" y="65" on="0"/>
      </contour>
      <contour>
        <pt x="166" y="247" on="1"/>
        <pt x="212" y="246" on="0"/>
        <pt x="314" y="246" on="0"/>
        <pt x="378" y="248" on="1"/>
        <pt x="333" y="423" on="0"/>
        <pt x="279" y="578" on="1"/>
        <pt x="273" y="578" on="1"/>
        <pt x="214" y="430" on="0"/>
      </contour>
      <contour>
        <pt x="338" y="704" on="1"/>
        <pt x="275" y="717" on="0"/>
        <pt x="158" y="759" on="1"/>
        <pt x="158" y="792" on="0"/>
        <pt x="171" y="823" on="0"/>
        <pt x="191" y="845" on="1"/>
        <pt x="229" y="813" on="0"/>
        <pt x="284" y="782" on="0"/>
        <pt x="297" y="774" on="0"/>
        <pt x="347" y="746" on="0"/>
        <pt x="354" y="742" on="1"/>
        <pt x="351" y="721" on="0"/>
      </contour>
    </TTGlyph>
    <TTGlyph name="Aring" xMin="14" yMin="-12" xMax="546" yMax="860">
      <contour>
        <pt x="396" y="178" on="1"/>
        <pt x="347" y="181" on="0"/>
        <pt x="200" y="181" on="0"/>
        <pt x="149" y="177" on="1"/>
        <pt x="119" y="53" on="0"/>
        <pt x="105" y="-10" on="1"/>
        <pt x="87" y="-12" on="0"/>
        <pt x="52" y="-12" on="0"/>
        <pt x="14" y="-2" on="1"/>
        <pt x="177" y="432" on="0"/>
        <pt x="204" y="639" on="1"/>
        <pt x="233" y="649" on="0"/>
        <pt x="327" y="649" on="0"/>
        <pt x="356" y="639" on="1"/>
        <pt x="383" y="432" on="0"/>
        <pt x="546" y="-2" on="1"/>
        <pt x="510" y="-12" on="0"/>
        <pt x="455" y="-12" on="0"/>
        <pt x="440" y="-10" on="1"/>
        <pt x="423" y="65" on="0"/>
      </contour>
      <contour>
        <pt x="166" y="247" on="1"/>
        <pt x="212" y="246" on="0"/>
        <pt x="314" y="246" on="0"/>
        <pt x="378" y="248" on="1"/>
        <pt x="333" y="423" on="0"/>
        <pt x="279" y="578" on="1"/>
        <pt x="273" y="578" on="1"/>
        <pt x="214" y="430" on="0"/>
      </contour>
      <contour>
        <pt x="367" y="783" on="1"/>
        <pt x="367" y="704" on="0"/>
        <pt x="273" y="704" on="1"/>
        <pt x="230" y="704" on="0"/>
        <pt x="193" y="742" on="0"/>
        <pt x="193" y="781" on="1"/>
        <pt x="193" y="860" on="0"/>
        <pt x="287" y="860" on="1"/>
        <pt x="331" y="860" on="0"/>
        <pt x="367" y="824" on="0"/>
      </contour>
      <contour>
        <pt x="285" y="823" on="1"/>
        <pt x="232" y="823" on="0"/>
        <pt x="232" y="783" on="1"/>
        <pt x="232" y="760" on="0"/>
        <pt x="252" y="741" on="0"/>
        <pt x="275" y="741" on="1"/>
        <pt x="328" y="741" on="0"/>
        <pt x="328" y="784" on="1"/>
        <pt x="328" y="805" on="0"/>
        <pt x="308" y="823" on="0"/>
      </contour>
    </TTGlyph>
    <TTGlyph name="Atilde" xMin="14" yMin="-12" xMax="546" yMax="803">
      <contour>
        <pt x="396" y="178" on="1"/>
        <pt x="347" y="181" on="0"/>
        <pt x="200" y="181" on="0"/>
        <pt x="149" y="177" on="1"/>
        <pt x="119" y="53" on="0"/>
        <pt x="105" y="-10" on="1"/>
        <pt x="87" y="-12" on="0"/>
        <pt x="52" y="-12" on="0"/>
        <pt x="14" y="-2" on="1"/>
        <pt x="177" y="432" on="0"/>
        <pt x="204" y="639" on="1"/>
        <pt x="233" y="649" on="0"/>
        <pt x="327" y="649" on="0"/>
        <pt x="356" y="639" on="1"/>
        <pt x="383" y="432" on="0"/>
        <pt x="546" y="-2" on="1"/>
        <pt x="510" y="-12" on="0"/>
        <pt x="455" y="-12" on="0"/>
        <pt x="440" y="-10" on="1"/>
        <pt x="423" y="65" on="0"/>
      </contour>
      <contour>
        <pt x="166" y="247" on="1"/>
        <pt x="212" y="246" on="0"/>
        <pt x="314" y="246" on="0"/>
        <pt x="378" y="248" on="1"/>
        <pt x="333" y="423" on="0"/>
        <pt x="279" y="578" on="1"/>
        <pt x="273" y="578" on="1"/>
        <pt x="214" y="430" on="0"/>
      </contour>
      <contour>
        <pt x="409" y="744" on="0"/>
        <pt x="349" y="704" on="0"/>
        <pt x="299" y="704" on="0"/>
        <pt x="236" y="737" on="0"/>
        <pt x="218" y="737" on="1"/>
        <pt x="182" y="737" on="0"/>
        <pt x="164" y="705" on="1"/>
        <pt x="137" y="716" on="0"/>
        <pt x="132" y="737" on="1"/>
        <pt x="147" y="763" on="0"/>
        <pt x="207" y="803" on="0"/>
        <pt x="260" y="803" on="0"/>
        <pt x="323" y="770" on="0"/>
        <pt x="338" y="770" on="1"/>
        <pt x="374" y="770" on="0"/>
        <pt x="392" y="802" on="1"/>
        <pt x="419" y="791" on="0"/>
        <pt x="424" y="770" on="1"/>
      </contour>
    </TTGlyph>
    <TTGlyph name="B" xMin="100" yMin="-15" xMax="535" yMax="655">
      <contour>
        <pt x="103" y="13" on="1"/>
        <pt x="117" y="130" on="0"/>
        <pt x="117" y="531" on="0"/>
        <pt x="100" y="627" on="1"/>
        <pt x="179" y="655" on="0"/>
        <pt x="392" y="655" on="0"/>
        <pt x="492" y="559" on="0"/>
        <pt x="492" y="374" on="0"/>
        <pt x="428" y="326" on="1"/>
        <pt x="535" y="284" on="0"/>
        <pt x="535" y="173" on="1"/>
        <pt x="535" y="-15" on="0"/>
        <pt x="306" y="-15" on="1"/>
        <pt x="185" y="-15" on="0"/>
      </contour>
      <contour>
        <pt x="250" y="372" on="1"/>
        <pt x="272" y="357" on="0"/>
        <pt x="363" y="357" on="0"/>
        <pt x="405" y="420" on="0"/>
        <pt x="405" y="524" on="0"/>
        <pt x="348" y="598" on="0"/>
        <pt x="282" y="598" on="1"/>
        <pt x="245" y="598" on="0"/>
        <pt x="200" y="580" on="1"/>
        <pt x="192" y="499" on="0"/>
        <pt x="192" y="183" on="0"/>
        <pt x="200" y="77" on="1"/>
        <pt x="258" y="54" on="0"/>
        <pt x="307" y="54" on="1"/>
        <pt x="448" y="54" on="0"/>
        <pt x="448" y="173" on="1"/>
        <pt x="448" y="274" on="0"/>
        <pt x="355" y="295" on="1"/>
        <pt x="328" y="290" on="0"/>
        <pt x="268" y="290" on="0"/>
        <pt x="229" y="305" on="1"/>
        <pt x="229" y="351" on="0"/>
      </contour>
    </TTGlyph>
    <TTGlyph name="C" xMin="55" yMin="-15" xMax="501" yMax="655">
      <contour>
        <pt x="303" y="655" on="1"/>
        <pt x="403" y="655" on="0"/>
        <pt x="501" y="556" on="0"/>
        <pt x="501" y="478" on="1"/>
        <pt x="501" y="465" on="0"/>
        <pt x="498" y="453" on="1"/>
        <pt x="481" y="444" on="0"/>
        <pt x="432" y="444" on="0"/>
        <pt x="408" y="446" on="1"/>
        <pt x="409" y="454" on="0"/>
        <pt x="409" y="467" on="1"/>
        <pt x="409" y="526" on="0"/>
        <pt x="353" y="596" on="0"/>
        <pt x="303" y="596" on="1"/>
        <pt x="137" y="596" on="0"/>
        <pt x="137" y="59" on="0"/>
        <pt x="303" y="59" on="1"/>
        <pt x="342" y="59" on="0"/>
        <pt x="426" y="97" on="0"/>
        <pt x="455" y="130" on="1"/>
        <pt x="486" y="105" on="0"/>
        <pt x="495" y="51" on="1"/>
        <pt x="406" y="-15" on="0"/>
        <pt x="303" y="-15" on="1"/>
        <pt x="182" y="-15" on="0"/>
        <pt x="122" y="52" on="1"/>
        <pt x="72" y="107" on="0"/>
        <pt x="60" y="220" on="1"/>
        <pt x="55" y="266" on="0"/>
        <pt x="55" y="327" on="1"/>
        <pt x="55" y="655" on="0"/>
      </contour>
    </TTGlyph>
    <TTGlyph name="Ccedilla" xMin="55" yMin="-210" xMax="501" yMax="655">
      <contour>
        <pt x="303" y="-15" on="1"/>
        <pt x="293" y="-14" on="1"/>
        <pt x="295" y="-54" on="1"/>
        <pt x="396" y="-58" on="0"/>
        <pt x="396" y="-124" on="1"/>
        <pt x="396" y="-210" on="0"/>
        <pt x="285" y="-210" on="1"/>
        <pt x="240" y="-210" on="0"/>
        <pt x="211" y="-198" on="1"/>
        <pt x="210" y="-195" on="0"/>
        <pt x="210" y="-164" on="0"/>
        <pt x="223" y="-144" on="1"/>
        <pt x="245" y="-164" on="0"/>
        <pt x="328" y="-164" on="0"/>
        <pt x="328" y="-125" on="1"/>
        <pt x="328" y="-95" on="0"/>
        <pt x="283" y="-95" on="1"/>
        <pt x="263" y="-95" on="0"/>
        <pt x="235" y="-99" on="1"/>
        <pt x="250" y="-11" on="1"/>
        <pt x="114" y="8" on="0"/>
        <pt x="76" y="143" on="1"/>
        <pt x="55" y="215" on="0"/>
        <pt x="55" y="327" on="1"/>
        <pt x="55" y="655" on="0"/>
        <pt x="303" y="655" on="1"/>
        <pt x="403" y="655" on="0"/>
        <pt x="501" y="556" on="0"/>
        <pt x="501" y="478" on="1"/>
        <pt x="501" y="465" on="0"/>
        <pt x="498" y="453" on="1"/>
        <pt x="481" y="444" on="0"/>
        <pt x="432" y="444" on="0"/>
        <pt x="408" y="446" on="1"/>
        <pt x="409" y="454" on="0"/>
        <pt x="409" y="467" on="1"/>
        <pt x="409" y="526" on="0"/>
        <pt x="353" y="596" on="0"/>
        <pt x="303" y="596" on="1"/>
        <pt x="137" y="596" on="0"/>
        <pt x="137" y="59" on="0"/>
        <pt x="303" y="59" on="1"/>
        <pt x="342" y="59" on="0"/>
        <pt x="426" y="97" on="0"/>
        <pt x="455" y="130" on="1"/>
        <pt x="486" y="105" on="0"/>
        <pt x="495" y="51" on="1"/>
        <pt x="406" y="-15" on="0"/>
      </contour>
    </TTGlyph>
    <TTGlyph name="D" xMin="100" yMin="-15" xMax="562" yMax="655">
      <contour>
        <pt x="299" y="655" on="1"/>
        <pt x="373" y="655" on="0"/>
        <pt x="479" y="600" on="0"/>
        <pt x="508" y="552" on="1"/>
        <pt x="562" y="459" on="0"/>
        <pt x="562" y="325" on="1"/>
        <pt x="562" y="139" on="0"/>
        <pt x="488" y="56" on="1"/>
        <pt x="459" y="25" on="0"/>
        <pt x="363" y="-15" on="0"/>
        <pt x="299" y="-15" on="1"/>
        <pt x="178" y="-15" on="0"/>
        <pt x="103" y="13" on="1"/>
        <pt x="117" y="130" on="0"/>
        <pt x="117" y="531" on="0"/>
        <pt x="100" y="627" on="1"/>
        <pt x="186" y="655" on="0"/>
      </contour>
      <contour>
        <pt x="299" y="56" on="1"/>
        <pt x="476" y="56" on="0"/>
        <pt x="476" y="325" on="1"/>
        <pt x="476" y="402" on="0"/>
        <pt x="444" y="518" on="0"/>
        <pt x="362" y="596" on="0"/>
        <pt x="247" y="596" on="0"/>
        <pt x="199" y="577" on="1"/>
        <pt x="192" y="497" on="0"/>
        <pt x="192" y="168" on="0"/>
        <pt x="200" y="77" on="1"/>
        <pt x="247" y="56" on="0"/>
      </contour>
    </TTGlyph>
    <TTGlyph name="Delta" xMin="14" yMin="-2" xMax="546" yMax="649">
      <contour>
        <pt x="546" y="-2" on="1"/>
        <pt x="472" y="3" on="0"/>
        <pt x="96" y="3" on="0"/>
        <pt x="14" y="-2" on="1"/>
        <pt x="177" y="432" on="0"/>
        <pt x="204" y="639" on="1"/>
        <pt x="233" y="649" on="0"/>
        <pt x="327" y="649" on="0"/>
        <pt x="356" y="639" on="1"/>
        <pt x="383" y="432" on="0"/>
      </contour>
      <contour>
        <pt x="125" y="71" on="1"/>
        <pt x="195" y="66" on="0"/>
        <pt x="330" y="66" on="0"/>
        <pt x="420" y="75" on="1"/>
        <pt x="373" y="271" on="0"/>
        <pt x="280" y="578" on="1"/>
        <pt x="265" y="578" on="1"/>
        <pt x="175" y="279" on="0"/>
      </contour>
    </TTGlyph>
    <TTGlyph name="E" xMin="94" yMin="-11" xMax="463" yMax="653">
      <contour>
        <pt x="195" y="76" on="1"/>
        <pt x="230" y="73" on="0"/>
        <pt x="402" y="73" on="0"/>
        <pt x="455" y="82" on="1"/>
        <pt x="463" y="56" on="0"/>
        <pt x="463" y="7" on="0"/>
        <pt x="459" y="-11" on="1"/>
        <pt x="440" y="-6" on="0"/>
        <pt x="318" y="3" on="0"/>
        <pt x="166" y="3" on="0"/>
        <pt x="99" y="-4" on="1"/>
        <pt x="113" y="134" on="0"/>
        <pt x="113" y="528" on="0"/>
        <pt x="94" y="646" on="1"/>
        <pt x="161" y="639" on="0"/>
        <pt x="315" y="639" on="0"/>
        <pt x="436" y="648" on="0"/>
        <pt x="454" y="653" on="1"/>
        <pt x="458" y="635" on="0"/>
        <pt x="458" y="591" on="0"/>
        <pt x="450" y="565" on="1"/>
        <pt x="397" y="574" on="0"/>
        <pt x="229" y="574" on="0"/>
        <pt x="194" y="571" on="1"/>
        <pt x="188" y="514" on="0"/>
        <pt x="188" y="365" on="1"/>
        <pt x="209" y="364" on="0"/>
        <pt x="369" y="364" on="0"/>
        <pt x="419" y="375" on="1"/>
        <pt x="424" y="343" on="0"/>
        <pt x="424" y="302" on="0"/>
        <pt x="423" y="289" on="1"/>
        <pt x="376" y="297" on="0"/>
        <pt x="232" y="297" on="0"/>
        <pt x="188" y="295" on="1"/>
        <pt x="188" y="164" on="0"/>
      </contour>
    </TTGlyph>
    <TTGlyph name="Eacute" xMin="94" yMin="-11" xMax="463" yMax="838">
      <contour>
        <pt x="195" y="76" on="1"/>
        <pt x="230" y="73" on="0"/>
        <pt x="402" y="73" on="0"/>
        <pt x="455" y="82" on="1"/>
        <pt x="463" y="56" on="0"/>
        <pt x="463" y="7" on="0"/>
        <pt x="459" y="-11" on="1"/>
        <pt x="440" y="-6" on="0"/>
        <pt x="318" y="3" on="0"/>
        <pt x="166" y="3" on="0"/>
        <pt x="99" y="-4" on="1"/>
        <pt x="113" y="134" on="0"/>
        <pt x="113" y="528" on="0"/>
        <pt x="94" y="646" on="1"/>
        <pt x="161" y="639" on="0"/>
        <pt x="315" y="639" on="0"/>
        <pt x="436" y="648" on="0"/>
        <pt x="454" y="653" on="1"/>
        <pt x="458" y="635" on="0"/>
        <pt x="458" y="591" on="0"/>
        <pt x="450" y="565" on="1"/>
        <pt x="397" y="574" on="0"/>
        <pt x="229" y="574" on="0"/>
        <pt x="194" y="571" on="1"/>
        <pt x="188" y="514" on="0"/>
        <pt x="188" y="365" on="1"/>
        <pt x="209" y="364" on="0"/>
        <pt x="369" y="364" on="0"/>
        <pt x="419" y="375" on="1"/>
        <pt x="424" y="343" on="0"/>
        <pt x="424" y="302" on="0"/>
        <pt x="423" y="289" on="1"/>
        <pt x="376" y="297" on="0"/>
        <pt x="211" y="297" on="0"/>
        <pt x="188" y="295" on="1"/>
        <pt x="188" y="164" on="0"/>
      </contour>
      <contour>
        <pt x="406" y="768" on="1"/>
        <pt x="406" y="756" on="0"/>
        <pt x="405" y="750" on="1"/>
        <pt x="282" y="713" on="0"/>
        <pt x="223" y="704" on="1"/>
        <pt x="210" y="721" on="0"/>
        <pt x="208" y="743" on="1"/>
        <pt x="229" y="754" on="0"/>
        <pt x="288" y="784" on="0"/>
        <pt x="303" y="792" on="1"/>
        <pt x="347" y="816" on="0"/>
        <pt x="376" y="838" on="1"/>
        <pt x="406" y="805" on="0"/>
      </contour>
    </TTGlyph>
    <TTGlyph name="Ecircumflex" xMin="94" yMin="-11" xMax="463" yMax="845">
      <contour>
        <pt x="195" y="76" on="1"/>
        <pt x="230" y="73" on="0"/>
        <pt x="402" y="73" on="0"/>
        <pt x="455" y="82" on="1"/>
        <pt x="463" y="56" on="0"/>
        <pt x="463" y="7" on="0"/>
        <pt x="459" y="-11" on="1"/>
        <pt x="440" y="-6" on="0"/>
        <pt x="318" y="3" on="0"/>
        <pt x="166" y="3" on="0"/>
        <pt x="99" y="-4" on="1"/>
        <pt x="113" y="134" on="0"/>
        <pt x="113" y="528" on="0"/>
        <pt x="94" y="646" on="1"/>
        <pt x="161" y="639" on="0"/>
        <pt x="315" y="639" on="0"/>
        <pt x="436" y="648" on="0"/>
        <pt x="454" y="653" on="1"/>
        <pt x="458" y="635" on="0"/>
        <pt x="458" y="591" on="0"/>
        <pt x="450" y="565" on="1"/>
        <pt x="397" y="574" on="0"/>
        <pt x="229" y="574" on="0"/>
        <pt x="194" y="571" on="1"/>
        <pt x="188" y="514" on="0"/>
        <pt x="188" y="365" on="1"/>
        <pt x="209" y="364" on="0"/>
        <pt x="369" y="364" on="0"/>
        <pt x="419" y="375" on="1"/>
        <pt x="424" y="343" on="0"/>
        <pt x="424" y="302" on="0"/>
        <pt x="423" y="289" on="1"/>
        <pt x="376" y="297" on="0"/>
        <pt x="232" y="297" on="0"/>
        <pt x="188" y="295" on="1"/>
        <pt x="188" y="164" on="0"/>
      </contour>
      <contour>
        <pt x="412" y="704" on="1"/>
        <pt x="344" y="725" on="0"/>
        <pt x="285" y="756" on="1"/>
        <pt x="198" y="716" on="0"/>
        <pt x="150" y="704" on="1"/>
        <pt x="138" y="722" on="0"/>
        <pt x="135" y="743" on="1"/>
        <pt x="156" y="757" on="0"/>
        <pt x="192" y="775" on="0"/>
        <pt x="221" y="793" on="0"/>
        <pt x="235" y="803" on="0"/>
        <pt x="246" y="811" on="1"/>
        <pt x="261" y="821" on="0"/>
        <pt x="285" y="845" on="1"/>
        <pt x="329" y="803" on="0"/>
        <pt x="428" y="742" on="1"/>
        <pt x="425" y="721" on="0"/>
      </contour>
    </TTGlyph>
    <TTGlyph name="Edieresis" xMin="94" yMin="-11" xMax="463" yMax="806">
      <contour>
        <pt x="406" y="759" on="1"/>
        <pt x="406" y="704" on="0"/>
        <pt x="348" y="704" on="1"/>
        <pt x="303" y="704" on="0"/>
        <pt x="303" y="750" on="1"/>
        <pt x="303" y="806" on="0"/>
        <pt x="361" y="806" on="1"/>
        <pt x="406" y="806" on="0"/>
      </contour>
      <contour>
        <pt x="256" y="759" on="1"/>
        <pt x="256" y="704" on="0"/>
        <pt x="198" y="704" on="1"/>
        <pt x="153" y="704" on="0"/>
        <pt x="153" y="750" on="1"/>
        <pt x="153" y="806" on="0"/>
        <pt x="211" y="806" on="1"/>
        <pt x="256" y="806" on="0"/>
      </contour>
      <contour>
        <pt x="195" y="76" on="1"/>
        <pt x="230" y="73" on="0"/>
        <pt x="402" y="73" on="0"/>
        <pt x="455" y="82" on="1"/>
        <pt x="463" y="56" on="0"/>
        <pt x="463" y="7" on="0"/>
        <pt x="459" y="-11" on="1"/>
        <pt x="440" y="-6" on="0"/>
        <pt x="318" y="3" on="0"/>
        <pt x="166" y="3" on="0"/>
        <pt x="99" y="-4" on="1"/>
        <pt x="113" y="134" on="0"/>
        <pt x="113" y="528" on="0"/>
        <pt x="94" y="646" on="1"/>
        <pt x="161" y="639" on="0"/>
        <pt x="315" y="639" on="0"/>
        <pt x="436" y="648" on="0"/>
        <pt x="454" y="653" on="1"/>
        <pt x="458" y="635" on="0"/>
        <pt x="458" y="591" on="0"/>
        <pt x="450" y="565" on="1"/>
        <pt x="397" y="574" on="0"/>
        <pt x="229" y="574" on="0"/>
        <pt x="194" y="571" on="1"/>
        <pt x="188" y="514" on="0"/>
        <pt x="188" y="365" on="1"/>
        <pt x="209" y="364" on="0"/>
        <pt x="369" y="364" on="0"/>
        <pt x="419" y="375" on="1"/>
        <pt x="424" y="343" on="0"/>
        <pt x="424" y="302" on="0"/>
        <pt x="423" y="289" on="1"/>
        <pt x="376" y="297" on="0"/>
        <pt x="232" y="297" on="0"/>
        <pt x="188" y="295" on="1"/>
        <pt x="188" y="164" on="0"/>
      </contour>
    </TTGlyph>
    <TTGlyph name="Egrave" xMin="94" yMin="-11" xMax="463" yMax="845">
      <contour>
        <pt x="357" y="704" on="1"/>
        <pt x="294" y="717" on="0"/>
        <pt x="177" y="759" on="1"/>
        <pt x="177" y="792" on="0"/>
        <pt x="190" y="823" on="0"/>
        <pt x="210" y="845" on="1"/>
        <pt x="248" y="813" on="0"/>
        <pt x="303" y="782" on="0"/>
        <pt x="316" y="774" on="0"/>
        <pt x="366" y="746" on="0"/>
        <pt x="373" y="742" on="1"/>
        <pt x="370" y="721" on="0"/>
      </contour>
      <contour>
        <pt x="195" y="76" on="1"/>
        <pt x="230" y="73" on="0"/>
        <pt x="402" y="73" on="0"/>
        <pt x="455" y="82" on="1"/>
        <pt x="463" y="56" on="0"/>
        <pt x="463" y="7" on="0"/>
        <pt x="459" y="-11" on="1"/>
        <pt x="440" y="-6" on="0"/>
        <pt x="318" y="3" on="0"/>
        <pt x="166" y="3" on="0"/>
        <pt x="99" y="-4" on="1"/>
        <pt x="113" y="134" on="0"/>
        <pt x="113" y="528" on="0"/>
        <pt x="94" y="646" on="1"/>
        <pt x="161" y="639" on="0"/>
        <pt x="315" y="639" on="0"/>
        <pt x="436" y="648" on="0"/>
        <pt x="454" y="653" on="1"/>
        <pt x="458" y="635" on="0"/>
        <pt x="458" y="591" on="0"/>
        <pt x="450" y="565" on="1"/>
        <pt x="397" y="574" on="0"/>
        <pt x="229" y="574" on="0"/>
        <pt x="194" y="571" on="1"/>
        <pt x="188" y="514" on="0"/>
        <pt x="188" y="365" on="1"/>
        <pt x="209" y="364" on="0"/>
        <pt x="369" y="364" on="0"/>
        <pt x="419" y="375" on="1"/>
        <pt x="424" y="343" on="0"/>
        <pt x="424" y="302" on="0"/>
        <pt x="423" y="289" on="1"/>
        <pt x="376" y="297" on="0"/>
        <pt x="232" y="297" on="0"/>
        <pt x="188" y="295" on="1"/>
        <pt x="188" y="164" on="0"/>
      </contour>
    </TTGlyph>
    <TTGlyph name="Eth" xMin="45" yMin="-15" xMax="561" yMax="655">
      <contour>
        <pt x="298" y="655" on="1"/>
        <pt x="372" y="655" on="0"/>
        <pt x="478" y="600" on="0"/>
        <pt x="506" y="552" on="1"/>
        <pt x="561" y="459" on="0"/>
        <pt x="561" y="325" on="1"/>
        <pt x="561" y="139" on="0"/>
        <pt x="486" y="56" on="1"/>
        <pt x="458" y="25" on="0"/>
        <pt x="362" y="-15" on="0"/>
        <pt x="298" y="-15" on="1"/>
        <pt x="177" y="-15" on="0"/>
        <pt x="102" y="13" on="1"/>
        <pt x="114" y="118" on="0"/>
        <pt x="116" y="291" on="1"/>
        <pt x="82" y="288" on="0"/>
        <pt x="48" y="283" on="1"/>
        <pt x="45" y="296" on="0"/>
        <pt x="45" y="349" on="0"/>
        <pt x="52" y="371" on="1"/>
        <pt x="84" y="367" on="0"/>
        <pt x="116" y="365" on="1"/>
        <pt x="114" y="535" on="0"/>
        <pt x="99" y="627" on="1"/>
        <pt x="185" y="655" on="0"/>
      </contour>
      <contour>
        <pt x="298" y="56" on="1"/>
        <pt x="475" y="56" on="0"/>
        <pt x="475" y="325" on="1"/>
        <pt x="475" y="402" on="0"/>
        <pt x="443" y="518" on="0"/>
        <pt x="361" y="596" on="0"/>
        <pt x="246" y="596" on="0"/>
        <pt x="198" y="577" on="1"/>
        <pt x="191" y="494" on="0"/>
        <pt x="191" y="363" on="1"/>
        <pt x="266" y="363" on="0"/>
        <pt x="341" y="376" on="1"/>
        <pt x="344" y="362" on="0"/>
        <pt x="344" y="310" on="0"/>
        <pt x="337" y="288" on="1"/>
        <pt x="275" y="295" on="0"/>
        <pt x="208" y="295" on="1"/>
        <pt x="191" y="295" on="1"/>
        <pt x="191" y="170" on="0"/>
        <pt x="199" y="77" on="1"/>
        <pt x="246" y="56" on="0"/>
      </contour>
    </TTGlyph>
    <TTGlyph name="Euro" xMin="20" yMin="-15" xMax="520" yMax="655">
      <contour>
        <pt x="328" y="655" on="1"/>
        <pt x="425" y="655" on="0"/>
        <pt x="516" y="566" on="0"/>
        <pt x="516" y="508" on="1"/>
        <pt x="516" y="495" on="0"/>
        <pt x="513" y="483" on="1"/>
        <pt x="496" y="474" on="0"/>
        <pt x="438" y="474" on="0"/>
        <pt x="423" y="478" on="1"/>
        <pt x="424" y="486" on="0"/>
        <pt x="424" y="497" on="1"/>
        <pt x="424" y="542" on="0"/>
        <pt x="376" y="596" on="0"/>
        <pt x="328" y="596" on="1"/>
        <pt x="185" y="596" on="0"/>
        <pt x="165" y="395" on="1"/>
        <pt x="277" y="397" on="0"/>
        <pt x="356" y="403" on="1"/>
        <pt x="363" y="389" on="0"/>
        <pt x="363" y="348" on="0"/>
        <pt x="359" y="333" on="1"/>
        <pt x="262" y="337" on="0"/>
        <pt x="162" y="339" on="1"/>
        <pt x="162" y="326" on="1"/>
        <pt x="162" y="290" on="0"/>
        <pt x="165" y="256" on="1"/>
        <pt x="228" y="255" on="0"/>
        <pt x="355" y="255" on="1"/>
        <pt x="363" y="239" on="0"/>
        <pt x="363" y="211" on="0"/>
        <pt x="360" y="199" on="1"/>
        <pt x="234" y="199" on="0"/>
        <pt x="174" y="198" on="1"/>
        <pt x="206" y="59" on="0"/>
        <pt x="328" y="59" on="1"/>
        <pt x="367" y="59" on="0"/>
        <pt x="451" y="97" on="0"/>
        <pt x="480" y="130" on="1"/>
        <pt x="511" y="105" on="0"/>
        <pt x="520" y="51" on="1"/>
        <pt x="431" y="-15" on="0"/>
        <pt x="215" y="-15" on="0"/>
        <pt x="104" y="95" on="0"/>
        <pt x="88" y="195" on="1"/>
        <pt x="27" y="191" on="1"/>
        <pt x="20" y="205" on="0"/>
        <pt x="20" y="246" on="0"/>
        <pt x="24" y="261" on="1"/>
        <pt x="81" y="258" on="0"/>
        <pt x="82" y="258" on="1"/>
        <pt x="80" y="280" on="0"/>
        <pt x="80" y="327" on="1"/>
        <pt x="80" y="339" on="1"/>
        <pt x="28" y="339" on="1"/>
        <pt x="20" y="355" on="0"/>
        <pt x="20" y="383" on="0"/>
        <pt x="23" y="395" on="1"/>
        <pt x="83" y="395" on="1"/>
        <pt x="107" y="655" on="0"/>
      </contour>
    </TTGlyph>
    <TTGlyph name="F" xMin="94" yMin="-8" xMax="448" yMax="653">
      <contour>
        <pt x="411" y="283" on="1"/>
        <pt x="368" y="290" on="0"/>
        <pt x="206" y="290" on="0"/>
        <pt x="188" y="289" on="1"/>
        <pt x="190" y="47" on="0"/>
        <pt x="205" y="2" on="1"/>
        <pt x="172" y="-8" on="0"/>
        <pt x="133" y="-8" on="0"/>
        <pt x="99" y="-6" on="1"/>
        <pt x="113" y="111" on="0"/>
        <pt x="113" y="528" on="0"/>
        <pt x="94" y="646" on="1"/>
        <pt x="161" y="639" on="0"/>
        <pt x="305" y="639" on="0"/>
        <pt x="426" y="648" on="0"/>
        <pt x="444" y="653" on="1"/>
        <pt x="448" y="635" on="0"/>
        <pt x="448" y="591" on="0"/>
        <pt x="440" y="565" on="1"/>
        <pt x="387" y="574" on="0"/>
        <pt x="229" y="574" on="0"/>
        <pt x="194" y="571" on="1"/>
        <pt x="188" y="511" on="0"/>
        <pt x="188" y="351" on="1"/>
        <pt x="232" y="351" on="1"/>
        <pt x="367" y="351" on="0"/>
        <pt x="407" y="361" on="1"/>
        <pt x="412" y="333" on="0"/>
        <pt x="412" y="295" on="0"/>
      </contour>
    </TTGlyph>
    <TTGlyph name="G" xMin="55" yMin="-15" xMax="515" yMax="655">
      <contour>
        <pt x="303" y="-15" on="1"/>
        <pt x="149" y="-15" on="0"/>
        <pt x="98" y="90" on="1"/>
        <pt x="73" y="142" on="0"/>
        <pt x="55" y="251" on="0"/>
        <pt x="55" y="383" on="0"/>
        <pt x="70" y="477" on="0"/>
        <pt x="106" y="562" on="0"/>
        <pt x="134" y="592" on="1"/>
        <pt x="194" y="655" on="0"/>
        <pt x="403" y="655" on="0"/>
        <pt x="501" y="556" on="0"/>
        <pt x="501" y="478" on="1"/>
        <pt x="501" y="466" on="0"/>
        <pt x="498" y="453" on="1"/>
        <pt x="472" y="444" on="0"/>
        <pt x="420" y="444" on="0"/>
        <pt x="408" y="446" on="1"/>
        <pt x="409" y="454" on="0"/>
        <pt x="409" y="467" on="1"/>
        <pt x="409" y="526" on="0"/>
        <pt x="353" y="596" on="0"/>
        <pt x="303" y="596" on="1"/>
        <pt x="217" y="596" on="0"/>
        <pt x="137" y="450" on="0"/>
        <pt x="137" y="326" on="1"/>
        <pt x="137" y="133" on="0"/>
        <pt x="218" y="81" on="1"/>
        <pt x="253" y="59" on="0"/>
        <pt x="303" y="59" on="1"/>
        <pt x="385" y="59" on="0"/>
        <pt x="440" y="105" on="1"/>
        <pt x="439" y="185" on="0"/>
        <pt x="433" y="242" on="1"/>
        <pt x="317" y="240" on="0"/>
        <pt x="272" y="231" on="1"/>
        <pt x="267" y="263" on="0"/>
        <pt x="267" y="304" on="0"/>
        <pt x="268" y="317" on="1"/>
        <pt x="315" y="309" on="0"/>
        <pt x="474" y="309" on="0"/>
        <pt x="515" y="312" on="1"/>
        <pt x="505" y="212" on="0"/>
        <pt x="505" y="51" on="1"/>
        <pt x="416" y="-15" on="0"/>
      </contour>
    </TTGlyph>
    <TTGlyph name="H" xMin="93" yMin="-8" xMax="552" yMax="649">
      <contour>
        <pt x="460" y="281" on="1"/>
        <pt x="396" y="288" on="0"/>
        <pt x="234" y="288" on="0"/>
        <pt x="185" y="281" on="1"/>
        <pt x="187" y="47" on="0"/>
        <pt x="202" y="2" on="1"/>
        <pt x="169" y="-8" on="0"/>
        <pt x="130" y="-8" on="0"/>
        <pt x="96" y="-6" on="1"/>
        <pt x="110" y="111" on="0"/>
        <pt x="110" y="543" on="0"/>
        <pt x="93" y="639" on="1"/>
        <pt x="119" y="649" on="0"/>
        <pt x="171" y="649" on="0"/>
        <pt x="199" y="647" on="1"/>
        <pt x="185" y="535" on="0"/>
        <pt x="185" y="359" on="1"/>
        <pt x="239" y="353" on="0"/>
        <pt x="391" y="353" on="0"/>
        <pt x="460" y="361" on="1"/>
        <pt x="458" y="552" on="0"/>
        <pt x="443" y="639" on="1"/>
        <pt x="469" y="649" on="0"/>
        <pt x="521" y="649" on="0"/>
        <pt x="549" y="647" on="1"/>
        <pt x="535" y="536" on="0"/>
        <pt x="535" y="56" on="0"/>
        <pt x="552" y="2" on="1"/>
        <pt x="519" y="-8" on="0"/>
        <pt x="480" y="-8" on="0"/>
        <pt x="446" y="-6" on="1"/>
        <pt x="458" y="95" on="0"/>
      </contour>
    </TTGlyph>
    <TTGlyph name="I" xMin="103" yMin="-8" xMax="212" yMax="649">
      <contour>
        <pt x="106" y="-6" on="1"/>
        <pt x="120" y="111" on="0"/>
        <pt x="120" y="543" on="0"/>
        <pt x="103" y="639" on="1"/>
        <pt x="129" y="649" on="0"/>
        <pt x="181" y="649" on="0"/>
        <pt x="209" y="647" on="1"/>
        <pt x="195" y="536" on="0"/>
        <pt x="195" y="56" on="0"/>
        <pt x="212" y="2" on="1"/>
        <pt x="179" y="-8" on="0"/>
        <pt x="123" y="-8" on="0"/>
      </contour>
    </TTGlyph>
    <TTGlyph name="Iacute" xMin="83" yMin="-8" xMax="281" yMax="838">
      <contour>
        <pt x="106" y="-6" on="1"/>
        <pt x="120" y="111" on="0"/>
        <pt x="120" y="543" on="0"/>
        <pt x="103" y="639" on="1"/>
        <pt x="129" y="649" on="0"/>
        <pt x="181" y="649" on="0"/>
        <pt x="209" y="647" on="1"/>
        <pt x="195" y="536" on="0"/>
        <pt x="195" y="56" on="0"/>
        <pt x="212" y="2" on="1"/>
        <pt x="179" y="-8" on="0"/>
        <pt x="123" y="-8" on="0"/>
      </contour>
      <contour>
        <pt x="281" y="768" on="1"/>
        <pt x="281" y="756" on="0"/>
        <pt x="280" y="750" on="1"/>
        <pt x="157" y="713" on="0"/>
        <pt x="98" y="704" on="1"/>
        <pt x="85" y="721" on="0"/>
        <pt x="83" y="743" on="1"/>
        <pt x="104" y="754" on="0"/>
        <pt x="163" y="784" on="0"/>
        <pt x="178" y="792" on="1"/>
        <pt x="222" y="816" on="0"/>
        <pt x="251" y="838" on="1"/>
        <pt x="281" y="805" on="0"/>
      </contour>
    </TTGlyph>
    <TTGlyph name="Icircumflex" xMin="8" yMin="-8" xMax="301" yMax="845">
      <contour>
        <pt x="106" y="-6" on="1"/>
        <pt x="120" y="111" on="0"/>
        <pt x="120" y="543" on="0"/>
        <pt x="103" y="639" on="1"/>
        <pt x="129" y="649" on="0"/>
        <pt x="181" y="649" on="0"/>
        <pt x="209" y="647" on="1"/>
        <pt x="195" y="536" on="0"/>
        <pt x="195" y="56" on="0"/>
        <pt x="212" y="2" on="1"/>
        <pt x="179" y="-8" on="0"/>
        <pt x="123" y="-8" on="0"/>
      </contour>
      <contour>
        <pt x="285" y="704" on="1"/>
        <pt x="217" y="725" on="0"/>
        <pt x="158" y="756" on="1"/>
        <pt x="71" y="716" on="0"/>
        <pt x="23" y="704" on="1"/>
        <pt x="11" y="722" on="0"/>
        <pt x="8" y="743" on="1"/>
        <pt x="29" y="757" on="0"/>
        <pt x="65" y="775" on="0"/>
        <pt x="94" y="793" on="0"/>
        <pt x="108" y="803" on="0"/>
        <pt x="120" y="811" on="1"/>
        <pt x="134" y="821" on="0"/>
        <pt x="158" y="845" on="1"/>
        <pt x="202" y="803" on="0"/>
        <pt x="301" y="742" on="1"/>
        <pt x="298" y="721" on="0"/>
      </contour>
    </TTGlyph>
    <TTGlyph name="Idieresis" xMin="28" yMin="-8" xMax="281" yMax="806">
      <contour>
        <pt x="106" y="-6" on="1"/>
        <pt x="120" y="111" on="0"/>
        <pt x="120" y="543" on="0"/>
        <pt x="103" y="639" on="1"/>
        <pt x="129" y="649" on="0"/>
        <pt x="181" y="649" on="0"/>
        <pt x="209" y="647" on="1"/>
        <pt x="195" y="536" on="0"/>
        <pt x="195" y="56" on="0"/>
        <pt x="212" y="2" on="1"/>
        <pt x="179" y="-8" on="0"/>
        <pt x="123" y="-8" on="0"/>
      </contour>
      <contour>
        <pt x="131" y="759" on="1"/>
        <pt x="131" y="704" on="0"/>
        <pt x="73" y="704" on="1"/>
        <pt x="28" y="704" on="0"/>
        <pt x="28" y="750" on="1"/>
        <pt x="28" y="806" on="0"/>
        <pt x="86" y="806" on="1"/>
        <pt x="131" y="806" on="0"/>
      </contour>
      <contour>
        <pt x="281" y="759" on="1"/>
        <pt x="281" y="704" on="0"/>
        <pt x="223" y="704" on="1"/>
        <pt x="178" y="704" on="0"/>
        <pt x="178" y="750" on="1"/>
        <pt x="178" y="806" on="0"/>
        <pt x="236" y="806" on="1"/>
        <pt x="281" y="806" on="0"/>
      </contour>
    </TTGlyph>
    <TTGlyph name="Igrave" xMin="57" yMin="-8" xMax="253" yMax="845">
      <contour>
        <pt x="106" y="-6" on="1"/>
        <pt x="120" y="111" on="0"/>
        <pt x="120" y="543" on="0"/>
        <pt x="103" y="639" on="1"/>
        <pt x="129" y="649" on="0"/>
        <pt x="181" y="649" on="0"/>
        <pt x="209" y="647" on="1"/>
        <pt x="195" y="536" on="0"/>
        <pt x="195" y="56" on="0"/>
        <pt x="212" y="2" on="1"/>
        <pt x="179" y="-8" on="0"/>
        <pt x="123" y="-8" on="0"/>
      </contour>
      <contour>
        <pt x="237" y="704" on="1"/>
        <pt x="174" y="717" on="0"/>
        <pt x="57" y="759" on="1"/>
        <pt x="57" y="792" on="0"/>
        <pt x="70" y="823" on="0"/>
        <pt x="90" y="845" on="1"/>
        <pt x="128" y="813" on="0"/>
        <pt x="183" y="782" on="0"/>
        <pt x="196" y="774" on="0"/>
        <pt x="246" y="746" on="0"/>
        <pt x="253" y="742" on="1"/>
        <pt x="250" y="721" on="0"/>
      </contour>
    </TTGlyph>
    <TTGlyph name="J" xMin="-116" yMin="-180" xMax="197" yMax="649">
      <contour>
        <pt x="22" y="-106" on="1"/>
        <pt x="64" y="-106" on="0"/>
        <pt x="81" y="-76" on="1"/>
        <pt x="101" y="-41" on="0"/>
        <pt x="104" y="-3" on="1"/>
        <pt x="108" y="46" on="0"/>
        <pt x="108" y="121" on="1"/>
        <pt x="108" y="543" on="0"/>
        <pt x="91" y="639" on="1"/>
        <pt x="117" y="649" on="0"/>
        <pt x="169" y="649" on="0"/>
        <pt x="197" y="647" on="1"/>
        <pt x="183" y="536" on="0"/>
        <pt x="183" y="102" on="1"/>
        <pt x="183" y="-13" on="0"/>
        <pt x="158" y="-112" on="0"/>
        <pt x="140" y="-134" on="1"/>
        <pt x="103" y="-180" on="0"/>
        <pt x="24" y="-180" on="1"/>
        <pt x="-10" y="-180" on="0"/>
        <pt x="-88" y="-155" on="0"/>
        <pt x="-116" y="-134" on="1"/>
        <pt x="-112" y="-110" on="0"/>
        <pt x="-92" y="-70" on="0"/>
        <pt x="-84" y="-62" on="1"/>
        <pt x="-76" y="-55" on="1"/>
        <pt x="-38" y="-106" on="0"/>
      </contour>
    </TTGlyph>
    <TTGlyph name="K" xMin="93" yMin="-12" xMax="530" yMax="649">
      <contour>
        <pt x="417" y="648" on="1"/>
        <pt x="424" y="649" on="0"/>
        <pt x="470" y="649" on="0"/>
        <pt x="503" y="632" on="1"/>
        <pt x="371" y="464" on="0"/>
        <pt x="290" y="339" on="1"/>
        <pt x="386" y="185" on="0"/>
        <pt x="530" y="5" on="1"/>
        <pt x="496" y="-12" on="0"/>
        <pt x="429" y="-12" on="0"/>
        <pt x="418" y="-11" on="1"/>
        <pt x="376" y="64" on="0"/>
        <pt x="227" y="291" on="0"/>
        <pt x="209" y="319" on="1"/>
        <pt x="228" y="349" on="0"/>
        <pt x="276" y="418" on="1"/>
        <pt x="379" y="566" on="0"/>
      </contour>
      <contour>
        <pt x="96" y="-6" on="1"/>
        <pt x="110" y="111" on="0"/>
        <pt x="110" y="543" on="0"/>
        <pt x="93" y="639" on="1"/>
        <pt x="119" y="649" on="0"/>
        <pt x="169" y="649" on="0"/>
        <pt x="191" y="647" on="0"/>
        <pt x="199" y="647" on="1"/>
        <pt x="185" y="536" on="0"/>
        <pt x="185" y="56" on="0"/>
        <pt x="202" y="2" on="1"/>
        <pt x="169" y="-8" on="0"/>
        <pt x="113" y="-8" on="0"/>
      </contour>
    </TTGlyph>
    <TTGlyph name="L" xMin="94" yMin="-11" xMax="431" yMax="649">
      <contour>
        <pt x="97" y="-4" on="1"/>
        <pt x="111" y="134" on="0"/>
        <pt x="111" y="543" on="0"/>
        <pt x="94" y="639" on="1"/>
        <pt x="120" y="649" on="0"/>
        <pt x="172" y="649" on="0"/>
        <pt x="200" y="647" on="1"/>
        <pt x="186" y="536" on="0"/>
        <pt x="186" y="161" on="0"/>
        <pt x="193" y="76" on="1"/>
        <pt x="228" y="73" on="0"/>
        <pt x="370" y="73" on="0"/>
        <pt x="423" y="82" on="1"/>
        <pt x="431" y="56" on="0"/>
        <pt x="431" y="7" on="0"/>
        <pt x="427" y="-11" on="1"/>
        <pt x="408" y="-6" on="0"/>
        <pt x="286" y="3" on="0"/>
        <pt x="164" y="3" on="0"/>
      </contour>
    </TTGlyph>
    <TTGlyph name="Lslash" xMin="27" yMin="-11" xMax="431" yMax="649">
      <contour>
        <pt x="33" y="222" on="1"/>
        <pt x="27" y="234" on="0"/>
        <pt x="27" y="268" on="0"/>
        <pt x="33" y="294" on="1"/>
        <pt x="111" y="320" on="1"/>
        <pt x="111" y="540" on="0"/>
        <pt x="94" y="639" on="1"/>
        <pt x="120" y="649" on="0"/>
        <pt x="172" y="649" on="0"/>
        <pt x="200" y="647" on="1"/>
        <pt x="186" y="539" on="0"/>
        <pt x="186" y="346" on="1"/>
        <pt x="283" y="381" on="0"/>
        <pt x="315" y="399" on="1"/>
        <pt x="321" y="387" on="0"/>
        <pt x="321" y="352" on="0"/>
        <pt x="315" y="327" on="1"/>
        <pt x="186" y="282" on="1"/>
        <pt x="186" y="160" on="0"/>
        <pt x="193" y="76" on="1"/>
        <pt x="228" y="73" on="0"/>
        <pt x="370" y="73" on="0"/>
        <pt x="423" y="82" on="1"/>
        <pt x="431" y="56" on="0"/>
        <pt x="431" y="7" on="0"/>
        <pt x="427" y="-11" on="1"/>
        <pt x="408" y="-6" on="0"/>
        <pt x="286" y="3" on="0"/>
        <pt x="164" y="3" on="0"/>
        <pt x="97" y="-4" on="1"/>
        <pt x="107" y="105" on="0"/>
        <pt x="111" y="255" on="1"/>
        <pt x="51" y="232" on="0"/>
      </contour>
    </TTGlyph>
    <TTGlyph name="M" xMin="93" yMin="-8" xMax="672" yMax="649">
      <contour>
        <pt x="96" y="-6" on="1"/>
        <pt x="110" y="111" on="0"/>
        <pt x="110" y="543" on="0"/>
        <pt x="93" y="639" on="1"/>
        <pt x="119" y="649" on="0"/>
        <pt x="156" y="649" on="0"/>
        <pt x="184" y="647" on="1"/>
        <pt x="201" y="555" on="0"/>
        <pt x="386" y="210" on="1"/>
        <pt x="537" y="505" on="0"/>
        <pt x="563" y="639" on="1"/>
        <pt x="589" y="649" on="0"/>
        <pt x="641" y="649" on="0"/>
        <pt x="669" y="647" on="1"/>
        <pt x="655" y="536" on="0"/>
        <pt x="655" y="56" on="0"/>
        <pt x="672" y="2" on="1"/>
        <pt x="639" y="-8" on="0"/>
        <pt x="600" y="-8" on="0"/>
        <pt x="566" y="-6" on="1"/>
        <pt x="580" y="111" on="0"/>
        <pt x="580" y="421" on="0"/>
        <pt x="578" y="466" on="1"/>
        <pt x="447" y="201" on="0"/>
        <pt x="413" y="117" on="1"/>
        <pt x="386" y="109" on="0"/>
        <pt x="354" y="109" on="0"/>
        <pt x="340" y="110" on="1"/>
        <pt x="311" y="184" on="0"/>
        <pt x="242" y="312" on="0"/>
        <pt x="181" y="422" on="0"/>
        <pt x="170" y="443" on="1"/>
        <pt x="170" y="338" on="1"/>
        <pt x="170" y="56" on="0"/>
        <pt x="187" y="2" on="1"/>
        <pt x="157" y="-8" on="0"/>
        <pt x="130" y="-8" on="0"/>
      </contour>
    </TTGlyph>
    <TTGlyph name="N" xMin="94" yMin="-8" xMax="563" yMax="649">
      <contour>
        <pt x="97" y="-6" on="1"/>
        <pt x="111" y="111" on="0"/>
        <pt x="111" y="543" on="0"/>
        <pt x="94" y="639" on="1"/>
        <pt x="120" y="649" on="0"/>
        <pt x="157" y="649" on="0"/>
        <pt x="185" y="647" on="1"/>
        <pt x="204" y="575" on="0"/>
        <pt x="385" y="282" on="0"/>
        <pt x="483" y="145" on="1"/>
        <pt x="486" y="229" on="0"/>
        <pt x="486" y="307" on="1"/>
        <pt x="486" y="543" on="0"/>
        <pt x="469" y="639" on="1"/>
        <pt x="495" y="649" on="0"/>
        <pt x="532" y="649" on="0"/>
        <pt x="560" y="647" on="1"/>
        <pt x="546" y="536" on="0"/>
        <pt x="546" y="56" on="0"/>
        <pt x="563" y="2" on="1"/>
        <pt x="533" y="-8" on="0"/>
        <pt x="506" y="-8" on="0"/>
        <pt x="472" y="-6" on="1"/>
        <pt x="465" y="25" on="0"/>
        <pt x="361" y="188" on="0"/>
        <pt x="206" y="414" on="0"/>
        <pt x="172" y="470" on="1"/>
        <pt x="171" y="427" on="0"/>
        <pt x="171" y="338" on="1"/>
        <pt x="171" y="56" on="0"/>
        <pt x="188" y="2" on="1"/>
        <pt x="158" y="-8" on="0"/>
        <pt x="131" y="-8" on="0"/>
      </contour>
    </TTGlyph>
    <TTGlyph name="Ntilde" xMin="94" yMin="-8" xMax="563" yMax="803">
      <contour>
        <pt x="97" y="-6" on="1"/>
        <pt x="111" y="111" on="0"/>
        <pt x="111" y="543" on="0"/>
        <pt x="94" y="639" on="1"/>
        <pt x="120" y="649" on="0"/>
        <pt x="157" y="649" on="0"/>
        <pt x="185" y="647" on="1"/>
        <pt x="204" y="575" on="0"/>
        <pt x="385" y="282" on="0"/>
        <pt x="483" y="145" on="1"/>
        <pt x="486" y="229" on="0"/>
        <pt x="486" y="307" on="1"/>
        <pt x="486" y="543" on="0"/>
        <pt x="469" y="639" on="1"/>
        <pt x="495" y="649" on="0"/>
        <pt x="532" y="649" on="0"/>
        <pt x="560" y="647" on="1"/>
        <pt x="546" y="536" on="0"/>
        <pt x="546" y="56" on="0"/>
        <pt x="563" y="2" on="1"/>
        <pt x="533" y="-8" on="0"/>
        <pt x="506" y="-8" on="0"/>
        <pt x="472" y="-6" on="1"/>
        <pt x="465" y="25" on="0"/>
        <pt x="361" y="188" on="0"/>
        <pt x="206" y="414" on="0"/>
        <pt x="172" y="470" on="1"/>
        <pt x="171" y="427" on="0"/>
        <pt x="171" y="338" on="1"/>
        <pt x="171" y="56" on="0"/>
        <pt x="188" y="2" on="1"/>
        <pt x="158" y="-8" on="0"/>
        <pt x="131" y="-8" on="0"/>
      </contour>
      <contour>
        <pt x="454" y="744" on="0"/>
        <pt x="394" y="704" on="0"/>
        <pt x="344" y="704" on="0"/>
        <pt x="281" y="737" on="0"/>
        <pt x="263" y="737" on="1"/>
        <pt x="227" y="737" on="0"/>
        <pt x="209" y="705" on="1"/>
        <pt x="182" y="716" on="0"/>
        <pt x="177" y="737" on="1"/>
        <pt x="192" y="763" on="0"/>
        <pt x="252" y="803" on="0"/>
        <pt x="305" y="803" on="0"/>
        <pt x="368" y="770" on="0"/>
        <pt x="383" y="770" on="1"/>
        <pt x="419" y="770" on="0"/>
        <pt x="437" y="802" on="1"/>
        <pt x="464" y="791" on="0"/>
        <pt x="469" y="770" on="1"/>
      </contour>
    </TTGlyph>
    <TTGlyph name="O" xMin="55" yMin="-15" xMax="546" yMax="655">
      <contour>
        <pt x="55" y="327" on="1"/>
        <pt x="55" y="655" on="0"/>
        <pt x="546" y="655" on="0"/>
        <pt x="546" y="327" on="1"/>
        <pt x="546" y="267" on="0"/>
        <pt x="537" y="177" on="0"/>
        <pt x="506" y="83" on="0"/>
        <pt x="454" y="23" on="0"/>
        <pt x="363" y="-15" on="0"/>
        <pt x="238" y="-15" on="0"/>
        <pt x="147" y="23" on="0"/>
        <pt x="95" y="83" on="0"/>
        <pt x="64" y="177" on="0"/>
        <pt x="55" y="267" on="0"/>
      </contour>
      <contour>
        <pt x="216" y="81" on="1"/>
        <pt x="250" y="59" on="0"/>
        <pt x="351" y="59" on="0"/>
        <pt x="420" y="103" on="0"/>
        <pt x="437" y="144" on="1"/>
        <pt x="467" y="215" on="0"/>
        <pt x="467" y="326" on="1"/>
        <pt x="467" y="596" on="0"/>
        <pt x="134" y="596" on="0"/>
        <pt x="134" y="326" on="1"/>
        <pt x="134" y="133" on="0"/>
      </contour>
    </TTGlyph>
    <TTGlyph name="OE" xMin="55" yMin="-15" xMax="750" yMax="655">
      <contour>
        <pt x="482" y="76" on="1"/>
        <pt x="517" y="73" on="0"/>
        <pt x="689" y="73" on="0"/>
        <pt x="742" y="82" on="1"/>
        <pt x="750" y="56" on="0"/>
        <pt x="750" y="7" on="0"/>
        <pt x="746" y="-11" on="1"/>
        <pt x="727" y="-6" on="0"/>
        <pt x="604" y="3" on="0"/>
        <pt x="450" y="3" on="0"/>
        <pt x="397" y="0" on="1"/>
        <pt x="356" y="-15" on="0"/>
        <pt x="238" y="-15" on="0"/>
        <pt x="147" y="23" on="0"/>
        <pt x="95" y="83" on="0"/>
        <pt x="64" y="177" on="0"/>
        <pt x="55" y="267" on="0"/>
        <pt x="55" y="327" on="1"/>
        <pt x="55" y="655" on="0"/>
        <pt x="300" y="655" on="1"/>
        <pt x="341" y="655" on="0"/>
        <pt x="379" y="644" on="1"/>
        <pt x="436" y="639" on="0"/>
        <pt x="519" y="639" on="1"/>
        <pt x="691" y="639" on="0"/>
        <pt x="741" y="653" on="1"/>
        <pt x="745" y="635" on="0"/>
        <pt x="745" y="591" on="0"/>
        <pt x="737" y="565" on="1"/>
        <pt x="684" y="574" on="0"/>
        <pt x="516" y="574" on="0"/>
        <pt x="481" y="571" on="1"/>
        <pt x="475" y="514" on="0"/>
        <pt x="475" y="365" on="1"/>
        <pt x="496" y="364" on="0"/>
        <pt x="656" y="364" on="0"/>
        <pt x="706" y="375" on="1"/>
        <pt x="711" y="343" on="0"/>
        <pt x="711" y="302" on="0"/>
        <pt x="710" y="289" on="1"/>
        <pt x="663" y="297" on="0"/>
        <pt x="498" y="297" on="0"/>
        <pt x="475" y="295" on="1"/>
        <pt x="475" y="164" on="0"/>
      </contour>
      <contour>
        <pt x="216" y="81" on="1"/>
        <pt x="250" y="59" on="0"/>
        <pt x="358" y="59" on="0"/>
        <pt x="396" y="89" on="1"/>
        <pt x="400" y="205" on="0"/>
        <pt x="400" y="423" on="0"/>
        <pt x="387" y="568" on="1"/>
        <pt x="350" y="596" on="0"/>
        <pt x="300" y="596" on="1"/>
        <pt x="214" y="596" on="0"/>
        <pt x="134" y="450" on="0"/>
        <pt x="134" y="326" on="1"/>
        <pt x="134" y="133" on="0"/>
      </contour>
    </TTGlyph>
    <TTGlyph name="Oacute" xMin="55" yMin="-15" xMax="546" yMax="838">
      <contour>
        <pt x="55" y="327" on="1"/>
        <pt x="55" y="655" on="0"/>
        <pt x="546" y="655" on="0"/>
        <pt x="546" y="327" on="1"/>
        <pt x="546" y="267" on="0"/>
        <pt x="537" y="177" on="0"/>
        <pt x="506" y="83" on="0"/>
        <pt x="454" y="23" on="0"/>
        <pt x="363" y="-15" on="0"/>
        <pt x="238" y="-15" on="0"/>
        <pt x="147" y="23" on="0"/>
        <pt x="95" y="83" on="0"/>
        <pt x="64" y="177" on="0"/>
        <pt x="55" y="267" on="0"/>
      </contour>
      <contour>
        <pt x="216" y="81" on="1"/>
        <pt x="250" y="59" on="0"/>
        <pt x="351" y="59" on="0"/>
        <pt x="420" y="103" on="0"/>
        <pt x="437" y="144" on="1"/>
        <pt x="467" y="215" on="0"/>
        <pt x="467" y="326" on="1"/>
        <pt x="467" y="596" on="0"/>
        <pt x="134" y="596" on="0"/>
        <pt x="134" y="326" on="1"/>
        <pt x="134" y="133" on="0"/>
      </contour>
      <contour>
        <pt x="427" y="768" on="1"/>
        <pt x="427" y="756" on="0"/>
        <pt x="426" y="750" on="1"/>
        <pt x="303" y="713" on="0"/>
        <pt x="244" y="704" on="1"/>
        <pt x="231" y="721" on="0"/>
        <pt x="229" y="743" on="1"/>
        <pt x="250" y="754" on="0"/>
        <pt x="309" y="784" on="0"/>
        <pt x="324" y="792" on="1"/>
        <pt x="368" y="816" on="0"/>
        <pt x="397" y="838" on="1"/>
        <pt x="427" y="805" on="0"/>
      </contour>
    </TTGlyph>
    <TTGlyph name="Ocircumflex" xMin="55" yMin="-15" xMax="546" yMax="845">
      <contour>
        <pt x="55" y="327" on="1"/>
        <pt x="55" y="655" on="0"/>
        <pt x="546" y="655" on="0"/>
        <pt x="546" y="327" on="1"/>
        <pt x="546" y="267" on="0"/>
        <pt x="537" y="177" on="0"/>
        <pt x="506" y="83" on="0"/>
        <pt x="454" y="23" on="0"/>
        <pt x="363" y="-15" on="0"/>
        <pt x="238" y="-15" on="0"/>
        <pt x="147" y="23" on="0"/>
        <pt x="95" y="83" on="0"/>
        <pt x="64" y="177" on="0"/>
        <pt x="55" y="267" on="0"/>
      </contour>
      <contour>
        <pt x="216" y="81" on="1"/>
        <pt x="250" y="59" on="0"/>
        <pt x="351" y="59" on="0"/>
        <pt x="420" y="103" on="0"/>
        <pt x="437" y="144" on="1"/>
        <pt x="467" y="215" on="0"/>
        <pt x="467" y="326" on="1"/>
        <pt x="467" y="596" on="0"/>
        <pt x="134" y="596" on="0"/>
        <pt x="134" y="326" on="1"/>
        <pt x="134" y="133" on="0"/>
      </contour>
      <contour>
        <pt x="427" y="704" on="1"/>
        <pt x="359" y="725" on="0"/>
        <pt x="300" y="756" on="1"/>
        <pt x="213" y="716" on="0"/>
        <pt x="165" y="704" on="1"/>
        <pt x="153" y="722" on="0"/>
        <pt x="150" y="743" on="1"/>
        <pt x="171" y="757" on="0"/>
        <pt x="207" y="775" on="0"/>
        <pt x="236" y="793" on="0"/>
        <pt x="250" y="803" on="0"/>
        <pt x="262" y="811" on="1"/>
        <pt x="276" y="821" on="0"/>
        <pt x="300" y="845" on="1"/>
        <pt x="344" y="803" on="0"/>
        <pt x="443" y="742" on="1"/>
        <pt x="440" y="721" on="0"/>
      </contour>
    </TTGlyph>
    <TTGlyph name="Odieresis" xMin="55" yMin="-15" xMax="546" yMax="806">
      <contour>
        <pt x="55" y="327" on="1"/>
        <pt x="55" y="655" on="0"/>
        <pt x="546" y="655" on="0"/>
        <pt x="546" y="327" on="1"/>
        <pt x="546" y="267" on="0"/>
        <pt x="537" y="177" on="0"/>
        <pt x="506" y="83" on="0"/>
        <pt x="454" y="23" on="0"/>
        <pt x="363" y="-15" on="0"/>
        <pt x="238" y="-15" on="0"/>
        <pt x="147" y="23" on="0"/>
        <pt x="95" y="83" on="0"/>
        <pt x="64" y="177" on="0"/>
        <pt x="55" y="267" on="0"/>
      </contour>
      <contour>
        <pt x="216" y="81" on="1"/>
        <pt x="250" y="59" on="0"/>
        <pt x="351" y="59" on="0"/>
        <pt x="420" y="103" on="0"/>
        <pt x="437" y="144" on="1"/>
        <pt x="467" y="215" on="0"/>
        <pt x="467" y="326" on="1"/>
        <pt x="467" y="596" on="0"/>
        <pt x="134" y="596" on="0"/>
        <pt x="134" y="326" on="1"/>
        <pt x="134" y="133" on="0"/>
      </contour>
      <contour>
        <pt x="279" y="759" on="1"/>
        <pt x="279" y="704" on="0"/>
        <pt x="221" y="704" on="1"/>
        <pt x="176" y="704" on="0"/>
        <pt x="176" y="750" on="1"/>
        <pt x="176" y="806" on="0"/>
        <pt x="234" y="806" on="1"/>
        <pt x="279" y="806" on="0"/>
      </contour>
      <contour>
        <pt x="429" y="759" on="1"/>
        <pt x="429" y="704" on="0"/>
        <pt x="371" y="704" on="1"/>
        <pt x="326" y="704" on="0"/>
        <pt x="326" y="750" on="1"/>
        <pt x="326" y="806" on="0"/>
        <pt x="384" y="806" on="1"/>
        <pt x="429" y="806" on="0"/>
      </contour>
    </TTGlyph>
    <TTGlyph name="Ograve" xMin="103" yMin="-15" xMax="594" yMax="845">
      <contour>
        <pt x="103" y="327" on="1"/>
        <pt x="103" y="655" on="0"/>
        <pt x="594" y="655" on="0"/>
        <pt x="594" y="327" on="1"/>
        <pt x="594" y="267" on="0"/>
        <pt x="585" y="177" on="0"/>
        <pt x="554" y="83" on="0"/>
        <pt x="502" y="23" on="0"/>
        <pt x="411" y="-15" on="0"/>
        <pt x="286" y="-15" on="0"/>
        <pt x="195" y="23" on="0"/>
        <pt x="143" y="83" on="0"/>
        <pt x="112" y="177" on="0"/>
        <pt x="103" y="267" on="0"/>
      </contour>
      <contour>
        <pt x="264" y="81" on="1"/>
        <pt x="298" y="59" on="0"/>
        <pt x="399" y="59" on="0"/>
        <pt x="468" y="103" on="0"/>
        <pt x="485" y="144" on="1"/>
        <pt x="515" y="215" on="0"/>
        <pt x="515" y="326" on="1"/>
        <pt x="515" y="596" on="0"/>
        <pt x="182" y="596" on="0"/>
        <pt x="182" y="326" on="1"/>
        <pt x="182" y="133" on="0"/>
      </contour>
      <contour>
        <pt x="430" y="704" on="1"/>
        <pt x="367" y="717" on="0"/>
        <pt x="250" y="759" on="1"/>
        <pt x="250" y="792" on="0"/>
        <pt x="263" y="823" on="0"/>
        <pt x="283" y="845" on="1"/>
        <pt x="321" y="813" on="0"/>
        <pt x="376" y="782" on="0"/>
        <pt x="389" y="774" on="0"/>
        <pt x="439" y="746" on="0"/>
        <pt x="446" y="742" on="1"/>
        <pt x="443" y="721" on="0"/>
      </contour>
    </TTGlyph>
    <TTGlyph name="Omega" xMin="78" yMin="-8" xMax="649" yMax="661">
      <contour>
        <pt x="562" y="366" on="1"/>
        <pt x="562" y="596" on="0"/>
        <pt x="165" y="596" on="0"/>
        <pt x="165" y="366" on="1"/>
        <pt x="165" y="298" on="0"/>
        <pt x="235" y="183" on="0"/>
        <pt x="296" y="167" on="1"/>
        <pt x="296" y="2" on="1"/>
        <pt x="165" y="2" on="0"/>
        <pt x="84" y="-8" on="1"/>
        <pt x="80" y="10" on="0"/>
        <pt x="80" y="47" on="0"/>
        <pt x="88" y="71" on="1"/>
        <pt x="138" y="63" on="0"/>
        <pt x="208" y="63" on="0"/>
        <pt x="228" y="65" on="1"/>
        <pt x="236" y="131" on="1"/>
        <pt x="158" y="162" on="0"/>
        <pt x="78" y="298" on="0"/>
        <pt x="78" y="376" on="1"/>
        <pt x="78" y="486" on="0"/>
        <pt x="138" y="568" on="1"/>
        <pt x="170" y="610" on="0"/>
        <pt x="285" y="661" on="0"/>
        <pt x="441" y="661" on="0"/>
        <pt x="557" y="610" on="0"/>
        <pt x="588" y="568" on="1"/>
        <pt x="649" y="486" on="0"/>
        <pt x="649" y="376" on="1"/>
        <pt x="649" y="298" on="0"/>
        <pt x="568" y="162" on="0"/>
        <pt x="489" y="131" on="1"/>
        <pt x="490" y="120" on="0"/>
        <pt x="497" y="76" on="0"/>
        <pt x="498" y="65" on="1"/>
        <pt x="518" y="63" on="0"/>
        <pt x="588" y="63" on="0"/>
        <pt x="638" y="71" on="1"/>
        <pt x="646" y="47" on="0"/>
        <pt x="646" y="10" on="0"/>
        <pt x="642" y="-8" on="1"/>
        <pt x="561" y="2" on="0"/>
        <pt x="430" y="2" on="1"/>
        <pt x="430" y="167" on="1"/>
        <pt x="492" y="183" on="0"/>
        <pt x="562" y="298" on="0"/>
      </contour>
    </TTGlyph>
    <TTGlyph name="Oslash" xMin="55" yMin="-84" xMax="546" yMax="724">
      <contour>
        <pt x="195" y="-84" on="1"/>
        <pt x="163" y="-84" on="0"/>
        <pt x="141" y="-63" on="1"/>
        <pt x="168" y="15" on="1"/>
        <pt x="101" y="53" on="0"/>
        <pt x="55" y="210" on="0"/>
        <pt x="55" y="327" on="1"/>
        <pt x="55" y="655" on="0"/>
        <pt x="300" y="655" on="1"/>
        <pt x="337" y="655" on="0"/>
        <pt x="364" y="648" on="1"/>
        <pt x="384" y="722" on="1"/>
        <pt x="400" y="724" on="0"/>
        <pt x="409" y="724" on="1"/>
        <pt x="434" y="724" on="0"/>
        <pt x="460" y="704" on="1"/>
        <pt x="430" y="623" on="1"/>
        <pt x="546" y="552" on="0"/>
        <pt x="546" y="327" on="1"/>
        <pt x="546" y="267" on="0"/>
        <pt x="537" y="177" on="0"/>
        <pt x="506" y="83" on="0"/>
        <pt x="454" y="23" on="0"/>
        <pt x="363" y="-15" on="0"/>
        <pt x="264" y="-15" on="0"/>
        <pt x="234" y="-9" on="1"/>
        <pt x="215" y="-81" on="1"/>
        <pt x="204" y="-84" on="0"/>
      </contour>
      <contour>
        <pt x="134" y="326" on="1"/>
        <pt x="134" y="157" on="0"/>
        <pt x="197" y="96" on="1"/>
        <pt x="275" y="327" on="0"/>
        <pt x="348" y="589" on="1"/>
        <pt x="322" y="596" on="0"/>
        <pt x="300" y="596" on="1"/>
        <pt x="134" y="596" on="0"/>
      </contour>
      <contour>
        <pt x="300" y="59" on="1"/>
        <pt x="402" y="59" on="0"/>
        <pt x="437" y="144" on="1"/>
        <pt x="467" y="215" on="0"/>
        <pt x="467" y="326" on="1"/>
        <pt x="467" y="487" on="0"/>
        <pt x="405" y="553" on="1"/>
        <pt x="326" y="322" on="0"/>
        <pt x="255" y="64" on="1"/>
        <pt x="277" y="59" on="0"/>
      </contour>
    </TTGlyph>
    <TTGlyph name="Otilde" xMin="55" yMin="-15" xMax="546" yMax="803">
      <contour>
        <pt x="55" y="327" on="1"/>
        <pt x="55" y="655" on="0"/>
        <pt x="546" y="655" on="0"/>
        <pt x="546" y="327" on="1"/>
        <pt x="546" y="267" on="0"/>
        <pt x="537" y="177" on="0"/>
        <pt x="506" y="83" on="0"/>
        <pt x="454" y="23" on="0"/>
        <pt x="363" y="-15" on="0"/>
        <pt x="238" y="-15" on="0"/>
        <pt x="147" y="23" on="0"/>
        <pt x="95" y="83" on="0"/>
        <pt x="64" y="177" on="0"/>
        <pt x="55" y="267" on="0"/>
      </contour>
      <contour>
        <pt x="216" y="81" on="1"/>
        <pt x="250" y="59" on="0"/>
        <pt x="351" y="59" on="0"/>
        <pt x="420" y="103" on="0"/>
        <pt x="437" y="144" on="1"/>
        <pt x="467" y="215" on="0"/>
        <pt x="467" y="326" on="1"/>
        <pt x="467" y="596" on="0"/>
        <pt x="134" y="596" on="0"/>
        <pt x="134" y="326" on="1"/>
        <pt x="134" y="133" on="0"/>
      </contour>
      <contour>
        <pt x="431" y="744" on="0"/>
        <pt x="371" y="704" on="0"/>
        <pt x="321" y="704" on="0"/>
        <pt x="258" y="737" on="0"/>
        <pt x="240" y="737" on="1"/>
        <pt x="204" y="737" on="0"/>
        <pt x="186" y="705" on="1"/>
        <pt x="159" y="716" on="0"/>
        <pt x="154" y="737" on="1"/>
        <pt x="169" y="763" on="0"/>
        <pt x="229" y="803" on="0"/>
        <pt x="282" y="803" on="0"/>
        <pt x="345" y="770" on="0"/>
        <pt x="360" y="770" on="1"/>
        <pt x="396" y="770" on="0"/>
        <pt x="414" y="802" on="1"/>
        <pt x="441" y="791" on="0"/>
        <pt x="446" y="770" on="1"/>
      </contour>
    </TTGlyph>
    <TTGlyph name="P" xMin="99" yMin="-8" xMax="511" yMax="655">
      <contour>
        <pt x="249" y="331" on="1"/>
        <pt x="278" y="302" on="0"/>
        <pt x="359" y="302" on="0"/>
        <pt x="384" y="327" on="1"/>
        <pt x="424" y="368" on="0"/>
        <pt x="424" y="449" on="1"/>
        <pt x="424" y="598" on="0"/>
        <pt x="292" y="598" on="1"/>
        <pt x="250" y="598" on="0"/>
        <pt x="198" y="576" on="1"/>
        <pt x="191" y="497" on="0"/>
        <pt x="191" y="56" on="0"/>
        <pt x="208" y="2" on="1"/>
        <pt x="175" y="-8" on="0"/>
        <pt x="119" y="-8" on="0"/>
        <pt x="102" y="-6" on="1"/>
        <pt x="116" y="111" on="0"/>
        <pt x="116" y="531" on="0"/>
        <pt x="99" y="627" on="1"/>
        <pt x="183" y="655" on="0"/>
        <pt x="411" y="655" on="0"/>
        <pt x="511" y="548" on="0"/>
        <pt x="511" y="355" on="0"/>
        <pt x="410" y="235" on="0"/>
        <pt x="307" y="235" on="1"/>
        <pt x="267" y="235" on="0"/>
        <pt x="228" y="250" on="1"/>
        <pt x="228" y="277" on="0"/>
        <pt x="242" y="323" on="0"/>
      </contour>
    </TTGlyph>
    <TTGlyph name="Q" xMin="55" yMin="-162" xMax="546" yMax="655">
      <contour>
        <pt x="55" y="327" on="1"/>
        <pt x="55" y="655" on="0"/>
        <pt x="546" y="655" on="0"/>
        <pt x="546" y="327" on="1"/>
        <pt x="546" y="259" on="0"/>
        <pt x="533" y="159" on="0"/>
        <pt x="514" y="110" on="1"/>
        <pt x="477" y="10" on="0"/>
        <pt x="361" y="-10" on="1"/>
        <pt x="440" y="-114" on="0"/>
        <pt x="464" y="-145" on="1"/>
        <pt x="430" y="-162" on="0"/>
        <pt x="364" y="-162" on="0"/>
        <pt x="353" y="-161" on="1"/>
        <pt x="325" y="-102" on="0"/>
        <pt x="266" y="-13" on="1"/>
        <pt x="163" y="-3" on="0"/>
        <pt x="112" y="64" on="1"/>
        <pt x="69" y="122" on="0"/>
        <pt x="59" y="227" on="1"/>
        <pt x="55" y="270" on="0"/>
      </contour>
      <contour>
        <pt x="216" y="81" on="1"/>
        <pt x="250" y="59" on="0"/>
        <pt x="351" y="59" on="0"/>
        <pt x="420" y="103" on="0"/>
        <pt x="437" y="144" on="1"/>
        <pt x="467" y="215" on="0"/>
        <pt x="467" y="326" on="1"/>
        <pt x="467" y="596" on="0"/>
        <pt x="134" y="596" on="0"/>
        <pt x="134" y="326" on="1"/>
        <pt x="134" y="133" on="0"/>
      </contour>
    </TTGlyph>
    <TTGlyph name="R" xMin="99" yMin="-12" xMax="538" yMax="655">
      <contour>
        <pt x="249" y="349" on="1"/>
        <pt x="278" y="322" on="0"/>
        <pt x="359" y="322" on="0"/>
        <pt x="384" y="346" on="1"/>
        <pt x="424" y="384" on="0"/>
        <pt x="424" y="459" on="1"/>
        <pt x="424" y="598" on="0"/>
        <pt x="292" y="598" on="1"/>
        <pt x="250" y="598" on="0"/>
        <pt x="198" y="578" on="1"/>
        <pt x="191" y="498" on="0"/>
        <pt x="191" y="56" on="0"/>
        <pt x="208" y="2" on="1"/>
        <pt x="175" y="-8" on="0"/>
        <pt x="119" y="-8" on="0"/>
        <pt x="102" y="-6" on="1"/>
        <pt x="116" y="111" on="0"/>
        <pt x="116" y="531" on="0"/>
        <pt x="99" y="627" on="1"/>
        <pt x="183" y="655" on="0"/>
        <pt x="293" y="655" on="1"/>
        <pt x="511" y="655" on="0"/>
        <pt x="511" y="459" on="1"/>
        <pt x="511" y="385" on="0"/>
        <pt x="437" y="279" on="0"/>
        <pt x="362" y="265" on="1"/>
        <pt x="468" y="96" on="0"/>
        <pt x="538" y="5" on="1"/>
        <pt x="504" y="-12" on="0"/>
        <pt x="438" y="-12" on="0"/>
        <pt x="427" y="-11" on="1"/>
        <pt x="374" y="101" on="0"/>
        <pt x="271" y="263" on="1"/>
        <pt x="251" y="266" on="0"/>
        <pt x="228" y="274" on="1"/>
        <pt x="228" y="299" on="0"/>
        <pt x="242" y="342" on="0"/>
      </contour>
    </TTGlyph>
    <TTGlyph name="S" xMin="48" yMin="-15" xMax="455" yMax="655">
      <contour>
        <pt x="128" y="98" on="0"/>
        <pt x="215" y="49" on="0"/>
        <pt x="317" y="49" on="0"/>
        <pt x="370" y="105" on="0"/>
        <pt x="370" y="185" on="0"/>
        <pt x="306" y="249" on="0"/>
        <pt x="215" y="295" on="0"/>
        <pt x="125" y="346" on="0"/>
        <pt x="61" y="432" on="0"/>
        <pt x="61" y="562" on="0"/>
        <pt x="154" y="655" on="0"/>
        <pt x="352" y="655" on="0"/>
        <pt x="445" y="557" on="0"/>
        <pt x="445" y="478" on="1"/>
        <pt x="445" y="466" on="0"/>
        <pt x="442" y="453" on="1"/>
        <pt x="416" y="444" on="0"/>
        <pt x="364" y="444" on="0"/>
        <pt x="352" y="446" on="1"/>
        <pt x="353" y="454" on="0"/>
        <pt x="353" y="467" on="1"/>
        <pt x="353" y="525" on="0"/>
        <pt x="292" y="596" on="0"/>
        <pt x="200" y="596" on="0"/>
        <pt x="147" y="547" on="0"/>
        <pt x="147" y="458" on="0"/>
        <pt x="210" y="393" on="0"/>
        <pt x="301" y="345" on="0"/>
        <pt x="392" y="292" on="0"/>
        <pt x="455" y="203" on="0"/>
        <pt x="455" y="72" on="0"/>
        <pt x="348" y="-15" on="0"/>
        <pt x="270" y="-15" on="1"/>
        <pt x="129" y="-15" on="0"/>
        <pt x="48" y="61" on="1"/>
        <pt x="52" y="85" on="0"/>
        <pt x="77" y="125" on="0"/>
        <pt x="88" y="132" on="1"/>
        <pt x="98" y="140" on="1"/>
      </contour>
    </TTGlyph>
    <TTGlyph name="Scaron" xMin="46" yMin="-15" xMax="453" yMax="835">
      <contour>
        <pt x="126" y="98" on="0"/>
        <pt x="213" y="49" on="0"/>
        <pt x="315" y="49" on="0"/>
        <pt x="368" y="105" on="0"/>
        <pt x="368" y="185" on="0"/>
        <pt x="304" y="249" on="0"/>
        <pt x="213" y="295" on="0"/>
        <pt x="123" y="346" on="0"/>
        <pt x="59" y="432" on="0"/>
        <pt x="59" y="562" on="0"/>
        <pt x="152" y="655" on="0"/>
        <pt x="350" y="655" on="0"/>
        <pt x="443" y="557" on="0"/>
        <pt x="443" y="478" on="1"/>
        <pt x="443" y="466" on="0"/>
        <pt x="440" y="453" on="1"/>
        <pt x="414" y="444" on="0"/>
        <pt x="362" y="444" on="0"/>
        <pt x="350" y="446" on="1"/>
        <pt x="351" y="454" on="0"/>
        <pt x="351" y="467" on="1"/>
        <pt x="351" y="525" on="0"/>
        <pt x="290" y="596" on="0"/>
        <pt x="198" y="596" on="0"/>
        <pt x="145" y="547" on="0"/>
        <pt x="145" y="458" on="0"/>
        <pt x="208" y="393" on="0"/>
        <pt x="299" y="345" on="0"/>
        <pt x="390" y="292" on="0"/>
        <pt x="453" y="203" on="0"/>
        <pt x="453" y="72" on="0"/>
        <pt x="346" y="-15" on="0"/>
        <pt x="268" y="-15" on="1"/>
        <pt x="127" y="-15" on="0"/>
        <pt x="46" y="61" on="1"/>
        <pt x="50" y="85" on="0"/>
        <pt x="75" y="125" on="0"/>
        <pt x="86" y="132" on="1"/>
        <pt x="96" y="140" on="1"/>
      </contour>
      <contour>
        <pt x="122" y="835" on="1"/>
        <pt x="190" y="814" on="0"/>
        <pt x="249" y="783" on="1"/>
        <pt x="336" y="823" on="0"/>
        <pt x="384" y="835" on="1"/>
        <pt x="396" y="817" on="0"/>
        <pt x="399" y="796" on="1"/>
        <pt x="378" y="782" on="0"/>
        <pt x="342" y="764" on="0"/>
        <pt x="313" y="746" on="0"/>
        <pt x="299" y="736" on="0"/>
        <pt x="288" y="728" on="1"/>
        <pt x="273" y="718" on="0"/>
        <pt x="249" y="694" on="1"/>
        <pt x="205" y="736" on="0"/>
        <pt x="106" y="797" on="1"/>
        <pt x="109" y="818" on="0"/>
      </contour>
    </TTGlyph>
    <TTGlyph name="T" xMin="12" yMin="-8" xMax="465" yMax="653">
      <contour>
        <pt x="280" y="574" on="1"/>
        <pt x="275" y="496" on="0"/>
        <pt x="275" y="56" on="0"/>
        <pt x="292" y="2" on="1"/>
        <pt x="259" y="-8" on="0"/>
        <pt x="203" y="-8" on="0"/>
        <pt x="186" y="-6" on="1"/>
        <pt x="200" y="111" on="0"/>
        <pt x="200" y="490" on="0"/>
        <pt x="193" y="574" on="1"/>
        <pt x="56" y="568" on="0"/>
        <pt x="16" y="560" on="1"/>
        <pt x="12" y="574" on="0"/>
        <pt x="12" y="622" on="0"/>
        <pt x="20" y="648" on="1"/>
        <pt x="94" y="639" on="0"/>
        <pt x="199" y="639" on="1"/>
        <pt x="411" y="639" on="0"/>
        <pt x="461" y="653" on="1"/>
        <pt x="465" y="635" on="0"/>
        <pt x="465" y="591" on="0"/>
        <pt x="457" y="565" on="1"/>
        <pt x="380" y="572" on="0"/>
      </contour>
    </TTGlyph>
    <TTGlyph name="Thorn" xMin="90" yMin="-8" xMax="502" yMax="649">
      <contour>
        <pt x="93" y="-6" on="1"/>
        <pt x="107" y="111" on="0"/>
        <pt x="107" y="543" on="0"/>
        <pt x="90" y="639" on="1"/>
        <pt x="116" y="649" on="0"/>
        <pt x="168" y="649" on="0"/>
        <pt x="196" y="647" on="1"/>
        <pt x="189" y="602" on="0"/>
        <pt x="186" y="549" on="1"/>
        <pt x="230" y="555" on="0"/>
        <pt x="284" y="555" on="1"/>
        <pt x="402" y="555" on="0"/>
        <pt x="502" y="448" on="0"/>
        <pt x="502" y="255" on="0"/>
        <pt x="401" y="135" on="0"/>
        <pt x="298" y="135" on="1"/>
        <pt x="258" y="135" on="0"/>
        <pt x="219" y="150" on="1"/>
        <pt x="219" y="177" on="0"/>
        <pt x="233" y="223" on="0"/>
        <pt x="240" y="231" on="1"/>
        <pt x="269" y="202" on="0"/>
        <pt x="350" y="202" on="0"/>
        <pt x="374" y="227" on="1"/>
        <pt x="415" y="268" on="0"/>
        <pt x="415" y="349" on="1"/>
        <pt x="415" y="498" on="0"/>
        <pt x="283" y="498" on="1"/>
        <pt x="240" y="498" on="0"/>
        <pt x="183" y="474" on="1"/>
        <pt x="182" y="429" on="0"/>
        <pt x="182" y="338" on="1"/>
        <pt x="182" y="56" on="0"/>
        <pt x="199" y="2" on="1"/>
        <pt x="166" y="-8" on="0"/>
        <pt x="110" y="-8" on="0"/>
      </contour>
    </TTGlyph>
    <TTGlyph name="U" xMin="86" yMin="-15" xMax="560" yMax="649">
      <contour>
        <pt x="546" y="277" on="1"/>
        <pt x="546" y="217" on="0"/>
        <pt x="538" y="136" on="0"/>
        <pt x="511" y="58" on="0"/>
        <pt x="487" y="35" on="1"/>
        <pt x="435" y="-15" on="0"/>
        <pt x="325" y="-15" on="1"/>
        <pt x="184" y="-15" on="0"/>
        <pt x="140" y="64" on="1"/>
        <pt x="118" y="106" on="0"/>
        <pt x="103" y="202" on="0"/>
        <pt x="103" y="277" on="1"/>
        <pt x="103" y="543" on="0"/>
        <pt x="86" y="639" on="1"/>
        <pt x="112" y="649" on="0"/>
        <pt x="164" y="649" on="0"/>
        <pt x="192" y="647" on="1"/>
        <pt x="178" y="536" on="0"/>
        <pt x="178" y="276" on="1"/>
        <pt x="178" y="164" on="0"/>
        <pt x="240" y="59" on="0"/>
        <pt x="424" y="59" on="0"/>
        <pt x="483" y="164" on="0"/>
        <pt x="483" y="276" on="1"/>
        <pt x="483" y="543" on="0"/>
        <pt x="466" y="639" on="1"/>
        <pt x="492" y="649" on="0"/>
        <pt x="532" y="649" on="0"/>
        <pt x="560" y="647" on="1"/>
        <pt x="546" y="536" on="0"/>
      </contour>
    </TTGlyph>
    <TTGlyph name="Uacute" xMin="86" yMin="-15" xMax="560" yMax="838">
      <contour>
        <pt x="546" y="277" on="1"/>
        <pt x="546" y="217" on="0"/>
        <pt x="538" y="136" on="0"/>
        <pt x="511" y="58" on="0"/>
        <pt x="487" y="35" on="1"/>
        <pt x="435" y="-15" on="0"/>
        <pt x="325" y="-15" on="1"/>
        <pt x="184" y="-15" on="0"/>
        <pt x="140" y="64" on="1"/>
        <pt x="118" y="106" on="0"/>
        <pt x="103" y="202" on="0"/>
        <pt x="103" y="277" on="1"/>
        <pt x="103" y="543" on="0"/>
        <pt x="86" y="639" on="1"/>
        <pt x="112" y="649" on="0"/>
        <pt x="164" y="649" on="0"/>
        <pt x="192" y="647" on="1"/>
        <pt x="178" y="536" on="0"/>
        <pt x="178" y="276" on="1"/>
        <pt x="178" y="164" on="0"/>
        <pt x="240" y="59" on="0"/>
        <pt x="424" y="59" on="0"/>
        <pt x="483" y="164" on="0"/>
        <pt x="483" y="276" on="1"/>
        <pt x="483" y="543" on="0"/>
        <pt x="466" y="639" on="1"/>
        <pt x="492" y="649" on="0"/>
        <pt x="532" y="649" on="0"/>
        <pt x="560" y="647" on="1"/>
        <pt x="546" y="536" on="0"/>
      </contour>
      <contour>
        <pt x="443" y="768" on="1"/>
        <pt x="443" y="756" on="0"/>
        <pt x="442" y="750" on="1"/>
        <pt x="319" y="713" on="0"/>
        <pt x="260" y="704" on="1"/>
        <pt x="247" y="721" on="0"/>
        <pt x="245" y="743" on="1"/>
        <pt x="266" y="754" on="0"/>
        <pt x="325" y="784" on="0"/>
        <pt x="340" y="792" on="1"/>
        <pt x="384" y="816" on="0"/>
        <pt x="413" y="838" on="1"/>
        <pt x="443" y="805" on="0"/>
      </contour>
    </TTGlyph>
    <TTGlyph name="Ucircumflex" xMin="86" yMin="-15" xMax="560" yMax="845">
      <contour>
        <pt x="546" y="277" on="1"/>
        <pt x="546" y="217" on="0"/>
        <pt x="538" y="136" on="0"/>
        <pt x="511" y="58" on="0"/>
        <pt x="487" y="35" on="1"/>
        <pt x="435" y="-15" on="0"/>
        <pt x="325" y="-15" on="1"/>
        <pt x="184" y="-15" on="0"/>
        <pt x="140" y="64" on="1"/>
        <pt x="118" y="106" on="0"/>
        <pt x="103" y="202" on="0"/>
        <pt x="103" y="277" on="1"/>
        <pt x="103" y="543" on="0"/>
        <pt x="86" y="639" on="1"/>
        <pt x="112" y="649" on="0"/>
        <pt x="164" y="649" on="0"/>
        <pt x="192" y="647" on="1"/>
        <pt x="178" y="536" on="0"/>
        <pt x="178" y="276" on="1"/>
        <pt x="178" y="164" on="0"/>
        <pt x="240" y="59" on="0"/>
        <pt x="424" y="59" on="0"/>
        <pt x="483" y="164" on="0"/>
        <pt x="483" y="276" on="1"/>
        <pt x="483" y="543" on="0"/>
        <pt x="466" y="639" on="1"/>
        <pt x="492" y="649" on="0"/>
        <pt x="532" y="649" on="0"/>
        <pt x="560" y="647" on="1"/>
        <pt x="546" y="536" on="0"/>
      </contour>
      <contour>
        <pt x="455" y="704" on="1"/>
        <pt x="387" y="725" on="0"/>
        <pt x="328" y="756" on="1"/>
        <pt x="241" y="716" on="0"/>
        <pt x="193" y="704" on="1"/>
        <pt x="181" y="722" on="0"/>
        <pt x="178" y="743" on="1"/>
        <pt x="199" y="757" on="0"/>
        <pt x="235" y="775" on="0"/>
        <pt x="264" y="793" on="0"/>
        <pt x="278" y="803" on="0"/>
        <pt x="290" y="811" on="1"/>
        <pt x="304" y="821" on="0"/>
        <pt x="328" y="845" on="1"/>
        <pt x="372" y="803" on="0"/>
        <pt x="471" y="742" on="1"/>
        <pt x="468" y="721" on="0"/>
      </contour>
    </TTGlyph>
    <TTGlyph name="Udieresis" xMin="86" yMin="-15" xMax="560" yMax="806">
      <contour>
        <pt x="546" y="277" on="1"/>
        <pt x="546" y="217" on="0"/>
        <pt x="538" y="136" on="0"/>
        <pt x="511" y="58" on="0"/>
        <pt x="487" y="35" on="1"/>
        <pt x="435" y="-15" on="0"/>
        <pt x="325" y="-15" on="1"/>
        <pt x="184" y="-15" on="0"/>
        <pt x="140" y="64" on="1"/>
        <pt x="118" y="106" on="0"/>
        <pt x="103" y="202" on="0"/>
        <pt x="103" y="277" on="1"/>
        <pt x="103" y="543" on="0"/>
        <pt x="86" y="639" on="1"/>
        <pt x="112" y="649" on="0"/>
        <pt x="164" y="649" on="0"/>
        <pt x="192" y="647" on="1"/>
        <pt x="178" y="536" on="0"/>
        <pt x="178" y="276" on="1"/>
        <pt x="178" y="164" on="0"/>
        <pt x="240" y="59" on="0"/>
        <pt x="424" y="59" on="0"/>
        <pt x="483" y="164" on="0"/>
        <pt x="483" y="276" on="1"/>
        <pt x="483" y="543" on="0"/>
        <pt x="466" y="639" on="1"/>
        <pt x="492" y="649" on="0"/>
        <pt x="532" y="649" on="0"/>
        <pt x="560" y="647" on="1"/>
        <pt x="546" y="536" on="0"/>
      </contour>
      <contour>
        <pt x="303" y="759" on="1"/>
        <pt x="303" y="704" on="0"/>
        <pt x="245" y="704" on="1"/>
        <pt x="200" y="704" on="0"/>
        <pt x="200" y="750" on="1"/>
        <pt x="200" y="806" on="0"/>
        <pt x="258" y="806" on="1"/>
        <pt x="303" y="806" on="0"/>
      </contour>
      <contour>
        <pt x="453" y="759" on="1"/>
        <pt x="453" y="704" on="0"/>
        <pt x="395" y="704" on="1"/>
        <pt x="350" y="704" on="0"/>
        <pt x="350" y="750" on="1"/>
        <pt x="350" y="806" on="0"/>
        <pt x="408" y="806" on="1"/>
        <pt x="453" y="806" on="0"/>
      </contour>
    </TTGlyph>
    <TTGlyph name="Ugrave" xMin="86" yMin="-15" xMax="560" yMax="845">
      <contour>
        <pt x="546" y="277" on="1"/>
        <pt x="546" y="217" on="0"/>
        <pt x="538" y="136" on="0"/>
        <pt x="511" y="58" on="0"/>
        <pt x="487" y="35" on="1"/>
        <pt x="435" y="-15" on="0"/>
        <pt x="325" y="-15" on="1"/>
        <pt x="184" y="-15" on="0"/>
        <pt x="140" y="64" on="1"/>
        <pt x="118" y="106" on="0"/>
        <pt x="103" y="202" on="0"/>
        <pt x="103" y="277" on="1"/>
        <pt x="103" y="543" on="0"/>
        <pt x="86" y="639" on="1"/>
        <pt x="112" y="649" on="0"/>
        <pt x="164" y="649" on="0"/>
        <pt x="192" y="647" on="1"/>
        <pt x="178" y="536" on="0"/>
        <pt x="178" y="276" on="1"/>
        <pt x="178" y="164" on="0"/>
        <pt x="240" y="59" on="0"/>
        <pt x="424" y="59" on="0"/>
        <pt x="483" y="164" on="0"/>
        <pt x="483" y="276" on="1"/>
        <pt x="483" y="543" on="0"/>
        <pt x="466" y="639" on="1"/>
        <pt x="492" y="649" on="0"/>
        <pt x="532" y="649" on="0"/>
        <pt x="560" y="647" on="1"/>
        <pt x="546" y="536" on="0"/>
      </contour>
      <contour>
        <pt x="375" y="704" on="1"/>
        <pt x="312" y="717" on="0"/>
        <pt x="195" y="759" on="1"/>
        <pt x="195" y="792" on="0"/>
        <pt x="208" y="823" on="0"/>
        <pt x="228" y="845" on="1"/>
        <pt x="266" y="813" on="0"/>
        <pt x="321" y="782" on="0"/>
        <pt x="334" y="774" on="0"/>
        <pt x="384" y="746" on="0"/>
        <pt x="391" y="742" on="1"/>
        <pt x="388" y="721" on="0"/>
      </contour>
    </TTGlyph>
    <TTGlyph name="V" xMin="21" yMin="-9" xMax="547" yMax="649">
      <contour>
        <pt x="337" y="0" on="1"/>
        <pt x="301" y="-9" on="0"/>
        <pt x="242" y="-9" on="0"/>
        <pt x="233" y="-8" on="1"/>
        <pt x="191" y="142" on="0"/>
        <pt x="66" y="527" on="0"/>
        <pt x="21" y="629" on="1"/>
        <pt x="63" y="649" on="0"/>
        <pt x="127" y="649" on="0"/>
        <pt x="138" y="648" on="1"/>
        <pt x="152" y="541" on="0"/>
        <pt x="242" y="205" on="0"/>
        <pt x="290" y="87" on="1"/>
        <pt x="296" y="87" on="1"/>
        <pt x="339" y="193" on="0"/>
        <pt x="434" y="559" on="0"/>
        <pt x="438" y="642" on="1"/>
        <pt x="452" y="645" on="0"/>
        <pt x="466" y="645" on="1"/>
        <pt x="515" y="645" on="0"/>
        <pt x="547" y="625" on="1"/>
        <pt x="519" y="557" on="0"/>
        <pt x="362" y="100" on="0"/>
      </contour>
    </TTGlyph>
    <TTGlyph name="W" xMin="21" yMin="-9" xMax="791" yMax="649">
      <contour>
        <pt x="307" y="0" on="1"/>
        <pt x="271" y="-9" on="0"/>
        <pt x="212" y="-9" on="0"/>
        <pt x="203" y="-8" on="1"/>
        <pt x="191" y="34" on="0"/>
        <pt x="154" y="180" on="1"/>
        <pt x="70" y="519" on="0"/>
        <pt x="21" y="629" on="1"/>
        <pt x="63" y="649" on="0"/>
        <pt x="127" y="649" on="0"/>
        <pt x="138" y="648" on="1"/>
        <pt x="184" y="297" on="0"/>
        <pt x="260" y="87" on="1"/>
        <pt x="266" y="87" on="1"/>
        <pt x="297" y="163" on="0"/>
        <pt x="354" y="432" on="0"/>
        <pt x="369" y="550" on="1"/>
        <pt x="399" y="562" on="0"/>
        <pt x="438" y="562" on="0"/>
        <pt x="454" y="560" on="1"/>
        <pt x="499" y="256" on="0"/>
        <pt x="564" y="87" on="1"/>
        <pt x="570" y="87" on="1"/>
        <pt x="609" y="198" on="0"/>
        <pt x="677" y="549" on="0"/>
        <pt x="682" y="642" on="1"/>
        <pt x="696" y="645" on="0"/>
        <pt x="710" y="645" on="1"/>
        <pt x="759" y="645" on="0"/>
        <pt x="791" y="625" on="1"/>
        <pt x="773" y="580" on="0"/>
        <pt x="642" y="122" on="0"/>
        <pt x="611" y="0" on="1"/>
        <pt x="575" y="-9" on="0"/>
        <pt x="516" y="-9" on="0"/>
        <pt x="507" y="-8" on="1"/>
        <pt x="493" y="40" on="0"/>
        <pt x="426" y="306" on="0"/>
        <pt x="410" y="367" on="1"/>
        <pt x="405" y="367" on="1"/>
        <pt x="338" y="124" on="0"/>
      </contour>
    </TTGlyph>
    <TTGlyph name="X" xMin="19" yMin="-8" xMax="515" yMax="649">
      <contour>
        <pt x="398" y="648" on="1"/>
        <pt x="406" y="649" on="0"/>
        <pt x="468" y="649" on="0"/>
        <pt x="505" y="632" on="1"/>
        <pt x="390" y="470" on="0"/>
        <pt x="315" y="331" on="1"/>
        <pt x="415" y="154" on="0"/>
        <pt x="515" y="9" on="1"/>
        <pt x="486" y="-8" on="0"/>
        <pt x="433" y="-8" on="1"/>
        <pt x="413" y="-8" on="0"/>
        <pt x="402" y="-7" on="1"/>
        <pt x="325" y="149" on="0"/>
        <pt x="261" y="264" on="1"/>
        <pt x="171" y="114" on="0"/>
        <pt x="126" y="-7" on="1"/>
        <pt x="118" y="-8" on="0"/>
        <pt x="56" y="-8" on="0"/>
        <pt x="19" y="9" on="1"/>
        <pt x="147" y="190" on="0"/>
        <pt x="223" y="330" on="1"/>
        <pt x="125" y="501" on="0"/>
        <pt x="37" y="632" on="1"/>
        <pt x="71" y="649" on="0"/>
        <pt x="138" y="649" on="0"/>
        <pt x="149" y="648" on="1"/>
        <pt x="209" y="524" on="0"/>
        <pt x="280" y="394" on="1"/>
        <pt x="339" y="489" on="0"/>
      </contour>
    </TTGlyph>
    <TTGlyph name="Y" xMin="1" yMin="-8" xMax="465" yMax="651">
      <contour>
        <pt x="1" y="634" on="1"/>
        <pt x="41" y="651" on="0"/>
        <pt x="106" y="651" on="0"/>
        <pt x="117" y="650" on="1"/>
        <pt x="123" y="575" on="0"/>
        <pt x="164" y="478" on="1"/>
        <pt x="180" y="442" on="0"/>
        <pt x="233" y="324" on="0"/>
        <pt x="246" y="293" on="1"/>
        <pt x="250" y="293" on="1"/>
        <pt x="285" y="360" on="0"/>
        <pt x="356" y="579" on="0"/>
        <pt x="360" y="649" on="1"/>
        <pt x="378" y="651" on="0"/>
        <pt x="387" y="651" on="1"/>
        <pt x="434" y="651" on="0"/>
        <pt x="465" y="634" on="1"/>
        <pt x="464" y="631" on="0"/>
        <pt x="399" y="490" on="0"/>
        <pt x="374" y="434" on="1"/>
        <pt x="299" y="266" on="0"/>
        <pt x="281" y="194" on="1"/>
        <pt x="286" y="31" on="0"/>
        <pt x="297" y="2" on="1"/>
        <pt x="264" y="-8" on="0"/>
        <pt x="208" y="-8" on="0"/>
        <pt x="191" y="-6" on="1"/>
        <pt x="201" y="76" on="0"/>
        <pt x="204" y="197" on="1"/>
        <pt x="181" y="270" on="0"/>
        <pt x="92" y="455" on="0"/>
        <pt x="13" y="610" on="0"/>
      </contour>
    </TTGlyph>
    <TTGlyph name="Yacute" xMin="14" yMin="-8" xMax="478" yMax="838">
      <contour>
        <pt x="14" y="634" on="1"/>
        <pt x="54" y="651" on="0"/>
        <pt x="119" y="651" on="0"/>
        <pt x="130" y="650" on="1"/>
        <pt x="136" y="575" on="0"/>
        <pt x="178" y="478" on="1"/>
        <pt x="193" y="442" on="0"/>
        <pt x="246" y="324" on="0"/>
        <pt x="259" y="293" on="1"/>
        <pt x="263" y="293" on="1"/>
        <pt x="298" y="360" on="0"/>
        <pt x="369" y="579" on="0"/>
        <pt x="373" y="649" on="1"/>
        <pt x="391" y="651" on="0"/>
        <pt x="400" y="651" on="1"/>
        <pt x="447" y="651" on="0"/>
        <pt x="478" y="634" on="1"/>
        <pt x="477" y="631" on="0"/>
        <pt x="412" y="490" on="0"/>
        <pt x="387" y="434" on="1"/>
        <pt x="312" y="266" on="0"/>
        <pt x="294" y="194" on="1"/>
        <pt x="299" y="31" on="0"/>
        <pt x="310" y="2" on="1"/>
        <pt x="277" y="-8" on="0"/>
        <pt x="221" y="-8" on="0"/>
        <pt x="204" y="-6" on="1"/>
        <pt x="214" y="76" on="0"/>
        <pt x="217" y="197" on="1"/>
        <pt x="194" y="270" on="0"/>
        <pt x="105" y="455" on="0"/>
        <pt x="26" y="610" on="0"/>
      </contour>
      <contour>
        <pt x="394" y="768" on="1"/>
        <pt x="394" y="756" on="0"/>
        <pt x="393" y="750" on="1"/>
        <pt x="270" y="713" on="0"/>
        <pt x="211" y="704" on="1"/>
        <pt x="198" y="721" on="0"/>
        <pt x="196" y="743" on="1"/>
        <pt x="217" y="754" on="0"/>
        <pt x="276" y="784" on="0"/>
        <pt x="291" y="792" on="1"/>
        <pt x="335" y="816" on="0"/>
        <pt x="364" y="838" on="1"/>
        <pt x="394" y="805" on="0"/>
      </contour>
    </TTGlyph>
    <TTGlyph name="Ydieresis" xMin="1" yMin="-8" xMax="465" yMax="806">
      <contour>
        <pt x="1" y="634" on="1"/>
        <pt x="41" y="651" on="0"/>
        <pt x="106" y="651" on="0"/>
        <pt x="117" y="650" on="1"/>
        <pt x="123" y="575" on="0"/>
        <pt x="164" y="478" on="1"/>
        <pt x="180" y="442" on="0"/>
        <pt x="233" y="324" on="0"/>
        <pt x="246" y="293" on="1"/>
        <pt x="250" y="293" on="1"/>
        <pt x="285" y="360" on="0"/>
        <pt x="356" y="579" on="0"/>
        <pt x="360" y="649" on="1"/>
        <pt x="378" y="651" on="0"/>
        <pt x="387" y="651" on="1"/>
        <pt x="434" y="651" on="0"/>
        <pt x="465" y="634" on="1"/>
        <pt x="464" y="631" on="0"/>
        <pt x="399" y="490" on="0"/>
        <pt x="374" y="434" on="1"/>
        <pt x="299" y="266" on="0"/>
        <pt x="281" y="194" on="1"/>
        <pt x="286" y="31" on="0"/>
        <pt x="297" y="2" on="1"/>
        <pt x="264" y="-8" on="0"/>
        <pt x="208" y="-8" on="0"/>
        <pt x="191" y="-6" on="1"/>
        <pt x="201" y="76" on="0"/>
        <pt x="204" y="197" on="1"/>
        <pt x="181" y="270" on="0"/>
        <pt x="92" y="455" on="0"/>
        <pt x="13" y="610" on="0"/>
      </contour>
      <contour>
        <pt x="368" y="759" on="1"/>
        <pt x="368" y="704" on="0"/>
        <pt x="310" y="704" on="1"/>
        <pt x="265" y="704" on="0"/>
        <pt x="265" y="750" on="1"/>
        <pt x="265" y="806" on="0"/>
        <pt x="323" y="806" on="1"/>
        <pt x="368" y="806" on="0"/>
      </contour>
      <contour>
        <pt x="218" y="759" on="1"/>
        <pt x="218" y="704" on="0"/>
        <pt x="160" y="704" on="1"/>
        <pt x="115" y="704" on="0"/>
        <pt x="115" y="750" on="1"/>
        <pt x="115" y="806" on="0"/>
        <pt x="173" y="806" on="1"/>
        <pt x="218" y="806" on="0"/>
      </contour>
    </TTGlyph>
    <TTGlyph name="Z" xMin="30" yMin="-11" xMax="456" yMax="646">
      <contour>
        <pt x="270" y="573" on="1"/>
        <pt x="129" y="573" on="0"/>
        <pt x="54" y="553" on="1"/>
        <pt x="45" y="583" on="0"/>
        <pt x="45" y="619" on="0"/>
        <pt x="51" y="646" on="1"/>
        <pt x="103" y="639" on="0"/>
        <pt x="397" y="639" on="0"/>
        <pt x="451" y="645" on="1"/>
        <pt x="456" y="635" on="0"/>
        <pt x="456" y="607" on="1"/>
        <pt x="413" y="526" on="0"/>
        <pt x="179" y="114" on="0"/>
        <pt x="158" y="76" on="1"/>
        <pt x="204" y="73" on="0"/>
        <pt x="392" y="73" on="0"/>
        <pt x="445" y="82" on="1"/>
        <pt x="453" y="56" on="0"/>
        <pt x="453" y="7" on="0"/>
        <pt x="449" y="-11" on="1"/>
        <pt x="431" y="-6" on="0"/>
        <pt x="269" y="3" on="0"/>
        <pt x="104" y="3" on="0"/>
        <pt x="37" y="-4" on="1"/>
        <pt x="31" y="11" on="0"/>
        <pt x="30" y="32" on="1"/>
        <pt x="72" y="98" on="0"/>
        <pt x="303" y="497" on="0"/>
        <pt x="350" y="573" on="1"/>
      </contour>
    </TTGlyph>
    <TTGlyph name="Zcaron" xMin="30" yMin="-11" xMax="456" yMax="835">
      <contour>
        <pt x="270" y="573" on="1"/>
        <pt x="129" y="573" on="0"/>
        <pt x="54" y="553" on="1"/>
        <pt x="45" y="583" on="0"/>
        <pt x="45" y="619" on="0"/>
        <pt x="51" y="646" on="1"/>
        <pt x="103" y="639" on="0"/>
        <pt x="397" y="639" on="0"/>
        <pt x="451" y="645" on="1"/>
        <pt x="456" y="635" on="0"/>
        <pt x="456" y="607" on="1"/>
        <pt x="413" y="526" on="0"/>
        <pt x="179" y="114" on="0"/>
        <pt x="158" y="76" on="1"/>
        <pt x="204" y="73" on="0"/>
        <pt x="392" y="73" on="0"/>
        <pt x="445" y="82" on="1"/>
        <pt x="453" y="56" on="0"/>
        <pt x="453" y="7" on="0"/>
        <pt x="449" y="-11" on="1"/>
        <pt x="431" y="-6" on="0"/>
        <pt x="269" y="3" on="0"/>
        <pt x="104" y="3" on="0"/>
        <pt x="37" y="-4" on="1"/>
        <pt x="31" y="11" on="0"/>
        <pt x="30" y="32" on="1"/>
        <pt x="72" y="98" on="0"/>
        <pt x="303" y="497" on="0"/>
        <pt x="350" y="573" on="1"/>
      </contour>
      <contour>
        <pt x="111" y="835" on="1"/>
        <pt x="179" y="814" on="0"/>
        <pt x="238" y="783" on="1"/>
        <pt x="325" y="823" on="0"/>
        <pt x="373" y="835" on="1"/>
        <pt x="385" y="817" on="0"/>
        <pt x="388" y="796" on="1"/>
        <pt x="355" y="777" on="0"/>
        <pt x="330" y="763" on="1"/>
        <pt x="276" y="732" on="0"/>
        <pt x="238" y="694" on="1"/>
        <pt x="194" y="736" on="0"/>
        <pt x="95" y="797" on="1"/>
        <pt x="98" y="818" on="0"/>
      </contour>
    </TTGlyph>
    <TTGlyph name="a" xMin="50" yMin="-15" xMax="401" yMax="478">
      <contour>
        <pt x="209" y="219" on="1"/>
        <pt x="173" y="219" on="0"/>
        <pt x="128" y="180" on="0"/>
        <pt x="128" y="139" on="1"/>
        <pt x="128" y="57" on="0"/>
        <pt x="199" y="57" on="1"/>
        <pt x="227" y="57" on="0"/>
        <pt x="285" y="85" on="0"/>
        <pt x="301" y="104" on="1"/>
        <pt x="306" y="167" on="0"/>
        <pt x="306" y="184" on="1"/>
        <pt x="265" y="219" on="0"/>
      </contour>
      <contour>
        <pt x="388" y="345" on="1"/>
        <pt x="384" y="201" on="1"/>
        <pt x="384" y="118" on="0"/>
        <pt x="401" y="3" on="1"/>
        <pt x="371" y="-6" on="0"/>
        <pt x="327" y="-6" on="0"/>
        <pt x="307" y="-4" on="1"/>
        <pt x="304" y="44" on="1"/>
        <pt x="228" y="-15" on="0"/>
        <pt x="111" y="-15" on="0"/>
        <pt x="50" y="60" on="0"/>
        <pt x="50" y="199" on="0"/>
        <pt x="141" y="271" on="0"/>
        <pt x="265" y="271" on="0"/>
        <pt x="310" y="247" on="1"/>
        <pt x="311" y="267" on="0"/>
        <pt x="311" y="315" on="0"/>
        <pt x="308" y="351" on="0"/>
        <pt x="300" y="375" on="1"/>
        <pt x="286" y="422" on="0"/>
        <pt x="227" y="422" on="1"/>
        <pt x="153" y="422" on="0"/>
        <pt x="153" y="341" on="1"/>
        <pt x="154" y="324" on="1"/>
        <pt x="132" y="322" on="0"/>
        <pt x="94" y="322" on="0"/>
        <pt x="68" y="330" on="1"/>
        <pt x="66" y="346" on="0"/>
        <pt x="66" y="353" on="1"/>
        <pt x="66" y="416" on="0"/>
        <pt x="158" y="478" on="0"/>
        <pt x="305" y="478" on="0"/>
        <pt x="388" y="411" on="0"/>
      </contour>
    </TTGlyph>
    <TTGlyph name="aacute" xMin="50" yMin="-15" xMax="401" yMax="682">
      <contour>
        <pt x="209" y="219" on="1"/>
        <pt x="173" y="219" on="0"/>
        <pt x="128" y="180" on="0"/>
        <pt x="128" y="139" on="1"/>
        <pt x="128" y="57" on="0"/>
        <pt x="199" y="57" on="1"/>
        <pt x="227" y="57" on="0"/>
        <pt x="285" y="85" on="0"/>
        <pt x="301" y="104" on="1"/>
        <pt x="306" y="167" on="0"/>
        <pt x="306" y="184" on="1"/>
        <pt x="265" y="219" on="0"/>
      </contour>
      <contour>
        <pt x="388" y="345" on="1"/>
        <pt x="384" y="201" on="1"/>
        <pt x="384" y="118" on="0"/>
        <pt x="401" y="3" on="1"/>
        <pt x="371" y="-6" on="0"/>
        <pt x="327" y="-6" on="0"/>
        <pt x="307" y="-4" on="1"/>
        <pt x="304" y="44" on="1"/>
        <pt x="228" y="-15" on="0"/>
        <pt x="111" y="-15" on="0"/>
        <pt x="50" y="60" on="0"/>
        <pt x="50" y="199" on="0"/>
        <pt x="141" y="271" on="0"/>
        <pt x="265" y="271" on="0"/>
        <pt x="310" y="247" on="1"/>
        <pt x="311" y="267" on="0"/>
        <pt x="311" y="315" on="0"/>
        <pt x="308" y="351" on="0"/>
        <pt x="300" y="375" on="1"/>
        <pt x="286" y="422" on="0"/>
        <pt x="227" y="422" on="1"/>
        <pt x="153" y="422" on="0"/>
        <pt x="153" y="341" on="1"/>
        <pt x="154" y="324" on="1"/>
        <pt x="132" y="322" on="0"/>
        <pt x="94" y="322" on="0"/>
        <pt x="68" y="330" on="1"/>
        <pt x="66" y="346" on="0"/>
        <pt x="66" y="353" on="1"/>
        <pt x="66" y="416" on="0"/>
        <pt x="158" y="478" on="0"/>
        <pt x="305" y="478" on="0"/>
        <pt x="388" y="411" on="0"/>
      </contour>
      <contour>
        <pt x="172" y="528" on="1"/>
        <pt x="157" y="544" on="0"/>
        <pt x="152" y="565" on="1"/>
        <pt x="171" y="578" on="0"/>
        <pt x="229" y="616" on="0"/>
        <pt x="242" y="626" on="1"/>
        <pt x="283" y="654" on="0"/>
        <pt x="316" y="682" on="1"/>
        <pt x="337" y="664" on="0"/>
        <pt x="355" y="631" on="0"/>
        <pt x="356" y="603" on="1"/>
        <pt x="296" y="579" on="0"/>
      </contour>
    </TTGlyph>
    <TTGlyph name="acircumflex" xMin="50" yMin="-15" xMax="401" yMax="682">
      <contour>
        <pt x="209" y="219" on="1"/>
        <pt x="173" y="219" on="0"/>
        <pt x="128" y="180" on="0"/>
        <pt x="128" y="139" on="1"/>
        <pt x="128" y="57" on="0"/>
        <pt x="199" y="57" on="1"/>
        <pt x="227" y="57" on="0"/>
        <pt x="285" y="85" on="0"/>
        <pt x="301" y="104" on="1"/>
        <pt x="306" y="167" on="0"/>
        <pt x="306" y="184" on="1"/>
        <pt x="265" y="219" on="0"/>
      </contour>
      <contour>
        <pt x="388" y="345" on="1"/>
        <pt x="384" y="201" on="1"/>
        <pt x="384" y="118" on="0"/>
        <pt x="401" y="3" on="1"/>
        <pt x="371" y="-6" on="0"/>
        <pt x="327" y="-6" on="0"/>
        <pt x="307" y="-4" on="1"/>
        <pt x="304" y="44" on="1"/>
        <pt x="228" y="-15" on="0"/>
        <pt x="111" y="-15" on="0"/>
        <pt x="50" y="60" on="0"/>
        <pt x="50" y="199" on="0"/>
        <pt x="141" y="271" on="0"/>
        <pt x="265" y="271" on="0"/>
        <pt x="310" y="247" on="1"/>
        <pt x="311" y="267" on="0"/>
        <pt x="311" y="315" on="0"/>
        <pt x="308" y="351" on="0"/>
        <pt x="300" y="375" on="1"/>
        <pt x="286" y="422" on="0"/>
        <pt x="227" y="422" on="1"/>
        <pt x="153" y="422" on="0"/>
        <pt x="153" y="341" on="1"/>
        <pt x="154" y="324" on="1"/>
        <pt x="132" y="322" on="0"/>
        <pt x="94" y="322" on="0"/>
        <pt x="68" y="330" on="1"/>
        <pt x="66" y="346" on="0"/>
        <pt x="66" y="353" on="1"/>
        <pt x="66" y="416" on="0"/>
        <pt x="158" y="478" on="0"/>
        <pt x="305" y="478" on="0"/>
        <pt x="388" y="411" on="0"/>
      </contour>
      <contour>
        <pt x="339" y="528" on="1"/>
        <pt x="225" y="591" on="1"/>
        <pt x="192" y="573" on="0"/>
        <pt x="111" y="528" on="1"/>
        <pt x="95" y="546" on="0"/>
        <pt x="91" y="565" on="1"/>
        <pt x="109" y="580" on="0"/>
        <pt x="138" y="604" on="1"/>
        <pt x="199" y="655" on="0"/>
        <pt x="225" y="682" on="1"/>
        <pt x="251" y="655" on="0"/>
        <pt x="341" y="580" on="0"/>
        <pt x="359" y="565" on="1"/>
        <pt x="354" y="544" on="0"/>
      </contour>
    </TTGlyph>
    <TTGlyph name="acute" xMin="110" yMin="528" xMax="314" yMax="682">
      <contour>
        <pt x="130" y="528" on="1"/>
        <pt x="115" y="544" on="0"/>
        <pt x="110" y="565" on="1"/>
        <pt x="129" y="578" on="0"/>
        <pt x="187" y="616" on="0"/>
        <pt x="200" y="626" on="1"/>
        <pt x="241" y="654" on="0"/>
        <pt x="274" y="682" on="1"/>
        <pt x="295" y="664" on="0"/>
        <pt x="313" y="631" on="0"/>
        <pt x="314" y="603" on="1"/>
        <pt x="254" y="579" on="0"/>
      </contour>
    </TTGlyph>
    <TTGlyph name="acute.case" xMin="110" yMin="704" xMax="308" yMax="838">
      <contour>
        <pt x="308" y="768" on="1"/>
        <pt x="308" y="756" on="0"/>
        <pt x="307" y="750" on="1"/>
        <pt x="184" y="713" on="0"/>
        <pt x="125" y="704" on="1"/>
        <pt x="112" y="721" on="0"/>
        <pt x="110" y="743" on="1"/>
        <pt x="131" y="754" on="0"/>
        <pt x="190" y="784" on="0"/>
        <pt x="205" y="792" on="1"/>
        <pt x="249" y="816" on="0"/>
        <pt x="278" y="838" on="1"/>
        <pt x="308" y="805" on="0"/>
      </contour>
    </TTGlyph>
    <TTGlyph name="adieresis" xMin="50" yMin="-15" xMax="401" yMax="646">
      <contour>
        <pt x="209" y="219" on="1"/>
        <pt x="173" y="219" on="0"/>
        <pt x="128" y="180" on="0"/>
        <pt x="128" y="139" on="1"/>
        <pt x="128" y="57" on="0"/>
        <pt x="199" y="57" on="1"/>
        <pt x="227" y="57" on="0"/>
        <pt x="285" y="85" on="0"/>
        <pt x="301" y="104" on="1"/>
        <pt x="306" y="167" on="0"/>
        <pt x="306" y="184" on="1"/>
        <pt x="265" y="219" on="0"/>
      </contour>
      <contour>
        <pt x="388" y="345" on="1"/>
        <pt x="384" y="201" on="1"/>
        <pt x="384" y="118" on="0"/>
        <pt x="401" y="3" on="1"/>
        <pt x="371" y="-6" on="0"/>
        <pt x="327" y="-6" on="0"/>
        <pt x="307" y="-4" on="1"/>
        <pt x="304" y="44" on="1"/>
        <pt x="228" y="-15" on="0"/>
        <pt x="111" y="-15" on="0"/>
        <pt x="50" y="60" on="0"/>
        <pt x="50" y="199" on="0"/>
        <pt x="141" y="271" on="0"/>
        <pt x="265" y="271" on="0"/>
        <pt x="310" y="247" on="1"/>
        <pt x="311" y="267" on="0"/>
        <pt x="311" y="315" on="0"/>
        <pt x="308" y="351" on="0"/>
        <pt x="300" y="375" on="1"/>
        <pt x="286" y="422" on="0"/>
        <pt x="227" y="422" on="1"/>
        <pt x="153" y="422" on="0"/>
        <pt x="153" y="341" on="1"/>
        <pt x="154" y="324" on="1"/>
        <pt x="132" y="322" on="0"/>
        <pt x="94" y="322" on="0"/>
        <pt x="68" y="330" on="1"/>
        <pt x="66" y="346" on="0"/>
        <pt x="66" y="353" on="1"/>
        <pt x="66" y="416" on="0"/>
        <pt x="158" y="478" on="0"/>
        <pt x="305" y="478" on="0"/>
        <pt x="388" y="411" on="0"/>
      </contour>
      <contour>
        <pt x="202" y="599" on="1"/>
        <pt x="202" y="544" on="0"/>
        <pt x="144" y="544" on="1"/>
        <pt x="99" y="544" on="0"/>
        <pt x="99" y="590" on="1"/>
        <pt x="99" y="646" on="0"/>
        <pt x="157" y="646" on="1"/>
        <pt x="202" y="646" on="0"/>
      </contour>
      <contour>
        <pt x="352" y="599" on="1"/>
        <pt x="352" y="544" on="0"/>
        <pt x="294" y="544" on="1"/>
        <pt x="249" y="544" on="0"/>
        <pt x="249" y="590" on="1"/>
        <pt x="249" y="646" on="0"/>
        <pt x="307" y="646" on="1"/>
        <pt x="352" y="646" on="0"/>
      </contour>
    </TTGlyph>
    <TTGlyph name="ae" xMin="50" yMin="-16" xMax="666" yMax="478">
      <contour>
        <pt x="153" y="341" on="1"/>
        <pt x="154" y="324" on="1"/>
        <pt x="132" y="322" on="0"/>
        <pt x="94" y="322" on="0"/>
        <pt x="68" y="330" on="1"/>
        <pt x="66" y="346" on="0"/>
        <pt x="66" y="353" on="1"/>
        <pt x="66" y="416" on="0"/>
        <pt x="158" y="478" on="0"/>
        <pt x="325" y="478" on="0"/>
        <pt x="364" y="410" on="1"/>
        <pt x="418" y="478" on="0"/>
        <pt x="576" y="478" on="0"/>
        <pt x="664" y="391" on="0"/>
        <pt x="664" y="272" on="0"/>
        <pt x="653" y="246" on="1"/>
        <pt x="578" y="222" on="0"/>
        <pt x="430" y="222" on="0"/>
        <pt x="392" y="227" on="1"/>
        <pt x="392" y="107" on="0"/>
        <pt x="444" y="73" on="1"/>
        <pt x="468" y="57" on="0"/>
        <pt x="505" y="57" on="1"/>
        <pt x="565" y="57" on="0"/>
        <pt x="629" y="119" on="1"/>
        <pt x="658" y="89" on="0"/>
        <pt x="666" y="40" on="1"/>
        <pt x="586" y="-16" on="0"/>
        <pt x="497" y="-16" on="1"/>
        <pt x="387" y="-16" on="0"/>
        <pt x="344" y="66" on="1"/>
        <pt x="299" y="22" on="0"/>
        <pt x="222" y="-15" on="0"/>
        <pt x="111" y="-15" on="0"/>
        <pt x="50" y="60" on="0"/>
        <pt x="50" y="199" on="0"/>
        <pt x="141" y="271" on="0"/>
        <pt x="265" y="271" on="0"/>
        <pt x="310" y="247" on="1"/>
        <pt x="311" y="267" on="0"/>
        <pt x="311" y="315" on="0"/>
        <pt x="308" y="351" on="0"/>
        <pt x="300" y="375" on="1"/>
        <pt x="286" y="422" on="0"/>
        <pt x="227" y="422" on="1"/>
        <pt x="153" y="422" on="0"/>
      </contour>
      <contour>
        <pt x="199" y="57" on="1"/>
        <pt x="267" y="57" on="0"/>
        <pt x="322" y="126" on="1"/>
        <pt x="318" y="143" on="0"/>
        <pt x="314" y="177" on="1"/>
        <pt x="267" y="219" on="0"/>
        <pt x="209" y="219" on="1"/>
        <pt x="173" y="219" on="0"/>
        <pt x="128" y="180" on="0"/>
        <pt x="128" y="139" on="1"/>
        <pt x="128" y="57" on="0"/>
      </contour>
      <contour>
        <pt x="497" y="422" on="1"/>
        <pt x="403" y="422" on="0"/>
        <pt x="393" y="285" on="1"/>
        <pt x="435" y="280" on="0"/>
        <pt x="545" y="280" on="0"/>
        <pt x="576" y="290" on="1"/>
        <pt x="580" y="326" on="0"/>
        <pt x="580" y="327" on="1"/>
        <pt x="580" y="366" on="0"/>
        <pt x="540" y="422" on="0"/>
      </contour>
    </TTGlyph>
    <TTGlyph name="agrave" xMin="50" yMin="-15" xMax="401" yMax="682">
      <contour>
        <pt x="209" y="219" on="1"/>
        <pt x="173" y="219" on="0"/>
        <pt x="128" y="180" on="0"/>
        <pt x="128" y="139" on="1"/>
        <pt x="128" y="57" on="0"/>
        <pt x="199" y="57" on="1"/>
        <pt x="227" y="57" on="0"/>
        <pt x="285" y="85" on="0"/>
        <pt x="301" y="104" on="1"/>
        <pt x="306" y="167" on="0"/>
        <pt x="306" y="184" on="1"/>
        <pt x="265" y="219" on="0"/>
      </contour>
      <contour>
        <pt x="388" y="345" on="1"/>
        <pt x="384" y="201" on="1"/>
        <pt x="384" y="118" on="0"/>
        <pt x="401" y="3" on="1"/>
        <pt x="371" y="-6" on="0"/>
        <pt x="327" y="-6" on="0"/>
        <pt x="307" y="-4" on="1"/>
        <pt x="304" y="44" on="1"/>
        <pt x="228" y="-15" on="0"/>
        <pt x="111" y="-15" on="0"/>
        <pt x="50" y="60" on="0"/>
        <pt x="50" y="199" on="0"/>
        <pt x="141" y="271" on="0"/>
        <pt x="265" y="271" on="0"/>
        <pt x="310" y="247" on="1"/>
        <pt x="311" y="267" on="0"/>
        <pt x="311" y="315" on="0"/>
        <pt x="308" y="351" on="0"/>
        <pt x="300" y="375" on="1"/>
        <pt x="286" y="422" on="0"/>
        <pt x="227" y="422" on="1"/>
        <pt x="153" y="422" on="0"/>
        <pt x="153" y="341" on="1"/>
        <pt x="154" y="324" on="1"/>
        <pt x="132" y="322" on="0"/>
        <pt x="94" y="322" on="0"/>
        <pt x="68" y="330" on="1"/>
        <pt x="66" y="346" on="0"/>
        <pt x="66" y="353" on="1"/>
        <pt x="66" y="416" on="0"/>
        <pt x="158" y="478" on="0"/>
        <pt x="305" y="478" on="0"/>
        <pt x="388" y="411" on="0"/>
      </contour>
      <contour>
        <pt x="277" y="528" on="1"/>
        <pt x="153" y="579" on="0"/>
        <pt x="93" y="603" on="1"/>
        <pt x="94" y="631" on="0"/>
        <pt x="112" y="664" on="0"/>
        <pt x="133" y="682" on="1"/>
        <pt x="179" y="643" on="0"/>
        <pt x="278" y="578" on="0"/>
        <pt x="297" y="565" on="1"/>
        <pt x="292" y="544" on="0"/>
      </contour>
    </TTGlyph>
    <TTGlyph name="ampersand" xMin="50" yMin="-15" xMax="574" yMax="655">
      <contour>
        <pt x="73" y="563" on="0"/>
        <pt x="181" y="655" on="0"/>
        <pt x="313" y="655" on="0"/>
        <pt x="404" y="591" on="0"/>
        <pt x="404" y="530" on="1"/>
        <pt x="404" y="523" on="0"/>
        <pt x="402" y="507" on="1"/>
        <pt x="376" y="499" on="0"/>
        <pt x="335" y="499" on="0"/>
        <pt x="311" y="501" on="1"/>
        <pt x="312" y="508" on="0"/>
        <pt x="312" y="520" on="1"/>
        <pt x="312" y="554" on="0"/>
        <pt x="278" y="599" on="0"/>
        <pt x="204" y="599" on="0"/>
        <pt x="156" y="519" on="0"/>
        <pt x="156" y="477" on="1"/>
        <pt x="156" y="403" on="0"/>
        <pt x="240" y="352" on="0"/>
        <pt x="342" y="352" on="1"/>
        <pt x="375" y="352" on="0"/>
        <pt x="393" y="353" on="1"/>
        <pt x="388" y="426" on="1"/>
        <pt x="413" y="434" on="0"/>
        <pt x="468" y="434" on="0"/>
        <pt x="486" y="430" on="1"/>
        <pt x="477" y="352" on="1"/>
        <pt x="498" y="353" on="0"/>
        <pt x="568" y="357" on="1"/>
        <pt x="574" y="343" on="0"/>
        <pt x="574" y="313" on="0"/>
        <pt x="570" y="291" on="1"/>
        <pt x="532" y="292" on="0"/>
        <pt x="473" y="296" on="1"/>
        <pt x="471" y="277" on="0"/>
        <pt x="471" y="238" on="1"/>
        <pt x="471" y="51" on="1"/>
        <pt x="402" y="-15" on="0"/>
        <pt x="161" y="-15" on="0"/>
        <pt x="50" y="88" on="0"/>
        <pt x="50" y="173" on="1"/>
        <pt x="50" y="289" on="0"/>
        <pt x="163" y="332" on="1"/>
        <pt x="73" y="369" on="0"/>
        <pt x="73" y="480" on="1"/>
      </contour>
      <contour>
        <pt x="395" y="93" on="1"/>
        <pt x="397" y="275" on="1"/>
        <pt x="397" y="295" on="1"/>
        <pt x="333" y="297" on="0"/>
        <pt x="311" y="297" on="1"/>
        <pt x="214" y="297" on="0"/>
        <pt x="137" y="247" on="0"/>
        <pt x="137" y="173" on="1"/>
        <pt x="137" y="120" on="0"/>
        <pt x="207" y="49" on="0"/>
        <pt x="345" y="49" on="0"/>
      </contour>
    </TTGlyph>
    <TTGlyph name="approxequal" xMin="84" yMin="174" xMax="518" yMax="491">
      <contour>
        <pt x="502" y="388" on="1"/>
        <pt x="477" y="421" on="0"/>
        <pt x="387" y="421" on="0"/>
        <pt x="215" y="364" on="0"/>
        <pt x="120" y="364" on="0"/>
        <pt x="84" y="391" on="1"/>
        <pt x="84" y="430" on="0"/>
        <pt x="98" y="467" on="1"/>
        <pt x="123" y="434" on="0"/>
        <pt x="214" y="434" on="0"/>
        <pt x="387" y="491" on="0"/>
        <pt x="482" y="491" on="0"/>
        <pt x="518" y="464" on="1"/>
        <pt x="518" y="430" on="0"/>
      </contour>
      <contour>
        <pt x="502" y="198" on="1"/>
        <pt x="477" y="231" on="0"/>
        <pt x="387" y="231" on="0"/>
        <pt x="215" y="174" on="0"/>
        <pt x="120" y="174" on="0"/>
        <pt x="84" y="201" on="1"/>
        <pt x="84" y="240" on="0"/>
        <pt x="98" y="277" on="1"/>
        <pt x="123" y="244" on="0"/>
        <pt x="214" y="244" on="0"/>
        <pt x="387" y="301" on="0"/>
        <pt x="482" y="301" on="0"/>
        <pt x="518" y="274" on="1"/>
        <pt x="518" y="240" on="0"/>
      </contour>
    </TTGlyph>
    <TTGlyph name="aring" xMin="50" yMin="-15" xMax="401" yMax="693">
      <contour>
        <pt x="209" y="219" on="1"/>
        <pt x="173" y="219" on="0"/>
        <pt x="128" y="180" on="0"/>
        <pt x="128" y="139" on="1"/>
        <pt x="128" y="57" on="0"/>
        <pt x="199" y="57" on="1"/>
        <pt x="227" y="57" on="0"/>
        <pt x="285" y="85" on="0"/>
        <pt x="301" y="104" on="1"/>
        <pt x="306" y="167" on="0"/>
        <pt x="306" y="184" on="1"/>
        <pt x="265" y="219" on="0"/>
      </contour>
      <contour>
        <pt x="388" y="345" on="1"/>
        <pt x="384" y="201" on="1"/>
        <pt x="384" y="118" on="0"/>
        <pt x="401" y="3" on="1"/>
        <pt x="371" y="-6" on="0"/>
        <pt x="327" y="-6" on="0"/>
        <pt x="307" y="-4" on="1"/>
        <pt x="304" y="44" on="1"/>
        <pt x="228" y="-15" on="0"/>
        <pt x="111" y="-15" on="0"/>
        <pt x="50" y="60" on="0"/>
        <pt x="50" y="199" on="0"/>
        <pt x="141" y="271" on="0"/>
        <pt x="265" y="271" on="0"/>
        <pt x="310" y="247" on="1"/>
        <pt x="311" y="267" on="0"/>
        <pt x="311" y="315" on="0"/>
        <pt x="308" y="351" on="0"/>
        <pt x="300" y="375" on="1"/>
        <pt x="286" y="422" on="0"/>
        <pt x="227" y="422" on="1"/>
        <pt x="153" y="422" on="0"/>
        <pt x="153" y="341" on="1"/>
        <pt x="154" y="324" on="1"/>
        <pt x="132" y="322" on="0"/>
        <pt x="94" y="322" on="0"/>
        <pt x="68" y="330" on="1"/>
        <pt x="66" y="346" on="0"/>
        <pt x="66" y="353" on="1"/>
        <pt x="66" y="416" on="0"/>
        <pt x="158" y="478" on="0"/>
        <pt x="305" y="478" on="0"/>
        <pt x="388" y="411" on="0"/>
      </contour>
      <contour>
        <pt x="280" y="693" on="0"/>
        <pt x="314" y="654" on="0"/>
        <pt x="314" y="573" on="0"/>
        <pt x="271" y="527" on="0"/>
        <pt x="225" y="527" on="1"/>
        <pt x="150" y="527" on="0"/>
        <pt x="150" y="693" on="0"/>
        <pt x="239" y="693" on="1"/>
      </contour>
      <contour>
        <pt x="237" y="656" on="1"/>
        <pt x="189" y="656" on="0"/>
        <pt x="189" y="611" on="1"/>
        <pt x="189" y="585" on="0"/>
        <pt x="207" y="564" on="0"/>
        <pt x="227" y="564" on="1"/>
        <pt x="275" y="564" on="0"/>
        <pt x="275" y="612" on="1"/>
        <pt x="275" y="656" on="0"/>
      </contour>
    </TTGlyph>
    <TTGlyph name="asciicircum" xMin="80" yMin="299" xMax="462" yMax="628">
      <contour>
        <pt x="229" y="622" on="1"/>
        <pt x="241" y="628" on="0"/>
        <pt x="300" y="628" on="0"/>
        <pt x="313" y="622" on="1"/>
        <pt x="336" y="563" on="0"/>
        <pt x="395" y="453" on="1"/>
        <pt x="444" y="354" on="0"/>
        <pt x="462" y="329" on="1"/>
        <pt x="455" y="323" on="0"/>
        <pt x="413" y="301" on="0"/>
        <pt x="398" y="299" on="1"/>
        <pt x="370" y="367" on="0"/>
        <pt x="343" y="415" on="1"/>
        <pt x="285" y="524" on="0"/>
        <pt x="271" y="547" on="1"/>
        <pt x="195" y="418" on="0"/>
        <pt x="144" y="299" on="1"/>
        <pt x="129" y="301" on="0"/>
        <pt x="87" y="323" on="0"/>
        <pt x="80" y="329" on="1"/>
        <pt x="100" y="359" on="0"/>
        <pt x="147" y="453" on="1"/>
        <pt x="206" y="563" on="0"/>
      </contour>
    </TTGlyph>
    <TTGlyph name="asciitilde" xMin="84" yMin="264" xMax="518" yMax="391">
      <contour>
        <pt x="502" y="288" on="1"/>
        <pt x="477" y="321" on="0"/>
        <pt x="387" y="321" on="0"/>
        <pt x="215" y="264" on="0"/>
        <pt x="120" y="264" on="0"/>
        <pt x="84" y="291" on="1"/>
        <pt x="84" y="330" on="0"/>
        <pt x="98" y="367" on="1"/>
        <pt x="123" y="334" on="0"/>
        <pt x="214" y="334" on="0"/>
        <pt x="387" y="391" on="0"/>
        <pt x="482" y="391" on="0"/>
        <pt x="518" y="364" on="1"/>
        <pt x="518" y="330" on="0"/>
      </contour>
    </TTGlyph>
    <TTGlyph name="asterisk" xMin="38" yMin="363" xMax="358" yMax="675">
      <contour>
        <pt x="158" y="670" on="1"/>
        <pt x="179" y="675" on="0"/>
        <pt x="228" y="675" on="0"/>
        <pt x="237" y="670" on="1"/>
        <pt x="230" y="615" on="0"/>
        <pt x="228" y="555" on="1"/>
        <pt x="283" y="575" on="0"/>
        <pt x="335" y="601" on="1"/>
        <pt x="339" y="594" on="0"/>
        <pt x="357" y="551" on="0"/>
        <pt x="358" y="525" on="1"/>
        <pt x="300" y="518" on="0"/>
        <pt x="241" y="499" on="1"/>
        <pt x="280" y="448" on="0"/>
        <pt x="321" y="410" on="1"/>
        <pt x="278" y="367" on="0"/>
        <pt x="257" y="363" on="1"/>
        <pt x="221" y="432" on="0"/>
        <pt x="196" y="465" on="1"/>
        <pt x="168" y="426" on="0"/>
        <pt x="138" y="365" on="1"/>
        <pt x="110" y="377" on="0"/>
        <pt x="76" y="402" on="0"/>
        <pt x="73" y="409" on="1"/>
        <pt x="119" y="457" on="0"/>
        <pt x="150" y="500" on="1"/>
        <pt x="98" y="517" on="0"/>
        <pt x="38" y="525" on="1"/>
        <pt x="39" y="551" on="0"/>
        <pt x="58" y="597" on="0"/>
        <pt x="61" y="601" on="1"/>
        <pt x="115" y="573" on="0"/>
        <pt x="171" y="554" on="1"/>
        <pt x="170" y="602" on="0"/>
      </contour>
    </TTGlyph>
    <TTGlyph name="at" xMin="76" yMin="-137" xMax="814" yMax="635">
      <contour>
        <pt x="557" y="-34" on="1"/>
        <pt x="561" y="-42" on="0"/>
        <pt x="561" y="-90" on="0"/>
        <pt x="553" y="-112" on="1"/>
        <pt x="481" y="-137" on="0"/>
        <pt x="375" y="-137" on="1"/>
        <pt x="227" y="-137" on="0"/>
        <pt x="76" y="18" on="0"/>
        <pt x="76" y="170" on="1"/>
        <pt x="76" y="393" on="0"/>
        <pt x="293" y="635" on="0"/>
        <pt x="493" y="635" on="1"/>
        <pt x="649" y="635" on="0"/>
        <pt x="814" y="474" on="0"/>
        <pt x="814" y="322" on="1"/>
        <pt x="814" y="204" on="0"/>
        <pt x="674" y="30" on="0"/>
        <pt x="578" y="30" on="1"/>
        <pt x="533" y="30" on="0"/>
        <pt x="519" y="97" on="1"/>
        <pt x="444" y="30" on="0"/>
        <pt x="374" y="30" on="1"/>
        <pt x="322" y="30" on="0"/>
        <pt x="267" y="113" on="0"/>
        <pt x="267" y="191" on="1"/>
        <pt x="267" y="318" on="0"/>
        <pt x="373" y="473" on="0"/>
        <pt x="548" y="473" on="0"/>
        <pt x="631" y="450" on="1"/>
        <pt x="588" y="268" on="0"/>
        <pt x="588" y="142" on="1"/>
        <pt x="588" y="91" on="0"/>
        <pt x="617" y="91" on="1"/>
        <pt x="661" y="91" on="0"/>
        <pt x="736" y="235" on="0"/>
        <pt x="736" y="319" on="1"/>
        <pt x="736" y="450" on="0"/>
        <pt x="615" y="575" on="0"/>
        <pt x="487" y="575" on="1"/>
        <pt x="327" y="575" on="0"/>
        <pt x="158" y="368" on="0"/>
        <pt x="158" y="173" on="1"/>
        <pt x="158" y="-73" on="0"/>
        <pt x="364" y="-73" on="1"/>
        <pt x="443" y="-73" on="0"/>
      </contour>
      <contour>
        <pt x="504" y="423" on="0"/>
        <pt x="406" y="423" on="0"/>
        <pt x="344" y="297" on="0"/>
        <pt x="344" y="99" on="0"/>
        <pt x="408" y="99" on="1"/>
        <pt x="432" y="99" on="0"/>
        <pt x="493" y="129" on="0"/>
        <pt x="517" y="153" on="1"/>
        <pt x="521" y="183" on="0"/>
        <pt x="546" y="402" on="1"/>
      </contour>
    </TTGlyph>
    <TTGlyph name="atilde" xMin="50" yMin="-15" xMax="401" yMax="650">
      <contour>
        <pt x="209" y="219" on="1"/>
        <pt x="173" y="219" on="0"/>
        <pt x="128" y="180" on="0"/>
        <pt x="128" y="139" on="1"/>
        <pt x="128" y="57" on="0"/>
        <pt x="199" y="57" on="1"/>
        <pt x="227" y="57" on="0"/>
        <pt x="285" y="85" on="0"/>
        <pt x="301" y="104" on="1"/>
        <pt x="306" y="167" on="0"/>
        <pt x="306" y="184" on="1"/>
        <pt x="265" y="219" on="0"/>
      </contour>
      <contour>
        <pt x="388" y="345" on="1"/>
        <pt x="384" y="201" on="1"/>
        <pt x="384" y="118" on="0"/>
        <pt x="401" y="3" on="1"/>
        <pt x="371" y="-6" on="0"/>
        <pt x="327" y="-6" on="0"/>
        <pt x="307" y="-4" on="1"/>
        <pt x="304" y="44" on="1"/>
        <pt x="228" y="-15" on="0"/>
        <pt x="111" y="-15" on="0"/>
        <pt x="50" y="60" on="0"/>
        <pt x="50" y="199" on="0"/>
        <pt x="141" y="271" on="0"/>
        <pt x="265" y="271" on="0"/>
        <pt x="310" y="247" on="1"/>
        <pt x="311" y="267" on="0"/>
        <pt x="311" y="315" on="0"/>
        <pt x="308" y="351" on="0"/>
        <pt x="300" y="375" on="1"/>
        <pt x="286" y="422" on="0"/>
        <pt x="227" y="422" on="1"/>
        <pt x="153" y="422" on="0"/>
        <pt x="153" y="341" on="1"/>
        <pt x="154" y="324" on="1"/>
        <pt x="132" y="322" on="0"/>
        <pt x="94" y="322" on="0"/>
        <pt x="68" y="330" on="1"/>
        <pt x="66" y="346" on="0"/>
        <pt x="66" y="353" on="1"/>
        <pt x="66" y="416" on="0"/>
        <pt x="158" y="478" on="0"/>
        <pt x="305" y="478" on="0"/>
        <pt x="388" y="411" on="0"/>
      </contour>
      <contour>
        <pt x="96" y="598" on="0"/>
        <pt x="154" y="643" on="0"/>
        <pt x="206" y="643" on="0"/>
        <pt x="269" y="610" on="0"/>
        <pt x="286" y="610" on="1"/>
        <pt x="311" y="610" on="0"/>
        <pt x="336" y="650" on="1"/>
        <pt x="363" y="638" on="0"/>
        <pt x="370" y="617" on="1"/>
        <pt x="356" y="590" on="0"/>
        <pt x="298" y="544" on="0"/>
        <pt x="245" y="544" on="0"/>
        <pt x="182" y="577" on="0"/>
        <pt x="139" y="577" on="0"/>
        <pt x="114" y="537" on="1"/>
        <pt x="89" y="549" on="0"/>
        <pt x="82" y="570" on="1"/>
      </contour>
    </TTGlyph>
    <TTGlyph name="b" xMin="54" yMin="-15" xMax="431" yMax="682">
      <contour>
        <pt x="57" y="11" on="1"/>
        <pt x="72" y="147" on="0"/>
        <pt x="72" y="482" on="0"/>
        <pt x="65" y="616" on="0"/>
        <pt x="54" y="672" on="1"/>
        <pt x="80" y="682" on="0"/>
        <pt x="132" y="682" on="0"/>
        <pt x="160" y="680" on="1"/>
        <pt x="145" y="552" on="0"/>
        <pt x="145" y="410" on="1"/>
        <pt x="215" y="478" on="0"/>
        <pt x="356" y="478" on="0"/>
        <pt x="431" y="364" on="0"/>
        <pt x="431" y="258" on="1"/>
        <pt x="431" y="117" on="0"/>
        <pt x="334" y="-15" on="0"/>
        <pt x="230" y="-15" on="1"/>
        <pt x="165" y="-15" on="0"/>
      </contour>
      <contour>
        <pt x="346" y="271" on="1"/>
        <pt x="346" y="414" on="0"/>
        <pt x="261" y="414" on="1"/>
        <pt x="202" y="414" on="0"/>
        <pt x="145" y="349" on="1"/>
        <pt x="145" y="80" on="1"/>
        <pt x="192" y="57" on="0"/>
        <pt x="242" y="57" on="1"/>
        <pt x="346" y="57" on="0"/>
      </contour>
    </TTGlyph>
    <TTGlyph name="backslash" xMin="96" yMin="-46" xMax="485" yMax="688">
      <contour>
        <pt x="96" y="670" on="1"/>
        <pt x="125" y="688" on="0"/>
        <pt x="178" y="688" on="0"/>
        <pt x="187" y="687" on="1"/>
        <pt x="333" y="280" on="0"/>
        <pt x="485" y="-27" on="1"/>
        <pt x="458" y="-46" on="0"/>
        <pt x="419" y="-46" on="1"/>
        <pt x="412" y="-46" on="0"/>
        <pt x="394" y="-44" on="1"/>
        <pt x="244" y="378" on="0"/>
      </contour>
    </TTGlyph>
    <TTGlyph name="bar" xMin="90" yMin="-88" xMax="173" yMax="729">
      <contour>
        <pt x="93" y="-85" on="1"/>
        <pt x="103" y="56" on="0"/>
        <pt x="103" y="600" on="0"/>
        <pt x="90" y="717" on="1"/>
        <pt x="116" y="729" on="0"/>
        <pt x="150" y="729" on="0"/>
        <pt x="170" y="726" on="1"/>
        <pt x="160" y="589" on="0"/>
        <pt x="160" y="-14" on="0"/>
        <pt x="173" y="-76" on="1"/>
        <pt x="144" y="-88" on="0"/>
        <pt x="108" y="-88" on="0"/>
      </contour>
    </TTGlyph>
    <TTGlyph name="braceleft" xMin="30" yMin="-71" xMax="324" yMax="731">
      <contour>
        <pt x="178" y="588" on="1"/>
        <pt x="190" y="439" on="1"/>
        <pt x="190" y="400" on="0"/>
        <pt x="156" y="337" on="0"/>
        <pt x="126" y="333" on="1"/>
        <pt x="126" y="327" on="1"/>
        <pt x="156" y="323" on="0"/>
        <pt x="190" y="260" on="0"/>
        <pt x="190" y="221" on="1"/>
        <pt x="178" y="72" on="1"/>
        <pt x="178" y="34" on="0"/>
        <pt x="200" y="6" on="0"/>
        <pt x="266" y="6" on="0"/>
        <pt x="316" y="17" on="1"/>
        <pt x="324" y="-9" on="0"/>
        <pt x="324" y="-53" on="0"/>
        <pt x="320" y="-71" on="1"/>
        <pt x="274" y="-59" on="0"/>
        <pt x="143" y="-59" on="0"/>
        <pt x="98" y="0" on="0"/>
        <pt x="98" y="53" on="1"/>
        <pt x="109" y="205" on="1"/>
        <pt x="109" y="247" on="0"/>
        <pt x="79" y="297" on="0"/>
        <pt x="37" y="303" on="1"/>
        <pt x="30" y="313" on="0"/>
        <pt x="30" y="347" on="0"/>
        <pt x="37" y="357" on="1"/>
        <pt x="79" y="363" on="0"/>
        <pt x="109" y="413" on="0"/>
        <pt x="109" y="455" on="1"/>
        <pt x="98" y="607" on="1"/>
        <pt x="98" y="660" on="0"/>
        <pt x="143" y="719" on="0"/>
        <pt x="274" y="719" on="0"/>
        <pt x="320" y="731" on="1"/>
        <pt x="324" y="713" on="0"/>
        <pt x="324" y="669" on="0"/>
        <pt x="316" y="643" on="1"/>
        <pt x="266" y="654" on="0"/>
        <pt x="200" y="654" on="0"/>
        <pt x="178" y="626" on="0"/>
      </contour>
    </TTGlyph>
    <TTGlyph name="braceright" xMin="20" yMin="-71" xMax="314" yMax="731">
      <contour>
        <pt x="166" y="72" on="1"/>
        <pt x="154" y="221" on="1"/>
        <pt x="154" y="260" on="0"/>
        <pt x="188" y="323" on="0"/>
        <pt x="218" y="327" on="1"/>
        <pt x="218" y="333" on="1"/>
        <pt x="188" y="337" on="0"/>
        <pt x="154" y="400" on="0"/>
        <pt x="154" y="439" on="1"/>
        <pt x="166" y="588" on="1"/>
        <pt x="166" y="626" on="0"/>
        <pt x="144" y="654" on="0"/>
        <pt x="78" y="654" on="0"/>
        <pt x="28" y="643" on="1"/>
        <pt x="20" y="669" on="0"/>
        <pt x="20" y="713" on="0"/>
        <pt x="24" y="731" on="1"/>
        <pt x="70" y="719" on="0"/>
        <pt x="201" y="719" on="0"/>
        <pt x="246" y="660" on="0"/>
        <pt x="246" y="607" on="1"/>
        <pt x="235" y="455" on="1"/>
        <pt x="235" y="413" on="0"/>
        <pt x="265" y="363" on="0"/>
        <pt x="307" y="357" on="1"/>
        <pt x="314" y="347" on="0"/>
        <pt x="314" y="313" on="0"/>
        <pt x="307" y="303" on="1"/>
        <pt x="265" y="297" on="0"/>
        <pt x="235" y="247" on="0"/>
        <pt x="235" y="205" on="1"/>
        <pt x="246" y="53" on="1"/>
        <pt x="246" y="0" on="0"/>
        <pt x="201" y="-59" on="0"/>
        <pt x="70" y="-59" on="0"/>
        <pt x="24" y="-71" on="1"/>
        <pt x="20" y="-53" on="0"/>
        <pt x="20" y="-9" on="0"/>
        <pt x="28" y="17" on="1"/>
        <pt x="78" y="6" on="0"/>
        <pt x="144" y="6" on="0"/>
        <pt x="166" y="34" on="0"/>
      </contour>
    </TTGlyph>
    <TTGlyph name="bracketleft" xMin="75" yMin="-72" xMax="309" yMax="731">
      <contour>
        <pt x="301" y="16" on="1"/>
        <pt x="309" y="-10" on="0"/>
        <pt x="309" y="-54" on="0"/>
        <pt x="305" y="-72" on="1"/>
        <pt x="259" y="-60" on="0"/>
        <pt x="123" y="-60" on="0"/>
        <pt x="75" y="-65" on="1"/>
        <pt x="91" y="69" on="0"/>
        <pt x="91" y="625" on="0"/>
        <pt x="75" y="724" on="1"/>
        <pt x="123" y="719" on="0"/>
        <pt x="259" y="719" on="0"/>
        <pt x="305" y="731" on="1"/>
        <pt x="309" y="713" on="0"/>
        <pt x="309" y="669" on="0"/>
        <pt x="301" y="643" on="1"/>
        <pt x="254" y="651" on="0"/>
        <pt x="175" y="651" on="1"/>
        <pt x="169" y="588" on="0"/>
        <pt x="169" y="67" on="0"/>
        <pt x="175" y="8" on="1"/>
        <pt x="254" y="8" on="0"/>
      </contour>
    </TTGlyph>
    <TTGlyph name="bracketright" xMin="20" yMin="-72" xMax="254" yMax="731">
      <contour>
        <pt x="28" y="643" on="1"/>
        <pt x="20" y="669" on="0"/>
        <pt x="20" y="713" on="0"/>
        <pt x="24" y="731" on="1"/>
        <pt x="70" y="719" on="0"/>
        <pt x="206" y="719" on="0"/>
        <pt x="254" y="724" on="1"/>
        <pt x="238" y="590" on="0"/>
        <pt x="238" y="34" on="0"/>
        <pt x="254" y="-65" on="1"/>
        <pt x="206" y="-60" on="0"/>
        <pt x="70" y="-60" on="0"/>
        <pt x="24" y="-72" on="1"/>
        <pt x="20" y="-54" on="0"/>
        <pt x="20" y="-10" on="0"/>
        <pt x="28" y="16" on="1"/>
        <pt x="75" y="8" on="0"/>
        <pt x="154" y="8" on="1"/>
        <pt x="160" y="71" on="0"/>
        <pt x="160" y="592" on="0"/>
        <pt x="154" y="651" on="1"/>
        <pt x="75" y="651" on="0"/>
      </contour>
    </TTGlyph>
    <TTGlyph name="breve" xMin="110" yMin="528" xMax="364" yMax="672">
      <contour>
        <pt x="199" y="599" on="0"/>
        <pt x="275" y="599" on="0"/>
        <pt x="319" y="636" on="0"/>
        <pt x="336" y="672" on="1"/>
        <pt x="359" y="660" on="0"/>
        <pt x="364" y="635" on="1"/>
        <pt x="348" y="591" on="0"/>
        <pt x="281" y="528" on="0"/>
        <pt x="193" y="528" on="0"/>
        <pt x="126" y="591" on="0"/>
        <pt x="110" y="635" on="1"/>
        <pt x="115" y="660" on="0"/>
        <pt x="138" y="672" on="1"/>
        <pt x="156" y="636" on="0"/>
      </contour>
    </TTGlyph>
    <TTGlyph name="brokenbar" xMin="90" yMin="-88" xMax="173" yMax="729">
      <contour>
        <pt x="173" y="-76" on="1"/>
        <pt x="142" y="-88" on="0"/>
        <pt x="108" y="-88" on="0"/>
        <pt x="93" y="-85" on="1"/>
        <pt x="103" y="56" on="0"/>
        <pt x="103" y="251" on="1"/>
        <pt x="130" y="258" on="0"/>
        <pt x="154" y="258" on="0"/>
        <pt x="160" y="257" on="1"/>
        <pt x="160" y="-14" on="0"/>
      </contour>
      <contour>
        <pt x="90" y="717" on="1"/>
        <pt x="115" y="729" on="0"/>
        <pt x="155" y="729" on="0"/>
        <pt x="170" y="726" on="1"/>
        <pt x="160" y="585" on="0"/>
        <pt x="160" y="390" on="1"/>
        <pt x="133" y="383" on="0"/>
        <pt x="108" y="383" on="0"/>
        <pt x="103" y="384" on="1"/>
        <pt x="103" y="655" on="0"/>
      </contour>
    </TTGlyph>
    <TTGlyph name="bullet" xMin="60" yMin="237" xMax="242" yMax="419">
      <contour>
        <pt x="242" y="335" on="1"/>
        <pt x="242" y="292" on="0"/>
        <pt x="192" y="237" on="0"/>
        <pt x="140" y="237" on="1"/>
        <pt x="60" y="237" on="0"/>
        <pt x="60" y="318" on="1"/>
        <pt x="60" y="419" on="0"/>
        <pt x="162" y="419" on="1"/>
        <pt x="242" y="419" on="0"/>
      </contour>
    </TTGlyph>
    <TTGlyph name="c" xMin="45" yMin="-15" xMax="390" yMax="478">
      <contour>
        <pt x="229" y="478" on="1"/>
        <pt x="293" y="478" on="0"/>
        <pt x="384" y="414" on="0"/>
        <pt x="384" y="353" on="1"/>
        <pt x="384" y="346" on="0"/>
        <pt x="382" y="330" on="1"/>
        <pt x="356" y="322" on="0"/>
        <pt x="318" y="322" on="0"/>
        <pt x="296" y="324" on="1"/>
        <pt x="297" y="331" on="0"/>
        <pt x="297" y="343" on="1"/>
        <pt x="297" y="376" on="0"/>
        <pt x="258" y="422" on="0"/>
        <pt x="222" y="422" on="1"/>
        <pt x="127" y="422" on="0"/>
        <pt x="127" y="57" on="0"/>
        <pt x="231" y="57" on="1"/>
        <pt x="281" y="57" on="0"/>
        <pt x="353" y="119" on="1"/>
        <pt x="382" y="89" on="0"/>
        <pt x="390" y="40" on="1"/>
        <pt x="307" y="-15" on="0"/>
        <pt x="224" y="-15" on="1"/>
        <pt x="123" y="-15" on="0"/>
        <pt x="45" y="122" on="0"/>
        <pt x="45" y="347" on="0"/>
        <pt x="131" y="478" on="0"/>
      </contour>
    </TTGlyph>
    <TTGlyph name="caron" xMin="110" yMin="518" xMax="378" yMax="672">
      <contour>
        <pt x="130" y="672" on="1"/>
        <pt x="130" y="672" on="0"/>
        <pt x="244" y="609" on="1"/>
        <pt x="277" y="627" on="0"/>
        <pt x="358" y="672" on="1"/>
        <pt x="374" y="654" on="0"/>
        <pt x="378" y="635" on="1"/>
        <pt x="360" y="620" on="0"/>
        <pt x="330" y="596" on="1"/>
        <pt x="270" y="545" on="0"/>
        <pt x="244" y="518" on="1"/>
        <pt x="218" y="545" on="0"/>
        <pt x="128" y="620" on="0"/>
        <pt x="110" y="635" on="1"/>
        <pt x="115" y="656" on="0"/>
      </contour>
    </TTGlyph>
    <TTGlyph name="caron.case" xMin="96" yMin="694" xMax="389" yMax="835">
      <contour>
        <pt x="112" y="835" on="1"/>
        <pt x="180" y="814" on="0"/>
        <pt x="239" y="783" on="1"/>
        <pt x="326" y="823" on="0"/>
        <pt x="374" y="835" on="1"/>
        <pt x="386" y="817" on="0"/>
        <pt x="389" y="796" on="1"/>
        <pt x="356" y="777" on="0"/>
        <pt x="332" y="763" on="1"/>
        <pt x="277" y="732" on="0"/>
        <pt x="239" y="694" on="1"/>
        <pt x="195" y="736" on="0"/>
        <pt x="96" y="797" on="1"/>
        <pt x="99" y="818" on="0"/>
      </contour>
    </TTGlyph>
    <TTGlyph name="ccedilla" xMin="45" yMin="-210" xMax="390" yMax="478">
      <contour>
        <pt x="229" y="478" on="1"/>
        <pt x="293" y="478" on="0"/>
        <pt x="384" y="414" on="0"/>
        <pt x="384" y="353" on="1"/>
        <pt x="384" y="346" on="0"/>
        <pt x="382" y="330" on="1"/>
        <pt x="356" y="322" on="0"/>
        <pt x="318" y="322" on="0"/>
        <pt x="296" y="324" on="1"/>
        <pt x="297" y="331" on="0"/>
        <pt x="297" y="343" on="1"/>
        <pt x="297" y="376" on="0"/>
        <pt x="258" y="422" on="0"/>
        <pt x="222" y="422" on="1"/>
        <pt x="127" y="422" on="0"/>
        <pt x="127" y="57" on="0"/>
        <pt x="231" y="57" on="1"/>
        <pt x="281" y="57" on="0"/>
        <pt x="353" y="119" on="1"/>
        <pt x="382" y="89" on="0"/>
        <pt x="390" y="40" on="1"/>
        <pt x="309" y="-13" on="0"/>
        <pt x="229" y="-15" on="1"/>
        <pt x="231" y="-54" on="1"/>
        <pt x="332" y="-58" on="0"/>
        <pt x="332" y="-124" on="1"/>
        <pt x="332" y="-210" on="0"/>
        <pt x="221" y="-210" on="1"/>
        <pt x="176" y="-210" on="0"/>
        <pt x="147" y="-198" on="1"/>
        <pt x="146" y="-195" on="0"/>
        <pt x="146" y="-164" on="0"/>
        <pt x="159" y="-144" on="1"/>
        <pt x="181" y="-164" on="0"/>
        <pt x="264" y="-164" on="0"/>
        <pt x="264" y="-125" on="1"/>
        <pt x="264" y="-95" on="0"/>
        <pt x="219" y="-95" on="1"/>
        <pt x="199" y="-95" on="0"/>
        <pt x="171" y="-99" on="1"/>
        <pt x="186" y="-12" on="1"/>
        <pt x="107" y="1" on="0"/>
        <pt x="45" y="134" on="0"/>
        <pt x="45" y="347" on="0"/>
        <pt x="131" y="478" on="0"/>
      </contour>
    </TTGlyph>
    <TTGlyph name="cedilla" xMin="151" yMin="-210" xMax="337" yMax="-1">
      <contour>
        <pt x="337" y="-124" on="1"/>
        <pt x="337" y="-210" on="0"/>
        <pt x="226" y="-210" on="1"/>
        <pt x="181" y="-210" on="0"/>
        <pt x="152" y="-198" on="1"/>
        <pt x="151" y="-195" on="0"/>
        <pt x="151" y="-164" on="0"/>
        <pt x="164" y="-144" on="1"/>
        <pt x="186" y="-164" on="0"/>
        <pt x="269" y="-164" on="0"/>
        <pt x="269" y="-125" on="1"/>
        <pt x="269" y="-95" on="0"/>
        <pt x="224" y="-95" on="1"/>
        <pt x="204" y="-95" on="0"/>
        <pt x="176" y="-99" on="1"/>
        <pt x="192" y="-10" on="1"/>
        <pt x="234" y="-1" on="1"/>
        <pt x="236" y="-54" on="1"/>
        <pt x="337" y="-58" on="0"/>
      </contour>
    </TTGlyph>
    <TTGlyph name="cent" xMin="40" yMin="-8" xMax="430" yMax="645">
      <contour>
        <pt x="262" y="213" on="1"/>
        <pt x="262" y="136" on="1"/>
        <pt x="337" y="139" on="0"/>
        <pt x="393" y="198" on="1"/>
        <pt x="422" y="168" on="0"/>
        <pt x="430" y="119" on="1"/>
        <pt x="356" y="64" on="0"/>
        <pt x="265" y="64" on="1"/>
        <pt x="267" y="15" on="0"/>
        <pt x="270" y="5" on="1"/>
        <pt x="243" y="-8" on="0"/>
        <pt x="194" y="-8" on="0"/>
        <pt x="179" y="-5" on="1"/>
        <pt x="187" y="73" on="1"/>
        <pt x="40" y="111" on="0"/>
        <pt x="40" y="311" on="1"/>
        <pt x="40" y="403" on="0"/>
        <pt x="120" y="532" on="0"/>
        <pt x="205" y="550" on="1"/>
        <pt x="202" y="598" on="0"/>
        <pt x="199" y="632" on="1"/>
        <pt x="221" y="645" on="0"/>
        <pt x="261" y="645" on="1"/>
        <pt x="270" y="645" on="0"/>
        <pt x="290" y="642" on="1"/>
        <pt x="287" y="625" on="0"/>
        <pt x="280" y="557" on="1"/>
        <pt x="340" y="554" on="0"/>
        <pt x="424" y="490" on="0"/>
        <pt x="424" y="432" on="1"/>
        <pt x="424" y="425" on="0"/>
        <pt x="422" y="409" on="1"/>
        <pt x="396" y="401" on="0"/>
        <pt x="353" y="401" on="0"/>
        <pt x="331" y="403" on="1"/>
        <pt x="332" y="410" on="0"/>
        <pt x="332" y="453" on="0"/>
        <pt x="304" y="496" on="0"/>
        <pt x="274" y="500" on="1"/>
        <pt x="262" y="375" on="0"/>
      </contour>
      <contour>
        <pt x="122" y="311" on="1"/>
        <pt x="122" y="188" on="0"/>
        <pt x="193" y="150" on="1"/>
        <pt x="208" y="319" on="0"/>
        <pt x="208" y="455" on="1"/>
        <pt x="208" y="490" on="1"/>
        <pt x="164" y="471" on="0"/>
        <pt x="122" y="374" on="0"/>
      </contour>
    </TTGlyph>
    <TTGlyph name="circumflex" xMin="110" yMin="528" xMax="378" yMax="682">
      <contour>
        <pt x="358" y="528" on="1"/>
        <pt x="358" y="528" on="0"/>
        <pt x="244" y="591" on="1"/>
        <pt x="211" y="573" on="0"/>
        <pt x="130" y="528" on="1"/>
        <pt x="114" y="546" on="0"/>
        <pt x="110" y="565" on="1"/>
        <pt x="128" y="580" on="0"/>
        <pt x="158" y="604" on="1"/>
        <pt x="218" y="655" on="0"/>
        <pt x="244" y="682" on="1"/>
        <pt x="270" y="655" on="0"/>
        <pt x="360" y="580" on="0"/>
        <pt x="378" y="565" on="1"/>
        <pt x="373" y="544" on="0"/>
      </contour>
    </TTGlyph>
    <TTGlyph name="circumflex.case" xMin="96" yMin="704" xMax="389" yMax="845">
      <contour>
        <pt x="373" y="704" on="1"/>
        <pt x="305" y="725" on="0"/>
        <pt x="246" y="756" on="1"/>
        <pt x="159" y="716" on="0"/>
        <pt x="111" y="704" on="1"/>
        <pt x="99" y="722" on="0"/>
        <pt x="96" y="743" on="1"/>
        <pt x="117" y="757" on="0"/>
        <pt x="153" y="775" on="0"/>
        <pt x="182" y="793" on="0"/>
        <pt x="196" y="803" on="0"/>
        <pt x="208" y="811" on="1"/>
        <pt x="222" y="821" on="0"/>
        <pt x="246" y="845" on="1"/>
        <pt x="290" y="803" on="0"/>
        <pt x="389" y="742" on="1"/>
        <pt x="386" y="721" on="0"/>
      </contour>
    </TTGlyph>
    <TTGlyph name="colon" xMin="87" yMin="-15" xMax="217" yMax="478">
      <contour>
        <pt x="217" y="55" on="1"/>
        <pt x="217" y="25" on="0"/>
        <pt x="181" y="-15" on="0"/>
        <pt x="144" y="-15" on="1"/>
        <pt x="87" y="-15" on="0"/>
        <pt x="87" y="43" on="1"/>
        <pt x="87" y="115" on="0"/>
        <pt x="160" y="115" on="1"/>
        <pt x="217" y="115" on="0"/>
      </contour>
      <contour>
        <pt x="217" y="418" on="1"/>
        <pt x="217" y="388" on="0"/>
        <pt x="181" y="348" on="0"/>
        <pt x="144" y="348" on="1"/>
        <pt x="87" y="348" on="0"/>
        <pt x="87" y="406" on="1"/>
        <pt x="87" y="478" on="0"/>
        <pt x="160" y="478" on="1"/>
        <pt x="217" y="478" on="0"/>
      </contour>
    </TTGlyph>
    <TTGlyph name="comma" xMin="70" yMin="-152" xMax="211" yMax="115">
      <contour>
        <pt x="75" y="-152" on="1"/>
        <pt x="70" y="-137" on="0"/>
        <pt x="70" y="-118" on="0"/>
        <pt x="73" y="-103" on="1"/>
        <pt x="140" y="-103" on="0"/>
        <pt x="140" y="-34" on="1"/>
        <pt x="140" y="-9" on="0"/>
        <pt x="114" y="-6" on="1"/>
        <pt x="76" y="-3" on="0"/>
        <pt x="76" y="43" on="1"/>
        <pt x="76" y="78" on="0"/>
        <pt x="109" y="115" on="0"/>
        <pt x="152" y="115" on="1"/>
        <pt x="211" y="115" on="0"/>
        <pt x="211" y="-45" on="0"/>
        <pt x="147" y="-152" on="0"/>
      </contour>
    </TTGlyph>
    <TTGlyph name="copyright" xMin="60" yMin="212" xMax="556" yMax="718">
      <contour>
        <pt x="407" y="541" on="1"/>
        <pt x="404" y="524" on="1"/>
        <pt x="393" y="518" on="0"/>
        <pt x="361" y="518" on="0"/>
        <pt x="349" y="520" on="1"/>
        <pt x="351" y="528" on="0"/>
        <pt x="351" y="561" on="0"/>
        <pt x="326" y="593" on="0"/>
        <pt x="305" y="593" on="1"/>
        <pt x="230" y="593" on="0"/>
        <pt x="230" y="342" on="0"/>
        <pt x="305" y="342" on="1"/>
        <pt x="345" y="342" on="0"/>
        <pt x="378" y="380" on="1"/>
        <pt x="400" y="361" on="0"/>
        <pt x="405" y="329" on="1"/>
        <pt x="358" y="294" on="0"/>
        <pt x="305" y="294" on="1"/>
        <pt x="230" y="294" on="0"/>
        <pt x="178" y="385" on="0"/>
        <pt x="178" y="467" on="1"/>
        <pt x="178" y="632" on="0"/>
        <pt x="305" y="632" on="1"/>
        <pt x="356" y="632" on="0"/>
        <pt x="407" y="581" on="0"/>
      </contour>
      <contour>
        <pt x="331" y="674" on="1"/>
        <pt x="113" y="674" on="0"/>
        <pt x="113" y="469" on="1"/>
        <pt x="113" y="350" on="0"/>
        <pt x="196" y="256" on="0"/>
        <pt x="285" y="256" on="1"/>
        <pt x="396" y="256" on="0"/>
        <pt x="503" y="372" on="0"/>
        <pt x="503" y="579" on="0"/>
        <pt x="420" y="674" on="0"/>
      </contour>
      <contour>
        <pt x="451" y="718" on="0"/>
        <pt x="556" y="598" on="0"/>
        <pt x="556" y="351" on="0"/>
        <pt x="428" y="212" on="0"/>
        <pt x="166" y="212" on="0"/>
        <pt x="60" y="338" on="0"/>
        <pt x="60" y="461" on="1"/>
        <pt x="60" y="516" on="0"/>
        <pt x="82" y="601" on="0"/>
        <pt x="110" y="639" on="1"/>
        <pt x="168" y="718" on="0"/>
        <pt x="328" y="718" on="1"/>
      </contour>
    </TTGlyph>
    <TTGlyph name="d" xMin="50" yMin="-15" xMax="429" yMax="682">
      <contour>
        <pt x="338" y="390" on="1"/>
        <pt x="275" y="419" on="0"/>
        <pt x="202" y="419" on="0"/>
        <pt x="159" y="381" on="0"/>
        <pt x="150" y="348" on="1"/>
        <pt x="135" y="292" on="0"/>
        <pt x="135" y="220" on="1"/>
        <pt x="135" y="62" on="0"/>
        <pt x="220" y="62" on="1"/>
        <pt x="250" y="62" on="0"/>
        <pt x="314" y="97" on="0"/>
        <pt x="336" y="122" on="1"/>
        <pt x="338" y="205" on="0"/>
      </contour>
      <contour>
        <pt x="426" y="680" on="1"/>
        <pt x="411" y="551" on="0"/>
        <pt x="411" y="187" on="0"/>
        <pt x="417" y="85" on="0"/>
        <pt x="429" y="7" on="1"/>
        <pt x="398" y="-3" on="0"/>
        <pt x="340" y="-3" on="0"/>
        <pt x="331" y="-2" on="1"/>
        <pt x="333" y="50" on="1"/>
        <pt x="264" y="-15" on="0"/>
        <pt x="191" y="-15" on="1"/>
        <pt x="148" y="-15" on="0"/>
        <pt x="89" y="32" on="0"/>
        <pt x="75" y="71" on="1"/>
        <pt x="50" y="141" on="0"/>
        <pt x="50" y="225" on="1"/>
        <pt x="50" y="478" on="0"/>
        <pt x="234" y="478" on="1"/>
        <pt x="284" y="478" on="0"/>
        <pt x="337" y="454" on="1"/>
        <pt x="335" y="590" on="0"/>
        <pt x="320" y="672" on="1"/>
        <pt x="342" y="682" on="0"/>
        <pt x="395" y="682" on="1"/>
        <pt x="401" y="682" on="0"/>
        <pt x="422" y="680" on="0"/>
      </contour>
    </TTGlyph>
    <TTGlyph name="dagger" xMin="10" yMin="-12" xMax="417" yMax="655">
      <contour>
        <pt x="249" y="338" on="1"/>
        <pt x="249" y="52" on="0"/>
        <pt x="266" y="-2" on="1"/>
        <pt x="233" y="-12" on="0"/>
        <pt x="177" y="-12" on="0"/>
        <pt x="160" y="-10" on="1"/>
        <pt x="174" y="107" on="0"/>
        <pt x="174" y="409" on="0"/>
        <pt x="173" y="452" on="1"/>
        <pt x="43" y="446" on="0"/>
        <pt x="13" y="438" on="1"/>
        <pt x="10" y="452" on="0"/>
        <pt x="10" y="504" on="0"/>
        <pt x="17" y="526" on="1"/>
        <pt x="84" y="517" on="0"/>
        <pt x="171" y="517" on="1"/>
        <pt x="166" y="593" on="0"/>
        <pt x="157" y="645" on="1"/>
        <pt x="183" y="655" on="0"/>
        <pt x="235" y="655" on="0"/>
        <pt x="263" y="653" on="1"/>
        <pt x="256" y="597" on="0"/>
        <pt x="252" y="517" on="1"/>
        <pt x="378" y="520" on="0"/>
        <pt x="414" y="531" on="1"/>
        <pt x="417" y="518" on="0"/>
        <pt x="417" y="465" on="0"/>
        <pt x="410" y="443" on="1"/>
        <pt x="339" y="450" on="0"/>
        <pt x="249" y="452" on="1"/>
      </contour>
    </TTGlyph>
    <TTGlyph name="daggerdbl" xMin="8" yMin="-12" xMax="417" yMax="655">
      <contour>
        <pt x="249" y="338" on="1"/>
        <pt x="249" y="240" on="0"/>
        <pt x="251" y="191" on="1"/>
        <pt x="376" y="194" on="0"/>
        <pt x="412" y="205" on="1"/>
        <pt x="415" y="191" on="0"/>
        <pt x="415" y="139" on="0"/>
        <pt x="408" y="117" on="1"/>
        <pt x="353" y="124" on="0"/>
        <pt x="254" y="126" on="1"/>
        <pt x="259" y="17" on="0"/>
        <pt x="266" y="-2" on="1"/>
        <pt x="233" y="-12" on="0"/>
        <pt x="177" y="-12" on="0"/>
        <pt x="160" y="-10" on="1"/>
        <pt x="167" y="43" on="0"/>
        <pt x="170" y="126" on="1"/>
        <pt x="41" y="120" on="0"/>
        <pt x="11" y="112" on="1"/>
        <pt x="8" y="125" on="0"/>
        <pt x="8" y="178" on="0"/>
        <pt x="15" y="200" on="1"/>
        <pt x="99" y="191" on="0"/>
        <pt x="172" y="191" on="1"/>
        <pt x="174" y="271" on="0"/>
        <pt x="174" y="409" on="0"/>
        <pt x="173" y="452" on="1"/>
        <pt x="43" y="446" on="0"/>
        <pt x="13" y="438" on="1"/>
        <pt x="10" y="452" on="0"/>
        <pt x="10" y="504" on="0"/>
        <pt x="17" y="526" on="1"/>
        <pt x="84" y="517" on="0"/>
        <pt x="171" y="517" on="1"/>
        <pt x="166" y="593" on="0"/>
        <pt x="157" y="645" on="1"/>
        <pt x="183" y="655" on="0"/>
        <pt x="235" y="655" on="0"/>
        <pt x="263" y="653" on="1"/>
        <pt x="256" y="597" on="0"/>
        <pt x="252" y="517" on="1"/>
        <pt x="378" y="520" on="0"/>
        <pt x="414" y="531" on="1"/>
        <pt x="417" y="518" on="0"/>
        <pt x="417" y="465" on="0"/>
        <pt x="410" y="443" on="1"/>
        <pt x="339" y="450" on="0"/>
        <pt x="249" y="452" on="1"/>
      </contour>
    </TTGlyph>
    <TTGlyph name="degree" xMin="40" yMin="417" xMax="302" yMax="683">
      <contour>
        <pt x="247" y="683" on="0"/>
        <pt x="302" y="620" on="0"/>
        <pt x="302" y="490" on="0"/>
        <pt x="234" y="417" on="0"/>
        <pt x="96" y="417" on="0"/>
        <pt x="40" y="483" on="0"/>
        <pt x="40" y="610" on="0"/>
        <pt x="101" y="683" on="0"/>
      </contour>
      <contour>
        <pt x="180" y="631" on="1"/>
        <pt x="95" y="631" on="0"/>
        <pt x="95" y="552" on="1"/>
        <pt x="95" y="506" on="0"/>
        <pt x="127" y="469" on="0"/>
        <pt x="205" y="469" on="0"/>
        <pt x="247" y="514" on="0"/>
        <pt x="247" y="595" on="0"/>
        <pt x="215" y="631" on="0"/>
      </contour>
    </TTGlyph>
    <TTGlyph name="dieresis" xMin="110" yMin="552" xMax="363" yMax="654">
      <contour>
        <pt x="213" y="607" on="1"/>
        <pt x="213" y="552" on="0"/>
        <pt x="155" y="552" on="1"/>
        <pt x="110" y="552" on="0"/>
        <pt x="110" y="598" on="1"/>
        <pt x="110" y="654" on="0"/>
        <pt x="168" y="654" on="1"/>
        <pt x="213" y="654" on="0"/>
      </contour>
      <contour>
        <pt x="363" y="607" on="1"/>
        <pt x="363" y="552" on="0"/>
        <pt x="305" y="552" on="1"/>
        <pt x="260" y="552" on="0"/>
        <pt x="260" y="598" on="1"/>
        <pt x="260" y="654" on="0"/>
        <pt x="318" y="654" on="1"/>
        <pt x="363" y="654" on="0"/>
      </contour>
    </TTGlyph>
    <TTGlyph name="dieresis.case" xMin="110" yMin="704" xMax="363" yMax="806">
      <contour>
        <pt x="213" y="759" on="1"/>
        <pt x="213" y="704" on="0"/>
        <pt x="155" y="704" on="1"/>
        <pt x="110" y="704" on="0"/>
        <pt x="110" y="750" on="1"/>
        <pt x="110" y="806" on="0"/>
        <pt x="168" y="806" on="1"/>
        <pt x="213" y="806" on="0"/>
      </contour>
      <contour>
        <pt x="363" y="759" on="1"/>
        <pt x="363" y="704" on="0"/>
        <pt x="305" y="704" on="1"/>
        <pt x="260" y="704" on="0"/>
        <pt x="260" y="750" on="1"/>
        <pt x="260" y="806" on="0"/>
        <pt x="318" y="806" on="1"/>
        <pt x="363" y="806" on="0"/>
      </contour>
    </TTGlyph>
    <TTGlyph name="divide" xMin="87" yMin="95" xMax="514" yMax="560">
      <contour>
        <pt x="507" y="286" on="1"/>
        <pt x="415" y="295" on="0"/>
        <pt x="242" y="295" on="0"/>
        <pt x="108" y="286" on="0"/>
        <pt x="90" y="281" on="1"/>
        <pt x="87" y="295" on="0"/>
        <pt x="87" y="347" on="0"/>
        <pt x="94" y="369" on="1"/>
        <pt x="163" y="360" on="0"/>
        <pt x="261" y="360" on="1"/>
        <pt x="461" y="360" on="0"/>
        <pt x="511" y="374" on="1"/>
        <pt x="514" y="360" on="0"/>
        <pt x="514" y="308" on="0"/>
      </contour>
      <contour>
        <pt x="365" y="500" on="1"/>
        <pt x="365" y="470" on="0"/>
        <pt x="329" y="430" on="0"/>
        <pt x="292" y="430" on="1"/>
        <pt x="235" y="430" on="0"/>
        <pt x="235" y="488" on="1"/>
        <pt x="235" y="560" on="0"/>
        <pt x="308" y="560" on="1"/>
        <pt x="365" y="560" on="0"/>
      </contour>
      <contour>
        <pt x="365" y="165" on="1"/>
        <pt x="365" y="135" on="0"/>
        <pt x="329" y="95" on="0"/>
        <pt x="292" y="95" on="1"/>
        <pt x="235" y="95" on="0"/>
        <pt x="235" y="153" on="1"/>
        <pt x="235" y="225" on="0"/>
        <pt x="308" y="225" on="1"/>
        <pt x="365" y="225" on="0"/>
      </contour>
    </TTGlyph>
    <TTGlyph name="dollar" xMin="70" yMin="-92" xMax="477" yMax="749">
      <contour>
        <pt x="314" y="746" on="1"/>
        <pt x="306" y="664" on="0"/>
        <pt x="305" y="653" on="1"/>
        <pt x="388" y="645" on="0"/>
        <pt x="467" y="549" on="0"/>
        <pt x="467" y="478" on="1"/>
        <pt x="467" y="466" on="0"/>
        <pt x="464" y="453" on="1"/>
        <pt x="438" y="444" on="0"/>
        <pt x="386" y="444" on="0"/>
        <pt x="374" y="446" on="1"/>
        <pt x="375" y="454" on="0"/>
        <pt x="375" y="467" on="1"/>
        <pt x="375" y="513" on="0"/>
        <pt x="335" y="579" on="0"/>
        <pt x="300" y="590" on="1"/>
        <pt x="293" y="490" on="0"/>
        <pt x="290" y="362" on="1"/>
        <pt x="327" y="343" on="0"/>
        <pt x="361" y="324" on="0"/>
        <pt x="422" y="279" on="0"/>
        <pt x="437" y="260" on="1"/>
        <pt x="477" y="208" on="0"/>
        <pt x="477" y="72" on="0"/>
        <pt x="370" y="-15" on="0"/>
        <pt x="292" y="-15" on="1"/>
        <pt x="287" y="-15" on="1"/>
        <pt x="289" y="-66" on="0"/>
        <pt x="291" y="-79" on="1"/>
        <pt x="268" y="-92" on="0"/>
        <pt x="227" y="-92" on="0"/>
        <pt x="214" y="-89" on="1"/>
        <pt x="221" y="-9" on="1"/>
        <pt x="128" y="6" on="0"/>
        <pt x="70" y="61" on="1"/>
        <pt x="74" y="85" on="0"/>
        <pt x="99" y="125" on="0"/>
        <pt x="110" y="132" on="1"/>
        <pt x="120" y="140" on="1"/>
        <pt x="162" y="81" on="0"/>
        <pt x="225" y="59" on="1"/>
        <pt x="232" y="169" on="0"/>
        <pt x="237" y="295" on="1"/>
        <pt x="190" y="320" on="0"/>
        <pt x="132" y="362" on="0"/>
        <pt x="83" y="441" on="0"/>
        <pt x="83" y="555" on="0"/>
        <pt x="160" y="645" on="0"/>
        <pt x="240" y="653" on="1"/>
        <pt x="237" y="736" on="1"/>
        <pt x="256" y="749" on="0"/>
        <pt x="298" y="749" on="0"/>
      </contour>
      <contour>
        <pt x="287" y="65" on="1"/>
        <pt x="287" y="49" on="1"/>
        <pt x="341" y="50" on="0"/>
        <pt x="392" y="106" on="0"/>
        <pt x="392" y="183" on="0"/>
        <pt x="339" y="240" on="0"/>
        <pt x="288" y="268" on="1"/>
        <pt x="287" y="200" on="0"/>
      </contour>
      <contour>
        <pt x="242" y="542" on="1"/>
        <pt x="242" y="594" on="1"/>
        <pt x="169" y="580" on="0"/>
        <pt x="169" y="500" on="1"/>
        <pt x="169" y="440" on="0"/>
        <pt x="240" y="392" on="1"/>
        <pt x="242" y="444" on="0"/>
      </contour>
    </TTGlyph>
    <TTGlyph name="dotaccent" xMin="60" yMin="561" xMax="174" yMax="675">
      <contour>
        <pt x="174" y="623" on="1"/>
        <pt x="174" y="561" on="0"/>
        <pt x="110" y="561" on="1"/>
        <pt x="60" y="561" on="0"/>
        <pt x="60" y="612" on="1"/>
        <pt x="60" y="675" on="0"/>
        <pt x="124" y="675" on="1"/>
        <pt x="174" y="675" on="0"/>
      </contour>
    </TTGlyph>
    <TTGlyph name="dotlessi" xMin="82" yMin="-4" xMax="191" yMax="468">
      <contour>
        <pt x="173" y="256" on="1"/>
        <pt x="173" y="92" on="0"/>
        <pt x="191" y="6" on="1"/>
        <pt x="155" y="-4" on="0"/>
        <pt x="97" y="-4" on="0"/>
        <pt x="85" y="-2" on="1"/>
        <pt x="100" y="134" on="0"/>
        <pt x="100" y="361" on="0"/>
        <pt x="82" y="458" on="1"/>
        <pt x="116" y="468" on="0"/>
        <pt x="170" y="468" on="0"/>
        <pt x="188" y="464" on="1"/>
        <pt x="173" y="309" on="0"/>
      </contour>
    </TTGlyph>
    <TTGlyph name="e" xMin="45" yMin="-15" xMax="401" yMax="478">
      <contour>
        <pt x="388" y="246" on="1"/>
        <pt x="313" y="222" on="0"/>
        <pt x="164" y="222" on="0"/>
        <pt x="127" y="227" on="1"/>
        <pt x="127" y="137" on="0"/>
        <pt x="156" y="96" on="1"/>
        <pt x="183" y="57" on="0"/>
        <pt x="297" y="57" on="0"/>
        <pt x="364" y="119" on="1"/>
        <pt x="393" y="89" on="0"/>
        <pt x="401" y="40" on="1"/>
        <pt x="320" y="-15" on="0"/>
        <pt x="232" y="-15" on="1"/>
        <pt x="127" y="-15" on="0"/>
        <pt x="45" y="122" on="0"/>
        <pt x="45" y="348" on="0"/>
        <pt x="136" y="478" on="0"/>
        <pt x="239" y="478" on="1"/>
        <pt x="311" y="478" on="0"/>
        <pt x="398" y="391" on="0"/>
        <pt x="399" y="272" on="0"/>
      </contour>
      <contour>
        <pt x="232" y="422" on="1"/>
        <pt x="140" y="422" on="0"/>
        <pt x="128" y="285" on="1"/>
        <pt x="171" y="280" on="0"/>
        <pt x="280" y="280" on="0"/>
        <pt x="311" y="290" on="1"/>
        <pt x="315" y="326" on="0"/>
        <pt x="315" y="327" on="1"/>
        <pt x="315" y="366" on="0"/>
        <pt x="275" y="422" on="0"/>
      </contour>
    </TTGlyph>
    <TTGlyph name="eacute" xMin="45" yMin="-15" xMax="401" yMax="682">
      <contour>
        <pt x="388" y="246" on="1"/>
        <pt x="313" y="222" on="0"/>
        <pt x="164" y="222" on="0"/>
        <pt x="127" y="227" on="1"/>
        <pt x="127" y="137" on="0"/>
        <pt x="156" y="96" on="1"/>
        <pt x="183" y="57" on="0"/>
        <pt x="297" y="57" on="0"/>
        <pt x="364" y="119" on="1"/>
        <pt x="393" y="89" on="0"/>
        <pt x="401" y="40" on="1"/>
        <pt x="320" y="-15" on="0"/>
        <pt x="232" y="-15" on="1"/>
        <pt x="127" y="-15" on="0"/>
        <pt x="45" y="122" on="0"/>
        <pt x="45" y="348" on="0"/>
        <pt x="136" y="478" on="0"/>
        <pt x="239" y="478" on="1"/>
        <pt x="311" y="478" on="0"/>
        <pt x="398" y="391" on="0"/>
        <pt x="399" y="272" on="0"/>
      </contour>
      <contour>
        <pt x="232" y="422" on="1"/>
        <pt x="140" y="422" on="0"/>
        <pt x="128" y="285" on="1"/>
        <pt x="171" y="280" on="0"/>
        <pt x="280" y="280" on="0"/>
        <pt x="311" y="290" on="1"/>
        <pt x="315" y="326" on="0"/>
        <pt x="315" y="327" on="1"/>
        <pt x="315" y="366" on="0"/>
        <pt x="275" y="422" on="0"/>
      </contour>
      <contour>
        <pt x="169" y="528" on="1"/>
        <pt x="154" y="544" on="0"/>
        <pt x="149" y="565" on="1"/>
        <pt x="168" y="578" on="0"/>
        <pt x="226" y="616" on="0"/>
        <pt x="240" y="626" on="1"/>
        <pt x="280" y="654" on="0"/>
        <pt x="313" y="682" on="1"/>
        <pt x="334" y="664" on="0"/>
        <pt x="352" y="631" on="0"/>
        <pt x="353" y="603" on="1"/>
        <pt x="293" y="579" on="0"/>
      </contour>
    </TTGlyph>
    <TTGlyph name="ecircumflex" xMin="45" yMin="-15" xMax="401" yMax="682">
      <contour>
        <pt x="388" y="246" on="1"/>
        <pt x="313" y="222" on="0"/>
        <pt x="164" y="222" on="0"/>
        <pt x="127" y="227" on="1"/>
        <pt x="127" y="137" on="0"/>
        <pt x="156" y="96" on="1"/>
        <pt x="183" y="57" on="0"/>
        <pt x="297" y="57" on="0"/>
        <pt x="364" y="119" on="1"/>
        <pt x="393" y="89" on="0"/>
        <pt x="401" y="40" on="1"/>
        <pt x="320" y="-15" on="0"/>
        <pt x="232" y="-15" on="1"/>
        <pt x="127" y="-15" on="0"/>
        <pt x="45" y="122" on="0"/>
        <pt x="45" y="348" on="0"/>
        <pt x="136" y="478" on="0"/>
        <pt x="239" y="478" on="1"/>
        <pt x="311" y="478" on="0"/>
        <pt x="398" y="391" on="0"/>
        <pt x="399" y="272" on="0"/>
      </contour>
      <contour>
        <pt x="232" y="422" on="1"/>
        <pt x="140" y="422" on="0"/>
        <pt x="128" y="285" on="1"/>
        <pt x="171" y="280" on="0"/>
        <pt x="280" y="280" on="0"/>
        <pt x="311" y="290" on="1"/>
        <pt x="315" y="326" on="0"/>
        <pt x="315" y="327" on="1"/>
        <pt x="315" y="366" on="0"/>
        <pt x="275" y="422" on="0"/>
      </contour>
      <contour>
        <pt x="350" y="528" on="1"/>
        <pt x="236" y="591" on="1"/>
        <pt x="203" y="573" on="0"/>
        <pt x="122" y="528" on="1"/>
        <pt x="106" y="546" on="0"/>
        <pt x="102" y="565" on="1"/>
        <pt x="120" y="580" on="0"/>
        <pt x="150" y="604" on="1"/>
        <pt x="210" y="655" on="0"/>
        <pt x="236" y="682" on="1"/>
        <pt x="262" y="655" on="0"/>
        <pt x="352" y="580" on="0"/>
        <pt x="370" y="565" on="1"/>
        <pt x="365" y="544" on="0"/>
      </contour>
    </TTGlyph>
    <TTGlyph name="edieresis" xMin="45" yMin="-15" xMax="401" yMax="654">
      <contour>
        <pt x="388" y="246" on="1"/>
        <pt x="313" y="222" on="0"/>
        <pt x="164" y="222" on="0"/>
        <pt x="127" y="227" on="1"/>
        <pt x="127" y="137" on="0"/>
        <pt x="156" y="96" on="1"/>
        <pt x="183" y="57" on="0"/>
        <pt x="297" y="57" on="0"/>
        <pt x="364" y="119" on="1"/>
        <pt x="393" y="89" on="0"/>
        <pt x="401" y="40" on="1"/>
        <pt x="320" y="-15" on="0"/>
        <pt x="232" y="-15" on="1"/>
        <pt x="127" y="-15" on="0"/>
        <pt x="45" y="122" on="0"/>
        <pt x="45" y="348" on="0"/>
        <pt x="136" y="478" on="0"/>
        <pt x="239" y="478" on="1"/>
        <pt x="311" y="478" on="0"/>
        <pt x="398" y="391" on="0"/>
        <pt x="399" y="272" on="0"/>
      </contour>
      <contour>
        <pt x="232" y="422" on="1"/>
        <pt x="140" y="422" on="0"/>
        <pt x="128" y="285" on="1"/>
        <pt x="171" y="280" on="0"/>
        <pt x="280" y="280" on="0"/>
        <pt x="311" y="290" on="1"/>
        <pt x="315" y="326" on="0"/>
        <pt x="315" y="327" on="1"/>
        <pt x="315" y="366" on="0"/>
        <pt x="275" y="422" on="0"/>
      </contour>
      <contour>
        <pt x="367" y="607" on="1"/>
        <pt x="367" y="552" on="0"/>
        <pt x="309" y="552" on="1"/>
        <pt x="264" y="552" on="0"/>
        <pt x="264" y="598" on="1"/>
        <pt x="264" y="654" on="0"/>
        <pt x="322" y="654" on="1"/>
        <pt x="367" y="654" on="0"/>
      </contour>
      <contour>
        <pt x="217" y="607" on="1"/>
        <pt x="217" y="552" on="0"/>
        <pt x="159" y="552" on="1"/>
        <pt x="114" y="552" on="0"/>
        <pt x="114" y="598" on="1"/>
        <pt x="114" y="654" on="0"/>
        <pt x="172" y="654" on="1"/>
        <pt x="217" y="654" on="0"/>
      </contour>
    </TTGlyph>
    <TTGlyph name="egrave" xMin="45" yMin="-15" xMax="401" yMax="682">
      <contour>
        <pt x="388" y="246" on="1"/>
        <pt x="313" y="222" on="0"/>
        <pt x="164" y="222" on="0"/>
        <pt x="127" y="227" on="1"/>
        <pt x="127" y="137" on="0"/>
        <pt x="156" y="96" on="1"/>
        <pt x="183" y="57" on="0"/>
        <pt x="297" y="57" on="0"/>
        <pt x="364" y="119" on="1"/>
        <pt x="393" y="89" on="0"/>
        <pt x="401" y="40" on="1"/>
        <pt x="320" y="-15" on="0"/>
        <pt x="232" y="-15" on="1"/>
        <pt x="127" y="-15" on="0"/>
        <pt x="45" y="122" on="0"/>
        <pt x="45" y="348" on="0"/>
        <pt x="136" y="478" on="0"/>
        <pt x="239" y="478" on="1"/>
        <pt x="311" y="478" on="0"/>
        <pt x="398" y="391" on="0"/>
        <pt x="399" y="272" on="0"/>
      </contour>
      <contour>
        <pt x="232" y="422" on="1"/>
        <pt x="140" y="422" on="0"/>
        <pt x="128" y="285" on="1"/>
        <pt x="171" y="280" on="0"/>
        <pt x="280" y="280" on="0"/>
        <pt x="311" y="290" on="1"/>
        <pt x="315" y="326" on="0"/>
        <pt x="315" y="327" on="1"/>
        <pt x="315" y="366" on="0"/>
        <pt x="275" y="422" on="0"/>
      </contour>
      <contour>
        <pt x="272" y="528" on="1"/>
        <pt x="148" y="579" on="0"/>
        <pt x="88" y="603" on="1"/>
        <pt x="89" y="631" on="0"/>
        <pt x="107" y="664" on="0"/>
        <pt x="128" y="682" on="1"/>
        <pt x="174" y="643" on="0"/>
        <pt x="273" y="578" on="0"/>
        <pt x="292" y="565" on="1"/>
        <pt x="287" y="544" on="0"/>
      </contour>
    </TTGlyph>
    <TTGlyph name="eight" xMin="60" yMin="-15" xMax="505" yMax="655">
      <contour>
        <pt x="187" y="333" on="1"/>
        <pt x="78" y="396" on="0"/>
        <pt x="78" y="491" on="1"/>
        <pt x="78" y="562" on="0"/>
        <pt x="179" y="655" on="0"/>
        <pt x="284" y="655" on="1"/>
        <pt x="489" y="655" on="0"/>
        <pt x="489" y="487" on="1"/>
        <pt x="489" y="404" on="0"/>
        <pt x="388" y="320" on="1"/>
        <pt x="505" y="258" on="0"/>
        <pt x="505" y="160" on="1"/>
        <pt x="505" y="76" on="0"/>
        <pt x="371" y="-15" on="0"/>
        <pt x="282" y="-15" on="1"/>
        <pt x="172" y="-15" on="0"/>
        <pt x="110" y="36" on="1"/>
        <pt x="60" y="77" on="0"/>
        <pt x="60" y="237" on="0"/>
      </contour>
      <contour>
        <pt x="282" y="59" on="1"/>
        <pt x="346" y="59" on="0"/>
        <pt x="417" y="125" on="0"/>
        <pt x="417" y="163" on="1"/>
        <pt x="417" y="194" on="0"/>
        <pt x="385" y="227" on="0"/>
        <pt x="367" y="243" on="0"/>
        <pt x="346" y="254" on="1"/>
        <pt x="314" y="270" on="1"/>
        <pt x="304" y="276" on="0"/>
        <pt x="251" y="300" on="0"/>
        <pt x="241" y="305" on="1"/>
        <pt x="148" y="229" on="0"/>
        <pt x="148" y="155" on="1"/>
        <pt x="148" y="59" on="0"/>
      </contour>
      <contour>
        <pt x="217" y="406" on="1"/>
        <pt x="246" y="387" on="0"/>
        <pt x="285" y="367" on="0"/>
        <pt x="329" y="348" on="1"/>
        <pt x="370" y="375" on="0"/>
        <pt x="406" y="453" on="0"/>
        <pt x="406" y="487" on="1"/>
        <pt x="406" y="596" on="0"/>
        <pt x="285" y="596" on="1"/>
        <pt x="236" y="596" on="0"/>
        <pt x="164" y="546" on="0"/>
        <pt x="164" y="442" on="0"/>
      </contour>
    </TTGlyph>
    <TTGlyph name="eightinferior" xMin="31" yMin="-116" xMax="307" yMax="288">
      <contour>
        <pt x="31" y="-18" on="1"/>
        <pt x="31" y="38" on="0"/>
        <pt x="101" y="92" on="1"/>
        <pt x="42" y="130" on="0"/>
        <pt x="42" y="186" on="1"/>
        <pt x="42" y="228" on="0"/>
        <pt x="109" y="288" on="0"/>
        <pt x="231" y="288" on="0"/>
        <pt x="297" y="231" on="0"/>
        <pt x="297" y="135" on="0"/>
        <pt x="244" y="87" on="1"/>
        <pt x="307" y="48" on="0"/>
        <pt x="307" y="-58" on="0"/>
        <pt x="223" y="-116" on="0"/>
        <pt x="168" y="-116" on="1"/>
        <pt x="92" y="-116" on="0"/>
        <pt x="54" y="-78" on="1"/>
        <pt x="31" y="-54" on="0"/>
      </contour>
      <contour>
        <pt x="100" y="-9" on="1"/>
        <pt x="100" y="-63" on="0"/>
        <pt x="170" y="-63" on="1"/>
        <pt x="201" y="-63" on="0"/>
        <pt x="238" y="-26" on="0"/>
        <pt x="238" y="16" on="0"/>
        <pt x="194" y="47" on="0"/>
        <pt x="146" y="68" on="1"/>
        <pt x="100" y="28" on="0"/>
      </contour>
      <contour>
        <pt x="145" y="239" on="0"/>
        <pt x="109" y="214" on="0"/>
        <pt x="109" y="172" on="0"/>
        <pt x="137" y="141" on="0"/>
        <pt x="165" y="126" on="0"/>
        <pt x="194" y="112" on="1"/>
        <pt x="232" y="145" on="0"/>
        <pt x="232" y="183" on="1"/>
        <pt x="232" y="239" on="0"/>
        <pt x="170" y="239" on="1"/>
      </contour>
    </TTGlyph>
    <TTGlyph name="ellipsis" xMin="90" yMin="-15" xMax="760" yMax="115">
      <contour>
        <pt x="220" y="55" on="1"/>
        <pt x="220" y="25" on="0"/>
        <pt x="184" y="-15" on="0"/>
        <pt x="147" y="-15" on="1"/>
        <pt x="90" y="-15" on="0"/>
        <pt x="90" y="43" on="1"/>
        <pt x="90" y="115" on="0"/>
        <pt x="163" y="115" on="1"/>
        <pt x="220" y="115" on="0"/>
      </contour>
      <contour>
        <pt x="490" y="55" on="1"/>
        <pt x="490" y="25" on="0"/>
        <pt x="454" y="-15" on="0"/>
        <pt x="417" y="-15" on="1"/>
        <pt x="360" y="-15" on="0"/>
        <pt x="360" y="43" on="1"/>
        <pt x="360" y="115" on="0"/>
        <pt x="433" y="115" on="1"/>
        <pt x="490" y="115" on="0"/>
      </contour>
      <contour>
        <pt x="760" y="55" on="1"/>
        <pt x="760" y="25" on="0"/>
        <pt x="724" y="-15" on="0"/>
        <pt x="687" y="-15" on="1"/>
        <pt x="630" y="-15" on="0"/>
        <pt x="630" y="43" on="1"/>
        <pt x="630" y="115" on="0"/>
        <pt x="703" y="115" on="1"/>
        <pt x="760" y="115" on="0"/>
      </contour>
    </TTGlyph>
    <TTGlyph name="emdash" xMin="20" yMin="210" xMax="711" yMax="303">
      <contour>
        <pt x="697" y="215" on="1"/>
        <pt x="533" y="224" on="0"/>
        <pt x="265" y="224" on="0"/>
        <pt x="59" y="214" on="0"/>
        <pt x="26" y="210" on="1"/>
        <pt x="20" y="224" on="0"/>
        <pt x="20" y="273" on="0"/>
        <pt x="34" y="298" on="1"/>
        <pt x="157" y="289" on="0"/>
        <pt x="314" y="289" on="1"/>
        <pt x="618" y="289" on="0"/>
        <pt x="705" y="303" on="1"/>
        <pt x="711" y="285" on="0"/>
        <pt x="711" y="240" on="0"/>
      </contour>
    </TTGlyph>
    <TTGlyph name="endash" xMin="20" yMin="210" xMax="482" yMax="303">
      <contour>
        <pt x="474" y="215" on="1"/>
        <pt x="376" y="224" on="0"/>
        <pt x="177" y="224" on="0"/>
        <pt x="43" y="214" on="0"/>
        <pt x="24" y="210" on="1"/>
        <pt x="20" y="224" on="0"/>
        <pt x="20" y="272" on="0"/>
        <pt x="28" y="298" on="1"/>
        <pt x="102" y="289" on="0"/>
        <pt x="304" y="289" on="0"/>
        <pt x="460" y="298" on="0"/>
        <pt x="478" y="303" on="1"/>
        <pt x="482" y="285" on="0"/>
        <pt x="482" y="241" on="0"/>
      </contour>
    </TTGlyph>
    <TTGlyph name="equal" xMin="87" yMin="181" xMax="514" yMax="474">
      <contour>
        <pt x="507" y="386" on="1"/>
        <pt x="415" y="395" on="0"/>
        <pt x="242" y="395" on="0"/>
        <pt x="108" y="386" on="0"/>
        <pt x="90" y="381" on="1"/>
        <pt x="87" y="394" on="0"/>
        <pt x="87" y="447" on="0"/>
        <pt x="94" y="469" on="1"/>
        <pt x="163" y="460" on="0"/>
        <pt x="261" y="460" on="1"/>
        <pt x="461" y="460" on="0"/>
        <pt x="511" y="474" on="1"/>
        <pt x="514" y="461" on="0"/>
        <pt x="514" y="408" on="0"/>
      </contour>
      <contour>
        <pt x="507" y="186" on="1"/>
        <pt x="415" y="195" on="0"/>
        <pt x="242" y="195" on="0"/>
        <pt x="108" y="186" on="0"/>
        <pt x="90" y="181" on="1"/>
        <pt x="87" y="195" on="0"/>
        <pt x="87" y="247" on="0"/>
        <pt x="94" y="269" on="1"/>
        <pt x="163" y="260" on="0"/>
        <pt x="261" y="260" on="1"/>
        <pt x="461" y="260" on="0"/>
        <pt x="511" y="274" on="1"/>
        <pt x="514" y="261" on="0"/>
        <pt x="514" y="208" on="0"/>
      </contour>
    </TTGlyph>
    <TTGlyph name="eth" xMin="55" yMin="-15" xMax="431" yMax="687">
      <contour>
        <pt x="431" y="246" on="1"/>
        <pt x="431" y="99" on="0"/>
        <pt x="382" y="40" on="1"/>
        <pt x="362" y="16" on="0"/>
        <pt x="291" y="-15" on="0"/>
        <pt x="186" y="-15" on="0"/>
        <pt x="109" y="24" on="0"/>
        <pt x="90" y="61" on="1"/>
        <pt x="55" y="126" on="0"/>
        <pt x="55" y="347" on="0"/>
        <pt x="140" y="478" on="0"/>
        <pt x="234" y="478" on="1"/>
        <pt x="288" y="478" on="0"/>
        <pt x="334" y="435" on="1"/>
        <pt x="302" y="522" on="0"/>
        <pt x="249" y="569" on="1"/>
        <pt x="188" y="534" on="0"/>
        <pt x="166" y="518" on="1"/>
        <pt x="145" y="531" on="0"/>
        <pt x="145" y="561" on="1"/>
        <pt x="174" y="576" on="0"/>
        <pt x="210" y="597" on="1"/>
        <pt x="175" y="618" on="0"/>
        <pt x="123" y="637" on="1"/>
        <pt x="123" y="671" on="0"/>
        <pt x="136" y="687" on="1"/>
        <pt x="209" y="665" on="0"/>
        <pt x="263" y="627" on="1"/>
        <pt x="327" y="663" on="0"/>
        <pt x="351" y="681" on="1"/>
        <pt x="371" y="669" on="0"/>
        <pt x="373" y="636" on="1"/>
        <pt x="339" y="619" on="0"/>
        <pt x="299" y="597" on="1"/>
        <pt x="431" y="476" on="0"/>
      </contour>
      <contour>
        <pt x="137" y="57" on="0"/>
        <pt x="349" y="57" on="0"/>
        <pt x="349" y="422" on="0"/>
        <pt x="137" y="422" on="0"/>
      </contour>
    </TTGlyph>
    <TTGlyph name="exclam" xMin="90" yMin="-15" xMax="220" yMax="674">
      <contour>
        <pt x="121" y="375" on="1"/>
        <pt x="121" y="559" on="0"/>
        <pt x="95" y="663" on="1"/>
        <pt x="125" y="674" on="0"/>
        <pt x="181" y="674" on="0"/>
        <pt x="205" y="668" on="1"/>
        <pt x="185" y="479" on="0"/>
        <pt x="185" y="245" on="1"/>
        <pt x="185" y="212" on="0"/>
        <pt x="187" y="180" on="1"/>
        <pt x="168" y="174" on="0"/>
        <pt x="138" y="174" on="0"/>
        <pt x="119" y="180" on="1"/>
        <pt x="121" y="286" on="0"/>
      </contour>
      <contour>
        <pt x="220" y="55" on="1"/>
        <pt x="220" y="25" on="0"/>
        <pt x="184" y="-15" on="0"/>
        <pt x="147" y="-15" on="1"/>
        <pt x="90" y="-15" on="0"/>
        <pt x="90" y="43" on="1"/>
        <pt x="90" y="115" on="0"/>
        <pt x="163" y="115" on="1"/>
        <pt x="220" y="115" on="0"/>
      </contour>
    </TTGlyph>
    <TTGlyph name="exclamdown" xMin="50" yMin="-211" xMax="180" yMax="478">
      <contour>
        <pt x="149" y="88" on="1"/>
        <pt x="149" y="-96" on="0"/>
        <pt x="175" y="-200" on="1"/>
        <pt x="145" y="-211" on="0"/>
        <pt x="89" y="-211" on="0"/>
        <pt x="65" y="-205" on="1"/>
        <pt x="85" y="-16" on="0"/>
        <pt x="85" y="218" on="1"/>
        <pt x="85" y="251" on="0"/>
        <pt x="83" y="283" on="1"/>
        <pt x="103" y="289" on="0"/>
        <pt x="132" y="289" on="0"/>
        <pt x="151" y="283" on="1"/>
        <pt x="149" y="177" on="0"/>
      </contour>
      <contour>
        <pt x="50" y="408" on="1"/>
        <pt x="50" y="438" on="0"/>
        <pt x="86" y="478" on="0"/>
        <pt x="123" y="478" on="1"/>
        <pt x="180" y="478" on="0"/>
        <pt x="180" y="420" on="1"/>
        <pt x="180" y="348" on="0"/>
        <pt x="107" y="348" on="1"/>
        <pt x="50" y="348" on="0"/>
      </contour>
    </TTGlyph>
    <TTGlyph name="f" xMin="34" yMin="-4" xMax="335" yMax="675">
      <contour>
        <pt x="100" y="208" on="1"/>
        <pt x="97" y="408" on="1"/>
        <pt x="57" y="408" on="0"/>
        <pt x="40" y="407" on="1"/>
        <pt x="34" y="423" on="0"/>
        <pt x="34" y="454" on="0"/>
        <pt x="36" y="462" on="1"/>
        <pt x="94" y="462" on="1"/>
        <pt x="93" y="475" on="0"/>
        <pt x="93" y="502" on="1"/>
        <pt x="93" y="675" on="0"/>
        <pt x="232" y="675" on="1"/>
        <pt x="290" y="675" on="0"/>
        <pt x="335" y="644" on="1"/>
        <pt x="335" y="587" on="0"/>
        <pt x="302" y="561" on="1"/>
        <pt x="271" y="615" on="0"/>
        <pt x="228" y="615" on="1"/>
        <pt x="166" y="615" on="0"/>
        <pt x="166" y="496" on="1"/>
        <pt x="166" y="474" on="0"/>
        <pt x="167" y="463" on="1"/>
        <pt x="251" y="465" on="0"/>
        <pt x="292" y="469" on="1"/>
        <pt x="298" y="456" on="0"/>
        <pt x="298" y="425" on="0"/>
        <pt x="294" y="403" on="1"/>
        <pt x="256" y="405" on="0"/>
        <pt x="172" y="407" on="1"/>
        <pt x="172" y="313" on="1"/>
        <pt x="173" y="237" on="1"/>
        <pt x="173" y="98" on="0"/>
        <pt x="191" y="6" on="1"/>
        <pt x="157" y="-4" on="0"/>
        <pt x="103" y="-4" on="0"/>
        <pt x="85" y="0" on="1"/>
        <pt x="100" y="155" on="0"/>
      </contour>
    </TTGlyph>
    <TTGlyph name="fi" xMin="34" yMin="-4" xMax="469" yMax="675">
      <contour>
        <pt x="94" y="408" on="1"/>
        <pt x="40" y="407" on="1"/>
        <pt x="34" y="419" on="0"/>
        <pt x="34" y="454" on="0"/>
        <pt x="36" y="462" on="1"/>
        <pt x="93" y="462" on="1"/>
        <pt x="93" y="502" on="1"/>
        <pt x="93" y="675" on="0"/>
        <pt x="218" y="675" on="1"/>
        <pt x="271" y="675" on="0"/>
        <pt x="310" y="654" on="1"/>
        <pt x="310" y="597" on="0"/>
        <pt x="277" y="571" on="1"/>
        <pt x="251" y="615" on="0"/>
        <pt x="217" y="615" on="1"/>
        <pt x="166" y="615" on="0"/>
        <pt x="166" y="496" on="1"/>
        <pt x="166" y="473" on="0"/>
        <pt x="167" y="462" on="1"/>
        <pt x="174" y="462" on="1"/>
        <pt x="258" y="462" on="0"/>
        <pt x="403" y="468" on="0"/>
        <pt x="447" y="468" on="0"/>
        <pt x="465" y="464" on="1"/>
        <pt x="450" y="309" on="0"/>
        <pt x="450" y="256" on="1"/>
        <pt x="450" y="92" on="0"/>
        <pt x="468" y="6" on="1"/>
        <pt x="432" y="-4" on="0"/>
        <pt x="374" y="-4" on="0"/>
        <pt x="362" y="-2" on="1"/>
        <pt x="377" y="134" on="0"/>
        <pt x="377" y="321" on="0"/>
        <pt x="367" y="406" on="1"/>
        <pt x="280" y="409" on="0"/>
        <pt x="179" y="409" on="1"/>
        <pt x="172" y="409" on="1"/>
        <pt x="172" y="314" on="1"/>
        <pt x="173" y="237" on="1"/>
        <pt x="173" y="98" on="0"/>
        <pt x="191" y="6" on="1"/>
        <pt x="157" y="-4" on="0"/>
        <pt x="103" y="-4" on="0"/>
        <pt x="85" y="0" on="1"/>
        <pt x="100" y="155" on="0"/>
        <pt x="100" y="219" on="0"/>
      </contour>
      <contour>
        <pt x="469" y="613" on="1"/>
        <pt x="469" y="551" on="0"/>
        <pt x="405" y="551" on="1"/>
        <pt x="355" y="551" on="0"/>
        <pt x="355" y="602" on="1"/>
        <pt x="355" y="665" on="0"/>
        <pt x="419" y="665" on="1"/>
        <pt x="469" y="665" on="0"/>
      </contour>
    </TTGlyph>
    <TTGlyph name="five" xMin="40" yMin="-15" xMax="481" yMax="648">
      <contour>
        <pt x="170" y="386" on="1"/>
        <pt x="220" y="395" on="0"/>
        <pt x="313" y="395" on="0"/>
        <pt x="406" y="358" on="0"/>
        <pt x="432" y="327" on="1"/>
        <pt x="481" y="267" on="0"/>
        <pt x="481" y="97" on="0"/>
        <pt x="364" y="-15" on="0"/>
        <pt x="112" y="-15" on="0"/>
        <pt x="40" y="51" on="1"/>
        <pt x="44" y="75" on="0"/>
        <pt x="66" y="114" on="0"/>
        <pt x="76" y="122" on="1"/>
        <pt x="85" y="130" on="1"/>
        <pt x="111" y="91" on="0"/>
        <pt x="198" y="49" on="0"/>
        <pt x="242" y="49" on="1"/>
        <pt x="318" y="49" on="0"/>
        <pt x="394" y="129" on="0"/>
        <pt x="394" y="242" on="0"/>
        <pt x="327" y="332" on="0"/>
        <pt x="168" y="332" on="0"/>
        <pt x="124" y="302" on="1"/>
        <pt x="96" y="302" on="0"/>
        <pt x="80" y="308" on="1"/>
        <pt x="93" y="345" on="0"/>
        <pt x="107" y="530" on="0"/>
        <pt x="107" y="631" on="0"/>
        <pt x="106" y="646" on="1"/>
        <pt x="197" y="639" on="0"/>
        <pt x="374" y="639" on="0"/>
        <pt x="459" y="648" on="1"/>
        <pt x="463" y="630" on="0"/>
        <pt x="463" y="586" on="0"/>
        <pt x="455" y="560" on="1"/>
        <pt x="438" y="565" on="0"/>
        <pt x="315" y="574" on="0"/>
        <pt x="243" y="573" on="0"/>
        <pt x="188" y="573" on="1"/>
        <pt x="172" y="472" on="0"/>
      </contour>
    </TTGlyph>
    <TTGlyph name="fiveinferior" xMin="35" yMin="-116" xMax="310" yMax="285">
      <contour>
        <pt x="168" y="138" on="1"/>
        <pt x="242" y="138" on="0"/>
        <pt x="310" y="62" on="0"/>
        <pt x="310" y="-46" on="0"/>
        <pt x="237" y="-116" on="0"/>
        <pt x="82" y="-116" on="0"/>
        <pt x="35" y="-72" on="1"/>
        <pt x="38" y="-55" on="0"/>
        <pt x="57" y="-25" on="0"/>
        <pt x="65" y="-18" on="1"/>
        <pt x="73" y="-12" on="1"/>
        <pt x="108" y="-63" on="0"/>
        <pt x="163" y="-63" on="1"/>
        <pt x="203" y="-63" on="0"/>
        <pt x="242" y="-22" on="0"/>
        <pt x="242" y="38" on="0"/>
        <pt x="207" y="85" on="0"/>
        <pt x="124" y="85" on="0"/>
        <pt x="98" y="68" on="1"/>
        <pt x="77" y="68" on="0"/>
        <pt x="57" y="76" on="1"/>
        <pt x="76" y="127" on="0"/>
        <pt x="76" y="250" on="1"/>
        <pt x="76" y="267" on="0"/>
        <pt x="74" y="285" on="1"/>
        <pt x="150" y="279" on="0"/>
        <pt x="215" y="279" on="0"/>
        <pt x="296" y="285" on="1"/>
        <pt x="299" y="261" on="0"/>
        <pt x="299" y="237" on="0"/>
        <pt x="292" y="216" on="1"/>
        <pt x="256" y="226" on="0"/>
        <pt x="188" y="226" on="1"/>
        <pt x="139" y="226" on="1"/>
        <pt x="131" y="177" on="0"/>
        <pt x="129" y="135" on="1"/>
        <pt x="152" y="138" on="0"/>
      </contour>
    </TTGlyph>
    <TTGlyph name="fl" xMin="26" yMin="-4" xMax="460" yMax="681">
      <contour>
        <pt x="92" y="208" on="1"/>
        <pt x="89" y="408" on="1"/>
        <pt x="49" y="408" on="0"/>
        <pt x="32" y="407" on="1"/>
        <pt x="26" y="419" on="0"/>
        <pt x="26" y="454" on="0"/>
        <pt x="28" y="462" on="1"/>
        <pt x="86" y="462" on="1"/>
        <pt x="85" y="475" on="0"/>
        <pt x="85" y="502" on="1"/>
        <pt x="85" y="593" on="0"/>
        <pt x="166" y="674" on="0"/>
        <pt x="244" y="674" on="1"/>
        <pt x="291" y="674" on="0"/>
        <pt x="356" y="660" on="1"/>
        <pt x="387" y="681" on="0"/>
        <pt x="429" y="681" on="1"/>
        <pt x="447" y="681" on="0"/>
        <pt x="457" y="680" on="1"/>
        <pt x="442" y="557" on="0"/>
        <pt x="442" y="67" on="0"/>
        <pt x="460" y="6" on="1"/>
        <pt x="427" y="-4" on="0"/>
        <pt x="388" y="-4" on="0"/>
        <pt x="354" y="-2" on="1"/>
        <pt x="369" y="128" on="0"/>
        <pt x="369" y="520" on="0"/>
        <pt x="362" y="581" on="1"/>
        <pt x="271" y="616" on="0"/>
        <pt x="197" y="616" on="0"/>
        <pt x="158" y="562" on="0"/>
        <pt x="158" y="496" on="1"/>
        <pt x="158" y="474" on="0"/>
        <pt x="159" y="463" on="1"/>
        <pt x="243" y="465" on="0"/>
        <pt x="284" y="469" on="1"/>
        <pt x="290" y="456" on="0"/>
        <pt x="290" y="425" on="0"/>
        <pt x="286" y="403" on="1"/>
        <pt x="248" y="405" on="0"/>
        <pt x="164" y="407" on="1"/>
        <pt x="164" y="313" on="1"/>
        <pt x="165" y="237" on="1"/>
        <pt x="165" y="98" on="0"/>
        <pt x="183" y="6" on="1"/>
        <pt x="149" y="-4" on="0"/>
        <pt x="95" y="-4" on="0"/>
        <pt x="77" y="0" on="1"/>
        <pt x="92" y="155" on="0"/>
      </contour>
    </TTGlyph>
    <TTGlyph name="florin" xMin="-33" yMin="-210" xMax="436" yMax="666">
      <contour>
        <pt x="214" y="274" on="1"/>
        <pt x="227" y="-64" on="0"/>
        <pt x="227" y="-69" on="1"/>
        <pt x="227" y="-142" on="0"/>
        <pt x="153" y="-210" on="0"/>
        <pt x="29" y="-210" on="0"/>
        <pt x="-32" y="-188" on="1"/>
        <pt x="-33" y="-175" on="1"/>
        <pt x="-33" y="-136" on="0"/>
        <pt x="-15" y="-102" on="1"/>
        <pt x="49" y="-137" on="0"/>
        <pt x="124" y="-137" on="0"/>
        <pt x="145" y="-71" on="0"/>
        <pt x="145" y="87" on="0"/>
        <pt x="133" y="275" on="1"/>
        <pt x="43" y="275" on="1"/>
        <pt x="35" y="291" on="0"/>
        <pt x="35" y="319" on="0"/>
        <pt x="38" y="331" on="1"/>
        <pt x="130" y="331" on="1"/>
        <pt x="126" y="433" on="0"/>
        <pt x="126" y="474" on="1"/>
        <pt x="126" y="574" on="0"/>
        <pt x="203" y="666" on="0"/>
        <pt x="368" y="666" on="0"/>
        <pt x="436" y="580" on="0"/>
        <pt x="436" y="519" on="1"/>
        <pt x="436" y="506" on="0"/>
        <pt x="433" y="494" on="1"/>
        <pt x="416" y="485" on="0"/>
        <pt x="358" y="485" on="0"/>
        <pt x="343" y="489" on="1"/>
        <pt x="344" y="497" on="0"/>
        <pt x="344" y="508" on="1"/>
        <pt x="344" y="607" on="0"/>
        <pt x="282" y="607" on="1"/>
        <pt x="237" y="607" on="0"/>
        <pt x="210" y="532" on="0"/>
        <pt x="210" y="375" on="0"/>
        <pt x="212" y="332" on="1"/>
        <pt x="300" y="334" on="0"/>
        <pt x="371" y="339" on="1"/>
        <pt x="378" y="325" on="0"/>
        <pt x="378" y="284" on="0"/>
        <pt x="374" y="269" on="1"/>
        <pt x="322" y="272" on="0"/>
      </contour>
    </TTGlyph>
    <TTGlyph name="four" xMin="10" yMin="-8" xMax="461" yMax="649">
      <contour>
        <pt x="264" y="639" on="1"/>
        <pt x="294" y="649" on="0"/>
        <pt x="358" y="649" on="0"/>
        <pt x="410" y="645" on="1"/>
        <pt x="396" y="534" on="0"/>
        <pt x="396" y="256" on="0"/>
        <pt x="397" y="214" on="1"/>
        <pt x="447" y="218" on="0"/>
        <pt x="457" y="221" on="1"/>
        <pt x="461" y="203" on="0"/>
        <pt x="461" y="159" on="0"/>
        <pt x="453" y="133" on="1"/>
        <pt x="435" y="136" on="0"/>
        <pt x="400" y="138" on="1"/>
        <pt x="405" y="24" on="0"/>
        <pt x="413" y="2" on="1"/>
        <pt x="380" y="-8" on="0"/>
        <pt x="324" y="-8" on="0"/>
        <pt x="307" y="-6" on="1"/>
        <pt x="315" y="65" on="0"/>
        <pt x="318" y="141" on="1"/>
        <pt x="287" y="142" on="0"/>
        <pt x="65" y="142" on="0"/>
        <pt x="13" y="136" on="1"/>
        <pt x="10" y="145" on="0"/>
        <pt x="10" y="172" on="1"/>
        <pt x="23" y="195" on="0"/>
        <pt x="96" y="318" on="0"/>
        <pt x="121" y="362" on="0"/>
        <pt x="176" y="459" on="0"/>
        <pt x="191" y="488" on="1"/>
        <pt x="237" y="576" on="0"/>
      </contour>
      <contour>
        <pt x="118" y="208" on="1"/>
        <pt x="156" y="207" on="0"/>
        <pt x="254" y="207" on="0"/>
        <pt x="320" y="209" on="1"/>
        <pt x="321" y="243" on="0"/>
        <pt x="321" y="504" on="0"/>
        <pt x="313" y="579" on="1"/>
        <pt x="247" y="481" on="0"/>
      </contour>
    </TTGlyph>
    <TTGlyph name="fourinferior" xMin="32" yMin="-112" xMax="312" yMax="285">
      <contour>
        <pt x="305" y="-31" on="1"/>
        <pt x="277" y="-28" on="1"/>
        <pt x="280" y="-86" on="0"/>
        <pt x="286" y="-103" on="1"/>
        <pt x="265" y="-112" on="0"/>
        <pt x="225" y="-112" on="0"/>
        <pt x="203" y="-110" on="1"/>
        <pt x="209" y="-57" on="0"/>
        <pt x="210" y="-25" on="1"/>
        <pt x="166" y="-25" on="1"/>
        <pt x="85" y="-25" on="0"/>
        <pt x="37" y="-28" on="1"/>
        <pt x="32" y="-15" on="0"/>
        <pt x="32" y="3" on="1"/>
        <pt x="58" y="46" on="1"/>
        <pt x="140" y="183" on="0"/>
        <pt x="182" y="276" on="1"/>
        <pt x="205" y="285" on="0"/>
        <pt x="249" y="285" on="0"/>
        <pt x="283" y="282" on="1"/>
        <pt x="274" y="214" on="0"/>
        <pt x="274" y="56" on="0"/>
        <pt x="275" y="34" on="1"/>
        <pt x="298" y="37" on="0"/>
        <pt x="306" y="40" on="1"/>
        <pt x="312" y="22" on="0"/>
        <pt x="312" y="-8" on="0"/>
      </contour>
      <contour>
        <pt x="212" y="29" on="1"/>
        <pt x="213" y="48" on="0"/>
        <pt x="213" y="152" on="0"/>
        <pt x="210" y="220" on="1"/>
        <pt x="166" y="147" on="0"/>
        <pt x="112" y="28" on="1"/>
        <pt x="196" y="28" on="0"/>
      </contour>
    </TTGlyph>
    <TTGlyph name="fraction" xMin="278" yMin="-46" xMax="611" yMax="688">
      <contour>
        <pt x="335" y="-46" on="1"/>
        <pt x="301" y="-46" on="0"/>
        <pt x="278" y="-27" on="1"/>
        <pt x="402" y="265" on="0"/>
        <pt x="532" y="686" on="1"/>
        <pt x="548" y="688" on="0"/>
        <pt x="558" y="688" on="1"/>
        <pt x="586" y="688" on="0"/>
        <pt x="611" y="670" on="1"/>
        <pt x="490" y="391" on="0"/>
        <pt x="356" y="-44" on="1"/>
        <pt x="340" y="-46" on="0"/>
      </contour>
    </TTGlyph>
    <TTGlyph name="g" xMin="25" yMin="-210" xMax="429" yMax="558">
      <contour>
        <pt x="220" y="478" on="1"/>
        <pt x="270" y="478" on="0"/>
        <pt x="307" y="462" on="1"/>
        <pt x="307" y="478" on="1"/>
        <pt x="307" y="518" on="0"/>
        <pt x="340" y="558" on="0"/>
        <pt x="381" y="558" on="1"/>
        <pt x="388" y="558" on="0"/>
        <pt x="406" y="556" on="1"/>
        <pt x="408" y="540" on="0"/>
        <pt x="408" y="507" on="0"/>
        <pt x="402" y="475" on="1"/>
        <pt x="395" y="476" on="0"/>
        <pt x="365" y="476" on="0"/>
        <pt x="351" y="457" on="0"/>
        <pt x="350" y="435" on="1"/>
        <pt x="346" y="436" on="1"/>
        <pt x="389" y="393" on="0"/>
        <pt x="389" y="308" on="1"/>
        <pt x="389" y="230" on="0"/>
        <pt x="358" y="178" on="1"/>
        <pt x="323" y="120" on="0"/>
        <pt x="220" y="120" on="1"/>
        <pt x="177" y="120" on="0"/>
        <pt x="150" y="130" on="1"/>
        <pt x="129" y="93" on="0"/>
        <pt x="119" y="49" on="1"/>
        <pt x="136" y="46" on="0"/>
        <pt x="174" y="46" on="0"/>
        <pt x="288" y="60" on="0"/>
        <pt x="313" y="60" on="1"/>
        <pt x="365" y="60" on="0"/>
        <pt x="429" y="8" on="0"/>
        <pt x="429" y="-100" on="0"/>
        <pt x="394" y="-140" on="1"/>
        <pt x="333" y="-210" on="0"/>
        <pt x="204" y="-210" on="1"/>
        <pt x="117" y="-210" on="0"/>
        <pt x="25" y="-166" on="0"/>
        <pt x="25" y="-106" on="1"/>
        <pt x="25" y="-90" on="0"/>
        <pt x="27" y="-79" on="1"/>
        <pt x="48" y="-71" on="0"/>
        <pt x="93" y="-71" on="0"/>
        <pt x="119" y="-75" on="1"/>
        <pt x="117" y="-83" on="0"/>
        <pt x="117" y="-120" on="0"/>
        <pt x="163" y="-155" on="0"/>
        <pt x="273" y="-155" on="0"/>
        <pt x="352" y="-111" on="0"/>
        <pt x="352" y="-67" on="1"/>
        <pt x="352" y="-18" on="0"/>
        <pt x="299" y="-18" on="1"/>
        <pt x="273" y="-18" on="0"/>
        <pt x="161" y="-31" on="0"/>
        <pt x="96" y="-31" on="0"/>
        <pt x="53" y="-4" on="0"/>
        <pt x="53" y="24" on="1"/>
        <pt x="53" y="77" on="0"/>
        <pt x="104" y="154" on="1"/>
        <pt x="51" y="197" on="0"/>
        <pt x="51" y="308" on="1"/>
        <pt x="51" y="478" on="0"/>
      </contour>
      <contour>
        <pt x="132" y="189" on="0"/>
        <pt x="308" y="189" on="0"/>
        <pt x="308" y="425" on="0"/>
        <pt x="132" y="425" on="0"/>
      </contour>
    </TTGlyph>
    <TTGlyph name="germandbls" xMin="26" yMin="-15" xMax="512" yMax="675">
      <contour>
        <pt x="89" y="408" on="1"/>
        <pt x="32" y="407" on="1"/>
        <pt x="26" y="419" on="0"/>
        <pt x="26" y="454" on="0"/>
        <pt x="28" y="462" on="1"/>
        <pt x="89" y="462" on="1"/>
        <pt x="92" y="522" on="0"/>
        <pt x="124" y="613" on="0"/>
        <pt x="204" y="675" on="0"/>
        <pt x="342" y="675" on="0"/>
        <pt x="442" y="592" on="0"/>
        <pt x="442" y="454" on="0"/>
        <pt x="379" y="374" on="0"/>
        <pt x="332" y="359" on="1"/>
        <pt x="512" y="321" on="0"/>
        <pt x="512" y="173" on="1"/>
        <pt x="512" y="35" on="0"/>
        <pt x="404" y="-3" on="1"/>
        <pt x="369" y="-15" on="0"/>
        <pt x="324" y="-15" on="1"/>
        <pt x="249" y="-15" on="0"/>
        <pt x="195" y="34" on="1"/>
        <pt x="201" y="68" on="0"/>
        <pt x="223" y="98" on="1"/>
        <pt x="230" y="108" on="1"/>
        <pt x="265" y="49" on="0"/>
        <pt x="326" y="49" on="1"/>
        <pt x="425" y="49" on="0"/>
        <pt x="425" y="173" on="1"/>
        <pt x="425" y="267" on="0"/>
        <pt x="354" y="299" on="1"/>
        <pt x="325" y="312" on="0"/>
        <pt x="262" y="320" on="0"/>
        <pt x="259" y="321" on="1"/>
        <pt x="253" y="333" on="0"/>
        <pt x="253" y="368" on="0"/>
        <pt x="255" y="376" on="1"/>
        <pt x="359" y="397" on="0"/>
        <pt x="359" y="507" on="1"/>
        <pt x="359" y="554" on="0"/>
        <pt x="312" y="615" on="0"/>
        <pt x="234" y="615" on="0"/>
        <pt x="191" y="588" on="0"/>
        <pt x="182" y="562" on="1"/>
        <pt x="165" y="518" on="0"/>
        <pt x="165" y="452" on="1"/>
        <pt x="165" y="237" on="1"/>
        <pt x="165" y="98" on="0"/>
        <pt x="183" y="6" on="1"/>
        <pt x="149" y="-4" on="0"/>
        <pt x="95" y="-4" on="0"/>
        <pt x="77" y="0" on="1"/>
        <pt x="92" y="155" on="0"/>
        <pt x="92" y="208" on="1"/>
      </contour>
    </TTGlyph>
    <TTGlyph name="grave" xMin="110" yMin="528" xMax="314" yMax="682">
      <contour>
        <pt x="294" y="528" on="1"/>
        <pt x="170" y="579" on="0"/>
        <pt x="110" y="603" on="1"/>
        <pt x="111" y="631" on="0"/>
        <pt x="129" y="664" on="0"/>
        <pt x="150" y="682" on="1"/>
        <pt x="196" y="643" on="0"/>
        <pt x="295" y="578" on="0"/>
        <pt x="314" y="565" on="1"/>
        <pt x="309" y="544" on="0"/>
      </contour>
    </TTGlyph>
    <TTGlyph name="grave.case" xMin="110" yMin="704" xMax="306" yMax="845">
      <contour>
        <pt x="290" y="704" on="1"/>
        <pt x="227" y="717" on="0"/>
        <pt x="110" y="759" on="1"/>
        <pt x="110" y="792" on="0"/>
        <pt x="123" y="823" on="0"/>
        <pt x="143" y="845" on="1"/>
        <pt x="181" y="813" on="0"/>
        <pt x="236" y="782" on="0"/>
        <pt x="249" y="774" on="0"/>
        <pt x="299" y="746" on="0"/>
        <pt x="306" y="742" on="1"/>
        <pt x="303" y="721" on="0"/>
      </contour>
    </TTGlyph>
</ttFont>
